<svg width="256" height="256" viewBox="0 0 256 256" fill="none" xmlns="http://www.w3.org/2000/svg">
<g filter="url(#filter0_b_4764_9091)">
<rect width="256" height="256" rx="128" fill="#008A44"/>
</g>
<mask id="mask0_4764_9091" style="mask-type:alpha" maskUnits="userSpaceOnUse" x="7" y="7" width="242" height="242">
<path d="M98.1456 244.285C94.4769 243.415 90.8658 242.318 87.3334 241.001C86.6987 240.485 87.1688 240.086 87.4979 239.735C88.2413 239.037 89.1332 238.515 90.1069 238.21C92.575 237.365 95.1605 237.154 97.7225 236.99C100.285 236.826 102.541 236.802 104.939 236.474C107.571 236.756 110.11 237.459 112.742 237.764C113.631 237.833 114.513 237.982 115.375 238.21C115.544 238.281 115.702 238.376 115.845 238.491C116.573 239.242 117.561 239.43 118.454 239.758C121.063 240.649 123.695 241.4 126.022 242.901C127.898 244.039 129.627 245.402 131.17 246.959C131.476 247.264 131.969 247.546 131.734 248.132C131.446 248.171 131.155 248.187 130.864 248.179C130.465 248.226 130.018 248.038 129.642 248.296H124.001C123.905 248.207 123.779 248.158 123.648 248.158C123.518 248.158 123.392 248.207 123.296 248.296H122.121C121.227 246.678 119.723 245.763 118.172 244.918C114.952 243.206 111.52 241.916 107.83 241.869C104.895 241.84 101.983 242.373 99.2504 243.441C98.7989 243.593 98.4106 243.89 98.1456 244.285Z" fill="#00803F"/>
<path d="M131.755 248.038C129 244.903 125.489 242.521 121.554 241.118C119.932 240.508 118.263 239.969 116.618 239.382C116.242 239.265 115.842 239.195 115.772 238.702C115.793 238.668 115.808 238.63 115.815 238.591C115.822 238.551 115.821 238.511 115.812 238.471C115.804 238.432 115.787 238.395 115.764 238.362C115.741 238.329 115.712 238.301 115.677 238.28C114.385 237.201 113.257 235.934 112.058 234.761C111.92 234.651 111.809 234.512 111.732 234.354C111.655 234.196 111.614 234.022 111.611 233.847C111.729 233.284 112.128 233.331 112.528 233.424C112.919 233.5 113.298 233.626 113.656 233.8C117.628 235.958 121.977 237.177 126.161 238.819C129.475 240.109 132.601 241.822 135.774 243.417C137.984 244.543 140.193 245.598 142.614 246.138C143.084 246.232 143.907 246.161 143.742 247.076C140.875 247.639 137.937 247.78 135.046 248.061C134.74 248.085 134.317 247.85 134.105 248.296H131.99C131.919 248.202 131.755 248.178 131.755 248.038Z" fill="#008542"/>
<path d="M9.58358 152.383C9.31743 151.539 9.16719 150.663 9.13699 149.779C9.25033 149.329 9.51601 148.931 9.88914 148.653C11.3229 147.316 13.0388 146.331 14.4021 144.924C15.7654 143.516 16.353 141.1 15.0837 139.036C14.4219 137.976 13.606 137.019 12.6627 136.198C10.9152 134.646 9.25178 133.001 7.67969 131.272V127.284C8.38483 126.112 9.01947 124.868 10.4063 124.352C10.5889 124.291 10.7783 124.252 10.9704 124.235C11.3464 124.118 11.417 124.446 11.5345 124.681C12.8538 127.074 14.4216 129.323 16.212 131.389C16.4767 131.674 16.6784 132.011 16.804 132.379C16.9295 132.747 16.9761 133.137 16.9406 133.524C16.8701 134.486 16.7996 135.494 17.1051 136.432C17.2932 138.802 17.6457 141.147 17.6693 143.516C17.6186 143.956 17.6505 144.402 17.7633 144.83C17.8295 145.13 17.861 145.437 17.8573 145.745C17.9043 146.542 17.5047 147.129 16.9406 147.668C15.1072 149.404 13.0623 150.858 11.2054 152.594C10.4533 153.274 10.0537 153.157 9.58358 152.383Z" fill="#008A45"/>
<path d="M217.716 209.594C216.424 211.236 214.872 212.667 213.297 214.051C212.522 213.746 212.874 213.183 213.062 212.737C213.698 211.308 214.453 209.935 215.319 208.632C218.304 204.058 221.524 199.625 224.627 195.121C231.349 185.41 236.896 175.09 240.916 163.948C243.713 156.184 245.476 148.209 246.768 140.093C247.474 135.753 245.805 132.211 242.843 129.162C241.527 127.825 240.187 126.535 238.871 125.174C238.542 124.846 238.025 124.564 238.236 123.931C238.73 123.837 239.2 123.908 239.67 123.884C240.916 124.564 241.809 125.667 242.773 126.652C244.864 128.834 246.815 131.132 248.179 133.877C248.273 134.252 248.061 134.674 248.32 135.026V138.075C248.038 138.122 248.108 138.38 248.038 138.544C247.85 139.107 248.085 139.717 247.873 140.28L247.803 141.828C247.638 142.251 247.826 142.696 247.638 143.095L247.568 144.174C247.379 144.573 247.615 145.018 247.403 145.394C247.121 147.505 246.933 149.616 246.416 151.68C245.546 154.307 244.864 156.981 243.995 159.608C241.815 166.378 239.087 172.96 235.839 179.288C232.947 185.012 229.516 190.43 226.014 195.778C223.616 199.484 221.078 203.097 218.892 206.943C218.395 207.777 218.001 208.667 217.716 209.594Z" fill="#008D46"/>
<path d="M7.67969 131.272C9.30152 132.328 10.5473 133.782 11.8871 135.142C12.7802 136.034 13.838 136.737 14.6136 137.793C16.9876 140.936 16.6115 143.915 13.4149 146.237C11.9106 147.34 10.4062 148.442 9.13699 149.779C8.52586 146.261 8.24381 142.695 7.93824 139.13C7.89123 138.778 8.12628 138.333 7.67969 138.075V135.025C7.89104 134.417 7.89104 133.756 7.67969 133.149V131.272Z" fill="#008542"/>
<path d="M98.1456 244.285C97.8401 243.511 98.525 243.418 98.9246 243.231C100.923 242.269 103.108 242.011 105.247 241.753C111.053 241.002 116.083 243.066 120.784 246.233C121.513 246.702 122.144 247.311 122.121 248.296L121.654 248.297C120.62 247.828 119.468 247.945 118.387 247.851C111.705 247.223 105.08 246.086 98.572 244.45C98.4272 244.406 98.2825 244.35 98.1456 244.285Z" fill="#007B3D"/>
<path d="M104.261 10.0727C105.972 9.65396 107.707 9.34062 109.456 9.13447C110.725 9.69743 111.9 10.5184 113.217 11.0344C116.249 12.1838 119.328 12.5826 122.525 11.8085C126.191 10.9172 129.764 9.81471 132.937 7.68018H133.172C133.689 7.98511 134.301 7.63326 134.841 7.89128C136.016 7.9382 137.192 7.9382 138.343 8.17276C138.39 8.6888 138.014 8.87645 137.662 9.01719C132.773 10.9641 127.954 13.1221 122.783 14.3887C118.74 15.3739 114.815 15.2097 110.937 13.6616C108.821 12.8171 106.706 11.9962 104.567 11.269C104.191 11.1283 103.791 10.9875 103.721 10.5419C103.65 10.0962 104.05 10.19 104.261 10.0727Z" fill="#008542"/>
<path d="M132.937 7.68018C132.89 8.36041 132.347 8.57152 131.877 8.80608C128.046 10.6826 124.074 12.3011 119.819 12.5122C116.035 12.7233 112.418 11.7147 109.456 9.13447C112.817 8.50115 116.246 8.26659 119.655 7.9382C120.007 7.91474 120.454 8.12585 120.712 7.68018H123.298C123.768 7.9382 124.262 7.75055 124.755 7.79746C125.249 7.84437 126.001 7.9382 126.589 7.68018H129.409C130.02 7.9382 130.631 7.72709 131.243 7.79746C131.854 7.86783 132.23 7.9382 132.7 7.68018H132.937Z" fill="#008240"/>
<path d="M248.083 133.853C247.764 133.69 247.508 133.426 247.355 133.102C245.968 130.334 243.806 128.153 241.667 125.948C241.056 125.315 240.35 124.775 239.857 124.025C240.515 123.767 241.173 123.884 241.831 123.978C242.959 123.931 244.088 123.884 245.192 124.212C246.861 124.705 247.707 126.018 248.319 127.52V133.149C248.083 133.337 248.319 133.665 248.083 133.853Z" fill="#008B45"/>
<path d="M131.319 7.89172C130.684 7.8212 129.997 8.15027 129.409 7.68018H131.295C131.322 7.69294 131.345 7.71281 131.362 7.73765C131.378 7.7625 131.388 7.79138 131.389 7.8212C131.373 7.86821 131.35 7.89172 131.319 7.89172Z" fill="#158C50"/>
<path d="M126.589 7.68018C126.001 8.1493 125.323 7.84437 124.689 7.89128C124.642 7.84437 124.618 7.79746 124.642 7.75054C124.665 7.70363 124.689 7.68018 124.712 7.68018H126.589Z" fill="#178B51"/>
<path d="M7.67969 133.149C7.85195 133.431 7.94306 133.756 7.94306 134.087C7.94306 134.418 7.85195 134.742 7.67969 135.025V133.149Z" fill="#2A9A62"/>
<path d="M248.083 133.853C248.107 133.595 248.036 133.313 248.319 133.149L248.32 135.026C247.897 134.698 248.154 134.252 248.083 133.853Z" fill="#2B9F64"/>
<path d="M134.841 7.89128C134.277 7.86783 133.689 8.12585 133.172 7.68018H134.82C134.816 7.75135 134.822 7.82265 134.841 7.89128Z" fill="#93CBAF"/>
<path d="M131.319 7.89172C131.299 7.82294 131.291 7.7515 131.295 7.68018H132.7C132.3 8.15027 131.789 7.8212 131.319 7.89172Z" fill="#40A170"/>
<path d="M124.712 7.68018C124.716 7.7515 124.708 7.82251 124.689 7.89128C124.242 7.82077 123.697 8.15027 123.298 7.68018H124.712Z" fill="#3F9F6E"/>
<path d="M129.642 248.296C129.971 247.897 130.417 248.108 130.817 248.061C130.846 248.076 130.869 248.1 130.882 248.13C130.895 248.16 130.897 248.194 130.888 248.225C130.872 248.272 130.848 248.296 130.817 248.296L129.642 248.296Z" fill="#008542"/>
<path d="M130.817 248.296V248.061L131.755 248.062L131.99 248.32L130.817 248.296Z" fill="#3EA06E"/>
<path d="M123.296 248.296C123.531 247.944 123.766 247.991 124.001 248.296H123.296Z" fill="#68B38D"/>
<path d="M207.987 218.765C203.592 222.635 198.774 225.942 193.814 229.039C192.216 230.047 190.641 231.103 188.878 231.83C187.515 231.173 186.128 231.431 184.765 231.713C180.839 232.58 177.149 234.082 173.412 235.489C166.995 237.858 160.555 240.18 153.738 241.189C149.202 241.869 144.736 241.729 140.458 239.969C135.287 237.835 129.904 236.31 124.663 234.34C121.748 233.261 118.927 231.971 116.883 229.531C115.848 228.288 114.885 226.974 115.402 225.192C116.107 224.746 116.389 225.403 116.718 225.731C118.434 227.373 120.079 229.085 121.772 230.751C122.054 231.009 122.265 231.337 122.735 231.548C122.783 230.813 122.759 230.074 122.665 229.344C122.524 228.382 122.336 227.42 122.759 226.482C123.346 226.294 123.628 226.763 123.934 227.068C126.214 229.25 129.105 230.164 131.996 231.15C132.443 231.29 132.584 230.868 132.936 230.892C133.289 230.915 133.124 231.689 133.265 232.088C133.406 232.487 133.43 232.041 133.289 232.041C133.312 231.642 133.594 231.572 133.924 231.548C136.488 232.332 138.994 233.296 141.422 234.434C141.915 234.645 142.456 234.809 142.808 235.255C143.161 235.7 142.714 235.982 142.432 236.24C141.798 236.951 141.115 237.617 140.387 238.234C140.528 238.374 140.622 238.163 140.74 238.187C145.841 237.413 150.941 236.545 155.924 235.208C168.123 231.947 179.617 227.092 190.241 220.289C195.98 216.62 201.376 212.444 206.366 207.811C214.303 200.473 221.009 191.912 226.227 182.454C232.644 170.867 236.405 158.458 238.074 145.369C238.52 141.828 238.943 138.239 238.849 134.65C238.826 133.266 238.638 133.055 237.204 132.984C235.77 132.914 234.783 133.125 233.584 132.867C232.385 132.609 231.915 131.319 231.093 130.568C230.518 129.991 229.914 129.443 229.283 128.926C226.157 126.417 223.783 126.182 220.351 128.223C216.761 130.432 213.032 132.406 209.186 134.134C208.716 134.345 208.222 134.509 207.964 135.002C207.705 135.494 206.953 135.4 206.436 135.494C199.385 136.878 192.498 138.802 185.893 141.593C177.549 145.135 169.957 149.85 163.234 155.948C159 159.83 155.216 164.173 151.952 168.896C151.646 169.318 151.388 169.764 150.824 169.858C150.259 169.952 149.93 170.093 149.531 170.304C147.591 171.409 145.59 172.403 143.537 173.283C139.847 174.854 137.59 177.552 136.509 181.375C135.522 184.823 135.005 188.389 134.276 191.907C133.547 195.425 132.654 198.404 130.633 201.196C129.882 202.244 129.032 203.218 128.094 204.104C124.921 207.154 123.511 211.001 122.641 215.152C122.453 216.067 122.524 217.099 121.772 217.85C121.442 217.686 121.395 217.381 121.348 217.076C120.643 212.08 119.68 207.13 118.504 202.228C118.434 201.968 118.41 201.698 118.434 201.43C119.092 200.727 119.774 200.023 120.667 199.671C122.571 198.874 124.451 198.076 126.096 196.809C126.245 196.678 126.439 196.611 126.637 196.622L127.93 201.172C128.4 200.797 128.329 200.281 128.447 199.835C131.432 187.896 135.874 176.543 142.55 166.152C142.761 165.823 143.02 165.519 143.255 165.214C145.088 165.425 146.71 164.698 148.238 163.853C150.353 162.68 152.093 161.085 153.621 159.232C156.018 156.347 158.016 153.157 160.437 150.295C161.26 149.334 162.27 148.489 163.046 147.481C163.822 146.472 164.785 144.689 164.574 142.953C167.913 140.442 171.478 138.243 175.222 136.386C177.549 138.497 180.228 138.192 182.955 137.488C185.681 136.784 187.491 135.752 189.677 134.72C193.297 132.984 197.081 131.765 200.959 130.756C204.838 129.747 208.575 128.199 211.795 125.643C212.054 125.455 212.359 125.385 212.594 125.173C214.874 124.681 217.178 124.564 219.458 124.352C224.699 123.93 229.918 123.649 235.159 123.813C238.168 126.135 241.012 128.668 243.292 131.718C245.572 134.767 245.807 137.957 245.313 141.523C244.208 149.287 242.61 156.91 240.001 164.322C236.952 172.91 232.938 181.125 228.037 188.811C223.336 196.176 217.93 203.025 212.594 209.922C211.09 211.868 209.609 213.839 208.528 216.067C208.128 216.912 207.729 217.779 207.987 218.765Z" fill="#009048"/>
<path d="M45.519 59.2844C45.1664 59.1202 44.7904 58.9795 44.4613 58.7919C42.4634 57.7363 42.4634 57.7363 41.0531 59.5659C39.6428 61.3955 38.5616 62.8264 37.2923 64.4683C36.8222 63.9523 36.9867 63.3659 37.1043 62.8029C38.1855 57.0561 39.7603 51.4734 43.3096 46.6414C44.226 45.3283 45.0281 43.9393 45.7071 42.4896C46.1772 41.5514 46.4827 40.6131 46.4122 39.5576C49.9379 36.1095 53.8162 33.0836 57.8121 30.2219C63.1477 26.3985 68.7183 22.9504 74.6651 20.1591C77.4622 20.3702 80.0712 19.4554 82.7273 18.8221C86.347 17.9542 89.9433 16.9925 93.61 16.4061C97.7996 15.7134 102.096 16.068 106.115 17.4381L110.016 18.7282C112.085 19.4085 114.177 19.7838 116.363 19.385C117.015 19.2365 117.693 19.2527 118.337 19.4319C119.042 20.1356 118.196 20.2295 117.867 20.4171C116.308 21.3059 114.822 22.3177 113.425 23.443C109.405 26.5627 106.209 30.4096 103.294 34.5379C102.307 35.9453 101.343 37.3527 100.45 38.8304C100.29 39.1884 100.018 39.4848 99.6743 39.6749C99.2876 39.7244 98.9218 39.8785 98.6165 40.1205C94.9968 43.0291 91.0715 45.492 87.2872 48.1661C86.159 48.9636 85.1012 49.7846 84.2316 50.8636C83.9495 51.2154 83.6674 51.7784 83.0328 51.4734C82.9845 51.3658 82.9615 51.2485 82.9656 51.1306C82.9697 51.0127 83.0007 50.8973 83.0563 50.7932C84.0905 48.213 85.1012 45.6328 86.394 43.1699C86.5212 42.8857 86.7245 42.6422 86.9816 42.4662C89.7317 41.7156 91.9412 40.0267 94.1506 38.3613C97.4638 35.9237 100.213 32.8039 102.213 29.2133C103.6 26.7269 103.153 25.1084 100.732 23.6072C100.332 23.3492 99.8858 23.1615 99.7213 22.6689C100.097 21.7307 100.356 21.4727 101.273 20.9566C100.121 21.2381 98.9691 21.4726 97.8174 21.8245C97.2298 21.9887 96.6421 22.2467 96.0075 22.1294C95.3729 22.0122 94.5502 21.7541 93.8215 21.848C88.4859 22.5516 83.5029 24.2171 79.1075 27.3837C78.2378 28.017 77.3681 28.6972 76.9215 29.7528C76.0049 30.9491 74.5476 31.3478 73.3253 32.075C66.4149 36.086 59.951 40.6835 54.0513 46.0785C52.829 47.1809 51.6538 48.3068 50.4785 49.4562C50.0832 49.7813 49.7895 50.2128 49.6324 50.6994C49.4816 51.142 49.2416 51.5491 48.9272 51.8956C47.0703 54.0302 45.7776 56.4227 45.519 59.2844Z" fill="#009047"/>
<path d="M104.964 155.197C106.915 156.956 108.419 159.091 109.994 161.155C113.024 165.215 115.705 169.523 118.009 174.032C118.15 174.314 118.385 174.549 118.338 174.9C118.288 175.091 118.182 175.263 118.033 175.393C116.058 176.894 115.706 179.099 115.659 181.351C115.612 183.603 115.518 185.855 115.753 188.106C115.788 188.338 115.766 188.574 115.688 188.795C115.61 189.016 115.479 189.214 115.306 189.373C114.484 189.701 114.507 188.927 114.343 188.552C113.426 186.394 112.556 184.213 111.593 182.078C108.395 175.111 104.276 168.602 99.3465 162.726C95.0997 157.708 90.1892 153.289 84.75 149.591C80.7639 146.83 76.5307 144.443 72.1043 142.46C71.5402 142.226 70.9056 142.061 70.553 141.475C70.2709 139.716 69.2602 138.332 68.3435 136.901C67.0038 134.837 65.476 132.937 64.0422 130.966C63.7131 130.544 63.1725 130.099 63.6191 129.442C71.8693 131.858 79.6729 135.236 86.9124 139.927C87.218 142.343 88.3932 144.337 89.8975 146.166C92.248 149.004 95.0686 151.256 98.1242 153.25C99.8636 154.399 101.767 154.986 103.812 155.291C104.198 155.353 104.593 155.321 104.964 155.197Z" fill="#009148"/>
<path d="M99.277 103.804C99.465 103.452 99.8176 103.147 99.6296 102.654C99.5481 102.433 99.5292 102.193 99.5748 101.961C99.6204 101.73 99.7288 101.515 99.8881 101.341C100.241 100.918 100.1 100.707 99.5826 100.707C98.2193 100.66 97.2086 100.191 97.2086 98.6196C97.2062 98.5397 97.1724 98.4639 97.1146 98.4085C95.6102 97.3999 95.9158 95.758 95.6573 94.3037C95.6103 94.0456 95.5867 93.6703 95.3987 93.5531C93.9649 92.6852 94.435 91.3012 94.388 90.0346C94.341 88.7679 94.482 88.1815 94.1764 87.2667C93.8709 86.3519 94.9521 85.0853 95.5397 84.8507C96.1274 84.6161 96.0803 84.9445 96.2214 85.1557C96.6758 85.7499 97.0989 86.3598 97.4906 86.9853C98.7364 88.9791 101.698 89.1432 103.038 87.2433C103.6 86.4436 104.436 85.8765 105.388 85.6482C106.117 85.4371 106.822 85.6482 106.963 86.2112C107.104 86.7742 108.068 87.6655 106.963 88.3457C106.423 88.6976 106.611 89.0729 107.034 89.2136C108.867 89.8704 109.525 91.2543 109.784 93.0605C109.948 94.116 111.076 94.5851 112.581 94.7024C113.098 94.7493 113.591 94.679 113.921 95.1715C115.284 97.095 117.282 97.8221 119.538 97.9863C120.032 98.3147 120.196 98.8542 120.478 99.3233C121.842 101.575 123.558 103.546 125.414 105.399C129.273 109.166 132.659 113.388 135.498 117.971C137.472 121.185 139.682 124.187 142.761 126.486C146.592 129.348 150.612 129.348 154.796 127.471C155.665 128.198 156.535 128.878 157.687 129.16C159.52 129.606 160.037 130.169 160.155 132.045C160.202 132.843 160.319 133.288 161.189 133.312C162.059 133.335 161.894 133.71 161.871 134.203C161.832 134.632 161.816 135.063 161.824 135.493C161.654 135.739 161.407 135.921 161.121 136.01C160.836 136.099 160.529 136.091 160.249 135.986C159.449 135.728 158.697 135.868 157.945 136.056C156.018 136.572 154.067 137.112 152.069 137.182C147.086 137.37 143.466 134.813 140.293 131.341C136.65 127.354 133.923 122.756 131.197 118.135C129.128 114.617 126.378 111.732 123.346 109.011C120.314 106.29 116.506 103.076 112.933 100.262C112.594 99.9927 112.241 99.7421 111.876 99.511C109.549 98.0801 108.42 98.1271 106.211 99.769C104.425 101.083 102.732 102.56 100.758 103.616C100.288 103.874 99.8411 104.296 99.277 103.804Z" fill="#009047"/>
<path d="M236.786 107.113C235.916 103.524 235.164 99.9119 234.106 96.3699C230.063 82.859 223.623 70.6148 214.95 59.5199C215.396 58.8631 216.101 58.9334 216.736 58.9334C219.933 58.9334 223.059 58.2532 226.255 58.5112C229.687 63.0852 232.531 67.9876 235.164 73.0542C239.302 81.0914 242.504 89.5755 244.707 98.3403C244.742 98.5263 244.765 98.7143 244.777 98.9032C244.378 99.9119 243.673 100.709 242.967 101.46C241.322 103.266 239.418 104.838 237.867 106.761C237.608 107.066 237.303 107.441 236.786 107.113Z" fill="#009048"/>
<path d="M122.831 79.4565L120.246 79.4096C117.543 76.8763 114.205 75.68 110.585 75.4689C107.435 75.3047 104.309 75.8442 101.254 76.6887C100.431 76.8998 99.6319 77.2282 98.7387 77.1343C96.7878 76.9701 94.8839 76.5479 92.98 76.1257C90.9821 74.5541 89.5483 72.49 88.232 70.3789C85.3174 65.6876 84.5182 60.4803 84.7298 55.0853C84.8238 52.6927 86.0695 50.7458 87.7854 49.1977C90.559 46.6879 93.7086 44.7175 96.7173 42.5361C97.0698 42.2781 97.4694 42.067 97.916 42.3015C98.3626 42.5361 98.104 42.583 98.057 42.7237C97.4929 44.1546 97.0228 45.6089 95.8946 46.7348C94.2257 47.2274 93.074 48.4706 91.8047 49.5496C89.0076 51.9421 87.7384 54.968 88.091 58.6741C88.2555 60.3864 88.138 62.0988 89.0546 63.6469C88.9841 64.5148 88.9136 65.3592 90.0889 65.5468C90.2299 65.5703 90.2534 65.7814 90.2769 65.9456C91.5462 70.4258 95.683 73.2171 99.9374 72.4431C103.816 71.7159 107.694 70.9184 111.643 70.59C114.44 70.3554 117.261 70.1678 120.058 70.5665C121.331 70.7468 122.626 70.7151 123.889 70.4727C124.03 70.4023 123.818 70.1912 123.889 70.332C123.959 70.4727 123.889 70.4258 123.818 70.4258C123.372 70.4492 122.667 70.9653 122.737 69.9098C123.442 69.5814 124.194 69.6752 124.923 69.6986C127.133 69.7925 129.366 69.4406 131.551 69.9801C132.868 70.5431 134.067 69.9567 135.265 69.6283C135.422 69.583 135.586 69.5701 135.747 69.5903C135.909 69.6104 136.065 69.6633 136.205 69.7456C136.582 70.2616 136.158 70.59 135.9 70.9653C134.772 72.5134 133.244 73.7097 132.069 75.2109C131.316 76.1961 130.47 77.1343 129.93 78.2602C129.389 79.3862 128.684 79.5738 127.697 79.5503C126.239 79.5503 124.806 79.6207 123.372 79.3862C123.184 79.3392 122.996 79.2923 122.831 79.4565Z" fill="#008A44"/>
<path d="M209.56 59.7528C204.459 62.5441 199.147 64.8663 193.764 67.0243C191.39 67.9626 189.016 69.0181 186.525 69.628C182.083 68.2441 177.64 68.5959 173.221 69.6984C168.802 70.8008 164.407 70.9885 159.964 69.9798C158.789 69.6984 157.637 69.3231 156.486 68.9712C155.904 68.8408 155.387 68.5082 155.028 68.033C155.028 67.2354 155.71 67.4231 156.133 67.3293C158.93 66.8132 161.751 66.3441 164.548 65.6873C165.418 65.4762 166.334 65.4058 167.063 64.796C167.364 64.5508 167.733 64.4035 168.121 64.3737C170.636 64.2095 172.892 63.3182 174.984 61.9577C175.338 61.7076 175.751 61.554 176.183 61.5121C176.864 62.333 177.64 62.1923 178.557 61.8874C183.234 60.3862 187.888 58.7442 192.425 56.8442C192.989 56.6097 193.529 56.2109 194.211 56.4689C195.198 57.1492 196.374 57.3134 197.525 57.501C201.098 58.0874 204.647 58.838 208.267 58.9553C208.831 58.9788 209.372 59.096 209.56 59.7528Z" fill="#009048"/>
<path d="M118.597 19.6424C117.505 19.6433 116.414 19.7138 115.33 19.8535C113.497 20.088 111.71 19.6424 109.948 19.0794C107.386 18.2584 104.87 17.2967 102.214 16.7807C98.9707 16.1239 95.7741 16.4054 92.5774 16.9214C87.7119 17.7424 82.9874 19.2436 78.1454 20.2053C77.0172 20.4399 75.7933 21.0973 74.6651 20.1591C78.943 17.8838 83.434 16.1004 87.994 14.4819C90.4855 13.614 92.977 12.7227 95.586 12.1598C100.522 12.1128 105.294 12.9104 109.877 14.8103C114.954 16.8745 120.008 16.2177 125.038 14.5523C128.657 13.3795 132.207 12.0659 135.826 10.8931C137.753 10.2325 139.736 9.7458 141.75 9.4388C145.375 8.9538 149.063 9.54955 152.35 11.1511C157.004 13.356 161.141 16.4054 165.255 19.4782C167.699 21.3078 170.026 23.2546 172.376 25.225C172.894 25.6472 173.599 25.999 173.434 26.8904C173.351 26.9774 173.243 27.0357 173.124 27.0568C173.006 27.0779 172.884 27.0607 172.776 27.0077C170.12 25.9052 167.37 24.9904 164.784 23.7003C164.291 23.0201 163.633 22.5275 162.975 22.0349C159.449 19.4782 155.923 16.9214 151.81 15.256C147.696 13.5906 142.76 13.1684 138.106 14.0128C134.185 14.7232 130.354 15.8639 126.683 17.414C125.743 17.7893 124.638 17.4374 123.721 18.0239C122.288 18.6103 120.76 18.9621 119.373 19.6893C119.257 19.7683 119.118 19.8066 118.977 19.7981C118.837 19.7896 118.703 19.7348 118.597 19.6424Z" fill="#008B45"/>
<path d="M46.4122 39.5576C47.1174 40.0736 46.723 40.7069 46.5584 41.2464C45.9473 43.1699 44.9131 44.9056 43.7613 46.5007C40.5647 50.9105 38.8018 55.8598 37.7676 61.1375C37.5326 62.24 37.1983 63.319 37.2923 64.4683L31.6798 73.3583C30.058 74.6484 28.3186 75.7743 26.7438 77.1113C23.7352 79.715 21.5257 82.9051 19.7159 86.4001C17.4124 90.7864 16.1666 95.5481 14.8503 100.286C13.2285 106.08 11.9357 111.944 10.7605 117.832C10.596 118.676 10.3609 119.356 9.3267 119.286C9.13376 119.311 8.94441 119.358 8.76258 119.427C8.03393 119.755 7.9164 119.474 7.98692 118.77C8.36366 114.183 8.97559 109.619 9.8203 105.095C10.8462 99.6939 12.2522 94.3717 14.0277 89.168C14.0889 89.0303 14.1596 88.8971 14.2392 88.7692C15.2734 87.4791 15.7435 85.884 16.4957 84.4532C19.1027 79.4393 22.8646 75.1143 27.4725 71.8336C31.3978 69.0423 33.5602 65.172 34.4064 60.4573C34.9705 57.2672 35.6287 54.1006 35.6757 50.8401C38.9366 46.7885 42.5243 43.0147 46.4122 39.5576Z" fill="#008A45"/>
<path d="M9.3267 119.286C10.0789 119.122 10.3542 118.581 10.4717 117.901C11.4119 112.506 12.6577 107.181 14.068 101.904C15.4783 96.626 16.8885 91.2075 19.4271 86.2348C20.9314 83.3027 22.7178 80.5583 25.0447 78.2596C26.9956 76.3362 29.0473 74.4138 31.6798 73.3583C29.2353 77.9558 26.8781 82.6225 24.9742 87.478C21.0988 97.311 18.6759 107.654 17.7817 118.182C17.7347 118.675 17.7817 119.074 17.0531 119.097C14.4911 119.121 11.9122 119.216 9.3267 119.286Z" fill="#009148"/>
<path d="M150.775 101.717C151.151 103.148 149.953 104.297 150.023 105.681C150.023 105.775 149.694 105.869 149.553 105.986C148.777 106.573 148.754 107.605 149.553 108.144C149.882 108.379 150.188 108.613 150.023 108.989C149.342 110.513 149.812 111.944 150.352 113.375C150.517 113.703 150.376 113.961 150.141 114.219C149.13 115.205 146.991 116.237 145.322 115.533C144.264 115.119 143.274 114.55 142.384 113.844C138.905 110.959 136.132 107.534 134.275 103.382C134.234 103.317 134.202 103.246 134.181 103.171C132.794 99.5825 134.251 96.8616 138.083 96.369C143.277 95.7122 147.649 97.3542 150.775 101.717Z" fill="#007B3D"/>
<path d="M116.973 131.507C115.986 129.021 114.059 127.121 112.836 124.775C112.578 124.282 112.178 124.071 111.685 124.423C110.627 125.174 110.11 124.4 109.663 123.673C109.217 122.945 109.193 122.687 108.558 122.617C107.947 123.25 107.595 122.828 107.313 122.289C106.513 120.67 106.537 119.052 107.477 117.48C109.452 114.22 113.871 113.188 117.279 115.158C120.687 117.128 122.896 120.389 124.448 124.024C125.277 125.971 125.831 128.024 126.093 130.123C126.375 132.445 125.294 133.712 122.967 133.688C122.338 133.696 121.712 133.609 121.11 133.43C119.674 132.919 118.289 132.275 116.973 131.507Z" fill="#007A3D"/>
<path d="M173.341 26.9843C173.035 25.6004 171.743 25.1078 170.826 24.3337C166.313 20.5807 161.659 16.9684 156.652 13.8722C154.067 12.2537 151.387 10.7994 148.402 10.0253C144.876 9.11051 141.374 9.6031 137.943 10.5883C133.618 11.808 129.434 13.4969 125.179 14.8573C121.771 15.9363 118.316 16.6635 114.72 16.3586C112.722 16.1709 110.841 15.5141 108.985 14.8339C105.388 13.4734 101.722 12.5117 97.8197 12.6055C97.0526 12.612 96.2917 12.4602 95.586 12.1598C98.4248 11.2629 101.325 10.566 104.261 10.0727C103.885 10.3542 103.696 10.6586 104.307 10.8697C108.279 12.1129 111.993 14.1536 116.177 14.6697C118.692 14.9981 121.16 14.482 123.581 13.8722C128.423 12.6055 132.96 10.5179 137.613 8.73521C137.919 8.61793 138.202 8.50115 138.343 8.17276C140.6 8.26659 142.808 8.73521 145.041 8.99323C147.838 9.29817 150.565 9.93148 153.338 10.4241C154.466 10.6352 155.642 10.6821 156.699 11.1981C157.099 12.0191 157.945 12.3475 158.627 12.8166C164.127 16.6166 169.345 20.7684 174.728 24.7091C176.091 25.6942 177.501 26.609 178.912 27.5004L179.946 28.0399C182.437 29.1658 183.73 28.6966 184.999 26.2806C185.563 25.1782 186.01 24.0054 186.762 22.9967C188.29 23.63 189.559 24.709 190.993 25.5535C191.228 25.8819 191.064 26.2103 190.899 26.5152C189.888 28.5324 189.747 30.6904 189.653 32.8719C189.63 33.7867 189.7 34.7484 188.878 35.4286C188.313 35.6163 187.89 35.2879 187.467 35.0064C183.166 32.3089 178.794 29.7756 174.14 27.7115C173.811 27.5707 173.388 27.4535 173.341 26.9843Z" fill="#008743"/>
<path d="M188.642 35.3592C189.348 34.7024 189.324 33.8345 189.324 33.0135C189.31 31.0814 189.595 29.1587 190.17 27.3136C190.382 26.6803 190.923 26.2337 190.993 25.5535C193.061 26.5152 194.895 27.9235 196.775 29.2136C201.169 32.253 205.347 35.5918 209.28 39.206C209.538 39.4406 209.938 39.6048 210.008 40.0505C209.162 42.0912 207.446 43.2405 205.589 44.1788C204.391 44.7887 203.051 45.0232 201.829 45.5393C200.442 45.0701 199.572 43.9208 198.491 43.0529C195.623 40.7072 192.654 38.4867 189.583 36.3913C189.207 36.1332 188.619 36.016 188.642 35.3592Z" fill="#008A45"/>
<path d="M179.294 71.9733L180.986 79.5497C181.057 79.8781 181.08 80.2299 181.127 80.5818C181.221 80.7575 181.257 80.9579 181.232 81.1554C181.207 81.3529 181.121 81.5376 180.986 81.6842C179.012 84.241 176.403 85.6014 173.135 85.6014C172.86 85.5931 172.596 85.4941 172.383 85.32C171.655 82.083 170.902 78.8694 170.197 75.6325C170.033 74.8349 169.774 74.6707 168.951 74.8819C163.428 76.2189 157.857 77.204 152.239 78.0016C151.863 78.0485 151.464 78.025 151.064 78.0485C149.795 77.509 149.16 75.8201 149.748 74.3189C150.336 72.8177 151.628 71.7856 153.391 71.6214C154.675 71.538 155.965 71.6327 157.223 71.9029C161.991 72.8537 166.906 72.8057 171.655 71.7622C173.445 71.3612 175.273 71.1567 177.108 71.1523C177.907 71.1757 178.8 71.1288 179.294 71.9733Z" fill="#008B45"/>
<path d="M155.505 142.461C154.855 142.63 154.167 142.572 153.554 142.296C152.003 141.569 150.405 142.461 148.783 142.132C146.898 141.738 144.973 141.564 143.048 141.616C139.005 136.808 135.644 131.53 132.588 126.064C130.519 122.358 128.686 118.488 125.865 115.251C122.739 111.662 119.096 108.754 114.748 106.783C112.703 105.868 110.587 105.845 108.472 106.549C105.346 107.581 102.431 109.105 99.399 110.372C99.1404 110.466 98.9054 110.63 98.6233 110.63C98.1062 110.184 97.8712 109.551 97.1895 109.129C96.5079 108.707 96.978 107.745 97.4716 107.112C98.4118 106.431 99.54 106.22 100.551 105.728C102.502 104.719 104.5 103.804 106.427 102.772C108.965 101.412 111.433 101.459 113.949 102.702C116.464 103.945 119.049 105.939 121.376 107.839C125.16 110.912 128.592 114.313 131.06 118.582C132.658 121.303 134.163 124.094 135.949 126.721C138.3 130.169 140.65 133.617 143.917 136.338C147.184 139.059 150.522 140.115 154.471 140.349C155.27 140.396 156.14 140.279 156.657 141.147C156.768 141.505 156.735 141.893 156.563 142.226C156.257 142.554 155.834 142.296 155.505 142.461Z" fill="#008A44"/>
<path d="M70.8802 106.103C70.8879 104.529 71.0374 102.959 71.3268 101.412C71.7734 101.952 72.2905 101.928 72.9016 101.717C75.1346 100.873 76.8504 99.4887 77.6731 97.1899C78.7543 94.1406 79.9766 91.1616 81.2693 88.1827C82.2566 85.9074 82.1155 83.4914 81.4809 81.1692C80.0941 76.0557 78.6838 70.9187 76.4979 66.0867C75.9387 64.7906 75.2455 63.5564 74.4294 62.404C74.1474 62.0287 73.8183 61.6769 74.1239 61.1608C75.9572 61.2312 77.6261 61.8411 79.2479 62.6621C80.2351 63.9287 80.3762 65.5472 80.9403 66.9781C82.2565 70.3323 83.3143 73.7804 84.6305 77.1112C84.7716 77.51 84.9596 77.9322 84.7951 78.3779C84.1605 81.6618 83.4788 84.9457 82.8677 88.2296C81.6454 95.0319 80.8698 101.881 80.2586 108.777C80.0471 109.223 80.3056 109.739 80.0941 110.208C79.624 110.396 79.2714 110.114 78.9189 109.88C76.9915 108.613 74.876 108.168 72.596 108.168C71.9614 108.168 71.2563 108.332 70.6922 107.839V107.605C70.9037 107.089 70.6686 106.573 70.8802 106.103Z" fill="#008B45"/>
<path d="M156.444 141.147C155.292 140.233 153.882 140.631 152.613 140.467C147.582 139.834 143.798 137.23 140.602 133.477C138.301 130.746 136.211 127.845 134.349 124.798C132.586 121.983 131.106 119.028 129.202 116.307C127.298 113.586 125.041 111.475 122.644 109.34C120.4 107.363 118.02 105.545 115.522 103.899C114.095 102.936 112.474 102.296 110.774 102.022C109.481 101.811 108.235 102.233 107.06 102.796C104.38 104.086 101.795 105.564 99.0449 106.666C98.5278 106.878 98.0357 107.112 97.4716 107.112C97.4011 105.657 98.4778 104.812 99.277 103.804C100.311 103.897 101.019 103.148 101.771 102.655C103.205 101.717 104.569 100.685 105.908 99.606C108.752 97.3308 110.398 97.9875 112.725 99.7468C116.391 102.538 119.87 105.517 123.302 108.59C126.264 111.24 128.99 114.032 131.106 117.386C132.727 119.99 134.255 122.687 135.924 125.244C137.741 128.012 139.853 130.576 142.223 132.891C143.711 134.346 145.489 135.473 147.441 136.198C150.144 137.23 152.871 136.996 155.598 136.362C156.467 136.151 157.337 135.964 158.207 135.706C159.076 135.447 159.593 135.354 160.252 135.729C160.91 136.104 161.283 135.54 161.824 135.493C161.824 137.604 161.826 139.717 161.873 141.828C161.873 142.391 161.709 142.555 161.145 142.531C159.264 142.484 157.386 142.484 155.505 142.461C155.764 142.203 156.091 142.32 156.397 142.297C156.702 142.273 156.608 141.546 156.444 141.147Z" fill="#008D46"/>
<path d="M98.6233 110.63C98.7409 110.325 99.0381 110.185 99.3201 110.068L107.265 106.62C111.002 105.001 114.363 105.893 117.677 107.933C123.113 111.284 127.545 116.032 130.511 121.679C133.849 128.035 137.492 134.204 141.934 139.857C142.381 140.397 143.001 140.819 143.048 141.616C142.789 141.522 142.499 141.359 142.264 141.406C140.148 141.734 139.702 140.162 139.161 138.708C138.879 137.981 138.714 137.207 138.103 136.691C137.492 136.175 136.364 135.682 135.306 136.222C134.915 136.379 134.515 136.512 134.107 136.62C133.614 134.814 132.744 133.125 131.945 131.437C130.3 127.918 128.748 124.306 126.727 120.975C124.705 117.644 121.838 114.126 118.101 111.874C114.833 109.88 111.472 109.552 107.899 110.912C106.405 111.504 104.965 112.226 103.598 113.07C103.151 113.352 102.893 113.774 102.611 114.196C101.012 113.962 100.143 112.601 98.897 111.851C98.474 111.592 98.7644 111.052 98.6233 110.63Z" fill="#008442"/>
<path d="M207.987 218.765C207.4 218.694 207.494 218.391 207.588 217.945C208.081 215.435 209.609 213.488 211.066 211.518C216.167 204.598 221.691 197.984 226.415 190.806C229.672 185.895 232.578 180.761 235.112 175.442C239.093 167.065 242.007 158.224 243.785 149.124C244.42 145.934 244.89 142.697 245.219 139.46C245.548 136.223 244.608 133.76 242.704 131.414C240.678 128.94 238.376 126.704 235.84 124.753C235.535 124.518 235.394 124.118 235.159 123.813L237.509 123.814C237.721 123.979 238.026 123.791 238.214 124.002C239.86 125.667 241.529 127.309 243.127 129.045C244.725 130.781 245.713 132.118 246.488 134.041C247.475 136.504 247.287 139.014 246.864 141.524C246.092 146.35 245.072 151.134 243.809 155.856C242.386 160.987 240.603 166.011 238.473 170.891C236.851 174.621 235.206 178.304 233.208 181.846C229.964 187.639 226.368 193.175 222.584 198.617C219.387 203.168 215.979 207.577 213.464 212.574C213.252 213.043 212.757 213.511 213.297 214.051L207.987 218.765Z" fill="#008D46"/>
<path d="M150.775 101.717C150.399 101.717 150.257 101.459 150.045 101.201C147.765 98.2922 144.663 96.9786 141.066 96.5564C139.256 96.3453 137.517 96.533 135.895 97.4243C134.273 98.3157 133.662 99.8403 134.062 101.67C134.697 104.579 136.459 106.877 138.199 109.176C139.541 111.001 141.159 112.607 142.994 113.938C145.791 115.955 147.577 116.025 150.022 113.961C150.2 113.813 150.319 113.604 150.352 113.375C150.611 113.609 150.609 113.914 150.609 114.219C150.539 116.354 151.126 116.917 153.148 116.776C153.735 117.198 153.289 117.526 153.007 117.808C150.821 120.13 146.66 120.623 143.91 118.934C141.985 117.715 140.29 116.166 138.904 114.36C136.083 110.771 133.239 107.182 130.936 103.218C129.831 101.342 129.102 99.3477 129.572 97.0959C129.671 96.5734 129.876 96.0767 130.175 95.6368C130.475 95.1969 130.861 94.8233 131.312 94.5392C131.962 94.1036 132.675 93.7712 133.427 93.554C136.6 92.6715 139.943 92.5829 143.158 93.296C143.548 93.3353 143.916 93.4906 144.216 93.7416C144.992 94.8206 146.355 94.891 147.342 95.6182C147.789 95.97 148.282 96.3688 148.917 96.2749C150.092 96.0873 150.398 96.6737 150.586 97.7527C150.824 99.0599 150.889 100.393 150.775 101.717Z" fill="#007F3F"/>
<path d="M179.283 71.9746C176.886 70.9425 174.418 71.5289 172.091 72.0684C168.354 72.8894 164.593 73.0067 160.832 72.8425C158.388 72.7486 156.061 71.8338 153.569 71.9277C151.078 72.0215 149.714 73.7104 149.855 75.7276C149.926 76.6659 150.443 77.393 151.054 78.0498C148.97 78.4616 146.855 78.697 144.731 78.7535C143.368 78.9411 143.039 78.6597 142.992 77.3696C142.979 76.538 143.147 75.7135 143.486 74.9535C144.402 72.6685 145.706 70.558 147.34 68.7141C149.62 68.0808 151.994 68.0104 154.321 67.682C154.438 67.6724 154.555 67.6884 154.665 67.729C154.774 67.7695 154.874 67.8336 154.956 67.9166C158.905 69.7697 163.089 70.4499 167.413 70.2857C169.929 70.1919 172.326 69.5351 174.747 68.9956C178.212 68.2413 181.796 68.2014 185.277 68.8783C185.794 68.9721 186.266 69.0885 186.525 69.628C184.151 70.5428 181.775 71.4116 179.283 71.9746Z" fill="#008D46"/>
<path d="M201.779 45.4689C202.531 44.5072 203.753 44.6714 204.74 44.2492C206.762 43.4047 208.431 42.185 209.653 40.332C209.724 40.2147 209.891 40.1443 210.008 40.0505C210.126 39.9566 210.64 40.4727 210.922 40.7307C214.824 44.4603 218.561 48.3775 221.852 52.67C221.763 52.8247 221.637 52.9549 221.485 53.049C221.333 53.1432 221.161 53.1983 220.982 53.2095C217.175 53.749 213.39 54.6873 209.512 54.4527C207.793 54.3505 206.09 54.0594 204.435 53.5848C203.896 53.4736 203.399 53.2135 203.001 52.8342C202.625 52.2244 203.119 52.0133 203.518 51.7787C203.918 51.5441 204.834 51.0985 205.493 50.7935C206.151 50.4886 206.268 50.1368 205.704 49.6207C204.552 48.5652 203.542 47.3689 202.343 46.3837C202.061 46.1492 201.685 45.938 201.779 45.4689Z" fill="#008542"/>
<path d="M202.941 52.4112C204.234 53.5605 205.879 53.584 207.43 53.8655C211.52 54.6161 215.539 53.7013 219.582 53.0914L221.862 52.6692C223.555 54.4519 224.704 56.6347 226.255 58.5112C226.208 58.9804 225.929 59.0728 225.505 59.0024C223.366 58.5099 221.251 59.0259 219.136 59.237C217.749 59.3778 216.313 59.0507 214.95 59.5199C213.539 57.7372 213.541 57.7592 211.426 58.8617L209.56 59.7528C209.16 59.5183 208.817 59.2605 208.3 59.2605C204.939 59.2839 201.671 58.4629 198.381 58.0173C197.229 57.8531 196.101 57.5247 194.973 57.2667C194.549 57.1728 194.079 57.1025 194.056 56.5161C194.032 55.9296 194.385 56.0235 194.667 55.9062C197.135 54.7568 199.627 53.7013 202.071 52.505C202.33 52.3643 202.635 52.2235 202.941 52.4112Z" fill="#008944"/>
<path d="M212.594 125.173C211.772 126.346 210.557 127.05 209.335 127.73C206.115 129.56 202.659 130.709 199.087 131.6C194.809 132.679 190.789 134.486 186.794 136.385C184.396 137.535 181.905 138.379 179.178 138.309C178.004 138.265 176.862 137.918 175.864 137.3C175.682 137.224 175.525 137.098 175.412 136.936C175.3 136.773 175.229 136.583 175.222 136.386C180.252 133.641 185.595 131.577 191.025 129.818C197.77 127.636 204.681 126.229 211.685 125.173C211.991 125.15 212.289 125.173 212.594 125.173Z" fill="#008A44"/>
<path d="M102.611 114.196C102.376 113.727 102.471 113.469 102.942 113.164C105.668 111.358 108.583 109.904 111.873 109.739C115.164 109.575 117.374 110.889 119.724 112.578C123.344 115.158 125.859 118.629 127.904 122.453C130.207 126.722 132.135 131.132 134.132 135.541C134.321 135.917 134.366 136.269 134.107 136.62C133.246 137.229 132.335 137.763 131.382 138.215C130.395 138.661 129.596 138.872 128.656 138.356C128.238 138.13 127.768 138.017 127.293 138.028C127.293 138.004 127.293 137.934 127.316 137.91C129.385 136.855 129.008 134.978 128.75 133.243C128.233 130.076 126.987 127.121 125.647 124.212C124.307 121.303 122.498 118.254 119.912 116.026C117.891 114.313 115.728 112.953 112.884 113.023C110.04 113.094 108.23 114.102 106.397 115.838C105.833 116.354 105.48 117.222 104.493 117.198C103.811 116.237 103.433 115.064 102.611 114.196Z" fill="#007F3F"/>
<path d="M182.72 89.0741C183.402 93.1086 184.06 97.1666 184.366 101.271C184.225 102.374 184.154 103.5 183.942 104.602C183.79 105.526 183.392 106.393 182.791 107.112C181.945 108.05 180.934 108.473 179.641 108.191C177.965 107.806 176.438 106.942 175.246 105.705C174.846 102.515 174.447 99.3011 174.07 96.0876C173.976 95.3135 173.906 94.5395 173.812 93.7888C173.718 93.0382 174.494 93.2728 174.846 93.3666C177.197 94.0234 178.842 92.8506 180.346 91.3259C180.824 90.8046 181.271 90.2563 181.686 89.684C181.945 89.3556 182.203 88.9803 182.72 89.0741Z" fill="#008F47"/>
<path d="M154.796 127.471C154.725 128.151 154.134 128.153 153.664 128.318C148.963 129.913 144.85 128.974 141.183 125.573C138.433 123.04 136.388 119.991 134.437 116.871C131.875 112.789 128.796 109.154 125.388 105.776C123.437 103.853 121.65 101.812 120.217 99.4662C119.935 98.9971 119.632 98.5493 119.538 97.9863C120.634 97.4518 121.805 97.0975 123.014 96.9329C123.125 96.9714 123.226 97.0331 123.312 97.1141C123.397 97.195 123.463 97.2932 123.507 97.402C124.683 100.967 127.174 103.641 129.525 106.386C132.251 109.599 134.719 113.024 137.117 116.496C138.997 119.193 140.924 121.82 143.839 123.556C146.754 125.292 149.198 125.362 152.019 124.142C153.241 124.987 154.302 126.017 154.796 127.471Z" fill="#008A44"/>
<path d="M63.6191 129.442C63.9011 130.873 65.0542 131.787 65.8533 132.913C67.4517 135.165 69.191 137.323 70.3663 139.833C70.5778 140.325 71.0949 140.818 70.5778 141.404C70.445 141.489 70.2918 141.535 70.1345 141.539C69.9772 141.543 69.8217 141.505 69.6847 141.428C67.6397 140.607 65.5713 139.809 63.5029 139.059C63.4108 139.027 63.326 138.978 63.2533 138.914C63.1806 138.849 63.1216 138.771 63.0798 138.683C62.3276 135.611 60.7528 133.101 57.7912 131.858C56.9934 131.513 56.12 131.379 55.2553 131.469C54.3906 131.56 53.5639 131.871 52.8552 132.374L51.5154 133.312C50.7397 133.828 50.0581 134.438 49.8465 135.4C48.2012 135.306 46.6029 135.141 45.075 134.508C44.652 133.898 45.0985 133.476 45.4041 133.054C46.0412 132.227 46.775 131.479 47.5901 130.826C48.9063 129.77 50.0581 128.55 51.2333 127.377C51.7504 126.838 52.3145 126.51 53.0902 126.791C56.6628 127.406 60.1817 128.292 63.6191 129.442Z" fill="#008B45"/>
<path d="M147.273 68.9241C147.132 69.7919 146.451 70.3314 145.981 70.9882C144.782 72.6771 143.818 74.5067 143.348 76.5239C143.019 77.9782 143.486 78.6831 144.731 78.7535C142.122 79.1904 139.483 79.3933 136.837 79.3622C132.512 79.3622 128.187 79.8313 123.862 79.5733C123.515 79.5574 123.173 79.5187 122.831 79.4565C123.325 79.0343 123.862 79.1745 124.38 79.2918C125.531 79.5733 126.707 79.456 127.858 79.4091C128.587 79.3622 129.151 79.0338 129.574 78.2597C130.82 75.9844 132.559 74.0376 134.416 72.208C135.162 71.5376 135.776 70.7341 136.226 69.8388C136.696 69.3463 137.354 69.2994 137.965 69.2759C140.715 69.2055 143.466 68.8771 146.192 68.6426C146.592 68.5957 146.991 68.5722 147.273 68.9241Z" fill="#009148"/>
<path d="M74.2025 61.2079C74.132 62.1227 74.9781 62.498 75.3542 63.1548C77.4461 66.8843 78.8094 70.8719 80.0552 74.9299C80.5958 76.6657 80.9719 78.4718 81.536 80.2076C82.6172 83.5853 82.5232 86.8692 80.8544 90.0359C79.6086 92.358 78.9269 94.8679 77.9868 97.3074C77.0466 99.7468 74.8136 101.506 72.087 102.304C71.1233 102.585 71.4443 101.834 71.3268 101.412C71.2093 100.99 71.3114 99.8876 71.5934 99.1369C74.0849 97.8703 75.4247 95.6654 76.5765 93.2728C77.0497 92.2458 77.5753 91.2437 78.1513 90.2704C80.1022 87.1742 80.5018 83.8433 79.6086 80.3718C78.5979 76.3842 77.5637 72.4201 75.8948 68.667C75.3742 67.4825 74.7529 66.3447 74.0379 65.2658C72.4866 62.9671 70.4417 62.24 67.8326 63.1782C65.6467 63.9757 63.6018 65.0078 62.215 66.9782C61.4628 66.7671 60.7107 66.5794 60.076 66.1337C59.9115 65.7819 60.123 65.5239 60.3581 65.3362C62.6851 63.4597 64.9415 61.4894 67.7856 60.4104C68.6408 60.0263 69.5545 59.7884 70.4887 59.7067C71.805 60.0116 73.1917 60.1289 74.2025 61.2079Z" fill="#008743"/>
<path d="M104.493 117.198C105.645 116.448 106.417 115.299 107.522 114.478C110.484 112.25 114.856 112.039 118.334 114.431C120.9 116.207 123.01 118.562 124.493 121.304C126.561 125.034 128.23 128.904 129.053 133.126C129.24 134.235 129.264 135.365 129.123 136.48C129.029 137.465 128.115 137.746 127.293 138.028C126.47 138.309 125.856 138.216 125.409 137.419C125.339 137.278 125.221 137.09 125.104 137.09C123.129 136.879 122.166 135.096 120.614 134.252C120.293 134.109 119.953 134.014 119.604 133.97C117.911 133.689 117.396 133.219 116.973 131.507C118.078 131.413 118.828 132.235 119.768 132.587C120.708 132.938 122.001 133.361 123.27 133.407C125.386 133.525 125.973 131.977 125.809 130.452C125.416 126.516 123.971 122.757 121.625 119.568C119.862 117.129 117.676 115.111 114.574 114.502C111.471 113.892 106.723 116.589 107.076 120.389C107.158 121.046 107.341 121.687 107.616 122.289C107.828 122.782 108.135 122.805 108.558 122.617C108.497 122.921 108.409 123.219 108.298 123.509C107.945 124.166 107.522 124.541 106.77 123.884C106.018 123.227 105.242 122.664 105.148 121.562C105.134 121.382 105.069 121.209 104.961 121.064C104.853 120.918 104.706 120.807 104.537 120.741C104.043 120.506 104.161 120.155 104.302 119.779C104.443 119.404 104.231 118.489 104.49 117.856L104.493 117.198Z" fill="#007D3E"/>
<path d="M164.574 142.953C165.444 144.642 164.552 146.026 163.588 147.176C161.167 150.061 158.628 152.852 156.489 155.948C155.032 158.059 153.481 160.124 151.553 161.812C149.626 163.501 147.087 165.167 144.173 165.589C143.726 165.636 143.42 165.659 143.255 165.214C146.24 160.405 149.861 156.113 153.786 152.078C157.009 148.832 160.483 145.844 164.176 143.141C164.304 143.069 164.436 143.006 164.574 142.953Z" fill="#008B45"/>
<path d="M115.045 189.491C115.35 188.904 115.374 188.318 115.374 187.638C115.374 184.518 114.951 181.375 115.75 178.279C116.15 176.73 116.975 175.628 118.338 174.9C118.95 176.613 120.216 178.021 120.686 179.827C117.889 183.65 118.312 187.708 120.028 191.743C120.945 193.901 122.402 194.323 124.611 193.431C124.987 193.267 125.34 193.127 125.716 193.385C126.136 194.428 126.447 195.513 126.637 196.622C125.274 198.006 123.507 198.756 121.767 199.507C120.921 199.882 120.004 200.14 119.417 200.938C119.229 201.172 118.994 201.407 118.618 201.149C118.531 201.093 118.465 201.011 118.43 200.914C118.242 200.351 118.665 199.624 117.889 199.249C117.184 197.747 116.902 196.129 116.361 194.581C115.821 193.033 115.609 192.048 115.115 190.828C114.951 190.406 114.716 189.96 115.045 189.491Z" fill="#008E47"/>
<path d="M40.1118 124.751L44.1077 125.22C45.1419 125.502 44.7658 126.112 44.3897 126.628C43.4435 128.01 42.3215 129.264 41.052 130.357C39.7593 131.46 38.3725 132.469 37.0327 133.524C36.8478 133.567 36.6564 133.575 36.4686 133.548C35.928 133.407 35.3639 133.477 34.7762 133.477C33.0369 133.594 31.2975 133.336 29.5582 133.196C29.2526 133.149 28.9705 132.961 28.665 133.008C27.0431 133.266 26.0324 132.422 24.9747 131.319C23.2118 129.443 21.449 127.566 20.0857 125.385C19.8036 124.916 19.31 124.47 19.6626 123.813C22.8122 123.79 25.9854 123.625 29.1351 123.977C28.5004 124.54 27.7248 124.235 26.9961 124.282C26.2675 124.329 26.2675 124.564 26.5495 125.103C28.2184 128.035 31.9556 130.287 35.5754 128.199C36.9318 127.427 38.1871 126.489 39.3127 125.408C39.5477 125.15 39.7593 124.869 40.1118 124.751Z" fill="#008A44"/>
<path d="M175.246 105.705C176.021 105.892 176.582 106.454 177.216 106.876C178.134 107.466 179.168 107.85 180.248 108.002C181.494 108.213 183.069 106.853 183.445 105.281C183.821 103.71 184.06 102.608 184.366 101.271L184.667 104.437C184.855 104.836 184.644 105.305 184.832 105.703C185.208 109.761 185.584 113.819 185.561 117.901C184.362 118.581 183.069 118.323 181.823 118.206C179.731 118.042 177.733 117.479 175.971 116.259C175.712 112.74 175.481 109.223 175.246 105.705Z" fill="#008C45"/>
<path d="M62.215 66.9782C61.8389 66.509 62.1388 66.1803 62.4914 65.9222C64.0897 64.8198 65.6175 63.5766 67.4979 62.9433C70.6946 61.8877 73.0451 62.7791 74.6904 65.6877C76.3357 68.5963 77.652 72.0913 78.6157 75.5159C79.1093 77.2282 79.6499 78.9406 80.0025 80.6763C80.6371 83.8195 80.4491 86.8454 78.8037 89.7071C77.6285 91.7712 76.6178 93.9292 75.3955 95.9699C74.5259 97.4242 73.4973 98.8555 71.5934 99.1369C71.6786 97.3856 71.9009 95.6437 72.2694 93.9292C73.5622 93.2255 74.2438 91.9823 75.0665 90.8564C76.2417 89.2614 77.3934 87.6429 77.84 85.6491C78.1838 84.203 78.2238 82.7016 77.9576 81.2393C77.5029 78.8694 76.8584 76.5397 76.0302 74.2727C76.0342 74.1232 76.0499 73.9742 76.0772 73.8271C76.4297 72.1382 76.4297 72.1382 74.8784 71.4814C74.4788 69.1592 73.1391 67.4 71.3292 66.0161C70.2245 65.1482 68.8142 65.3124 67.4979 65.6173C66.1816 65.9222 64.9594 66.7901 63.8546 67.658C63.267 67.5173 62.6851 67.3769 62.215 66.9782Z" fill="#008643"/>
<path d="M70.6902 107.816C74.0749 107.605 77.2951 108.098 80.0922 110.185C79.9511 113.188 79.7631 116.19 79.6926 119.169C79.6221 122.664 79.6926 126.183 79.6926 129.795C78.8035 129.567 77.9552 129.203 77.1776 128.716C77.5771 127.801 78.2118 127.004 78.6114 126.065C79.2225 124.681 79.2225 123.368 78.5173 122.031C78.1648 121.351 77.8357 120.647 77.4126 119.99C76.0023 117.926 74.0984 116.847 71.6069 116.8C71.1133 116.8 70.5727 116.894 70.1496 116.495C70.1767 113.595 70.3572 110.698 70.6902 107.816Z" fill="#009047"/>
<path d="M175.971 116.259C177.451 116.587 178.771 117.362 180.275 117.691C181.779 118.019 183.798 117.901 185.561 117.901C185.67 118.25 185.689 118.623 185.611 118.981C185.799 120.482 185.634 121.983 185.705 123.461C185.705 123.883 185.564 124.305 185.822 124.704C186.175 125.619 185.916 126.064 184.929 126.416C182.241 127.317 179.612 128.383 177.055 129.606C176.42 129.911 176.044 130.005 176.138 129.09C176.42 126.323 176.232 123.578 176.162 120.81C175.903 119.708 176.209 118.558 175.974 117.433L175.971 116.259Z" fill="#008643"/>
<path d="M152.019 124.142C151.455 125.292 150.283 125.055 149.366 125.126C145.488 125.478 142.597 123.578 140.129 120.81C136.768 117.057 134.37 112.623 131.15 108.753C129.152 106.384 127.084 104.062 125.274 101.529C124.263 100.098 123.601 98.5514 123.014 96.9329C123.263 96.785 123.545 96.6917 123.834 96.6634C124.122 96.635 124.413 96.6703 124.686 96.7669C124.964 96.8565 125.259 96.8819 125.548 96.8413C125.837 96.8006 126.113 96.695 126.355 96.5323C126.825 96.6965 126.99 97.1187 127.037 97.5409C127.436 100.051 128.659 102.162 130.163 104.156C133.524 108.589 136.697 113.21 140.27 117.526C142.127 119.754 144.313 121.56 147.369 121.912C148.896 122.076 150.307 121.631 151.717 121.115C152.305 120.904 152.916 120.458 153.597 120.95C152.986 121.983 152.23 122.923 152.019 124.142Z" fill="#008542"/>
<path d="M45.519 59.2844C45.0959 58.0882 45.5489 57.009 46.019 55.9535C46.7241 54.4053 47.5233 52.9041 48.7691 51.6844C49.0511 51.3795 49.2156 50.9572 49.4507 50.6054C49.8318 50.5211 50.2304 50.5708 50.5789 50.7461C53.0234 52.0832 55.4914 53.2794 58.03 54.4053C58.4579 54.5912 58.8483 54.8535 59.1817 55.1794C59.4403 55.6251 59.2052 55.9535 58.9232 56.2349C56.7372 58.5571 54.4102 60.7151 51.6366 62.3336C49.5293 61.4639 47.4806 60.445 45.519 59.2844Z" fill="#008C46"/>
<path d="M35.6757 50.8401C36.1223 51.7315 35.9594 52.6928 35.8418 53.5842C35.4057 57.2029 34.6746 60.7801 33.6559 64.2803C32.7157 67.4469 30.6708 69.7926 28.1557 71.6456C22.9377 75.4456 18.8948 80.1603 16.0742 85.9306C15.6041 86.8689 15.181 87.8071 14.7345 88.7688C14.5699 89.0972 14.4038 89.4494 14.2392 88.7692C14.8974 86.0482 16.0742 83.4911 17.1555 80.9344C17.9076 79.1517 18.6363 77.3456 19.6235 75.6801C21.5948 73.7828 23.6914 72.0196 25.8993 70.4024C30.8588 66.626 32.5747 61.5594 31.94 55.531C33.0721 53.8803 34.3194 52.3129 35.6757 50.8401Z" fill="#008843"/>
<path d="M70.1496 116.495C72.7351 116.378 75.1873 116.705 76.9267 118.887C78.2429 120.552 79.5592 122.241 79.3477 124.516C79.2823 125.324 79.0577 126.111 78.6865 126.831C78.3154 127.552 77.7975 128.193 77.1776 128.716L70.7684 126.276C70.6005 126.243 70.4495 126.152 70.3421 126.019C70.2346 125.886 70.1775 125.719 70.1808 125.549C69.9457 122.523 69.7735 119.521 70.1496 116.495Z" fill="#008E46"/>
<path d="M97.99 42.4188C96.6503 42.5126 95.8276 43.5681 94.8404 44.2484C92.6309 45.773 90.4685 47.3446 88.4 49.0569C86.3316 50.7693 84.9918 52.9742 84.9918 55.8124C84.9918 59.8234 85.4149 63.7876 87.0838 67.5172C88.2255 70.0761 89.782 72.4299 91.6907 74.4837C92.1608 74.9998 92.7214 75.4455 92.98 76.1257C91.467 75.9418 89.9764 75.6278 88.5176 75.1874C85.2504 70.027 83.1349 64.4678 82.5473 58.3457C82.4298 56.9618 82.5003 55.5309 81.9597 54.1939C82.0302 53.1618 82.1948 52.1766 83.1349 51.5433C87.3188 46.9693 92.96 44.3422 97.708 40.5423C98.2251 40.12 98.6012 39.1583 99.5884 39.604C99.3063 40.683 98.8597 41.6682 97.99 42.4188Z" fill="#008E46"/>
<path d="M236.786 107.113C237.326 107.113 237.601 106.69 237.883 106.339C240.045 103.735 242.756 101.648 244.777 98.9032C245.594 101.83 246.207 104.807 246.627 107.816C245.169 109.059 243.571 110.092 242.137 111.335C241.351 111.973 240.683 112.743 240.163 113.61C239.411 114.877 239.035 116.237 239.599 117.715C239.74 118.137 239.998 118.583 239.622 119.028C238.611 119.286 238.235 118.982 238.165 117.856C237.977 114.666 237.483 111.522 236.943 108.379C236.872 107.98 236.833 107.535 236.786 107.113Z" fill="#008B45"/>
<path d="M19.6626 123.813C20.4382 125.948 21.9967 127.567 23.4305 129.256C24.3237 130.335 25.4989 131.156 26.3216 132.305C26.5801 132.704 26.9797 132.657 27.3558 132.681C27.7319 132.704 28.6956 132.493 29.3067 132.868C28.2255 133.596 27.0267 133.314 25.8985 133.197C23.5245 132.939 21.1505 133.056 18.7765 133.079C17.4367 133.079 17.2722 133.314 17.2017 134.675C17.1782 135.214 17.2957 135.777 16.8021 136.199C16.52 135.894 16.567 135.519 16.6141 135.191C17.0136 133.173 16.238 131.578 14.8747 130.124C13.5114 128.67 12.0986 126.299 10.9704 124.235C12.1691 123.743 13.4174 123.978 14.6632 123.885C16.3085 123.767 17.9937 123.813 19.6626 123.813Z" fill="#009148"/>
<path d="M182.72 89.0741C181.945 89.5432 181.498 90.3652 180.98 91.0689C179.931 92.4274 178.459 93.4008 176.797 93.8367C176.068 94.0478 175.504 93.7663 174.869 93.6491C174.235 93.5318 174.117 93.3666 173.812 93.7888C173.342 90.9506 172.853 88.1347 172.383 85.32C175.65 85.4138 178.418 84.3369 180.534 81.7801C180.839 81.4283 181.174 81.0978 181.127 80.5818C181.825 83.3788 182.353 86.2151 182.72 89.0741Z" fill="#009148"/>
<path d="M104.964 155.197C104.024 156.229 102.999 155.385 102.059 155.22C99.4028 154.751 97.2874 153.18 95.2189 151.585C92.4689 149.45 89.9303 147.128 88.0734 144.102C87.4153 143.023 87.1332 141.803 86.6867 140.654C86.6323 140.525 86.6261 140.38 86.6692 140.247C86.7123 140.114 86.7926 140 86.9124 139.927C90.2971 142.272 93.7381 144.524 96.9113 147.128C100.084 149.732 102.012 152.288 104.691 154.728C104.812 154.867 104.898 155.025 104.964 155.197Z" fill="#018D46"/>
<path d="M82.1714 54.0777C82.9941 55.2974 82.6885 56.7283 82.8296 58.0418C83.4407 63.6948 85.039 68.9725 88.1182 73.7577C88.4226 74.1696 88.5647 74.6777 88.5176 75.1874C88.4475 75.1992 88.3762 75.2003 88.3062 75.1885C85.7912 74.649 85.7912 74.649 85.1566 77.1823C85.0625 77.5811 84.9126 77.9791 84.7951 78.3779C83.2908 74.273 81.8424 70.1923 80.3145 66.1109C79.8915 64.985 79.7504 63.7652 79.0923 62.7331C78.8808 62.3813 79.0218 62.0529 79.1158 61.7245C79.8445 59.5431 80.5496 57.3616 81.3253 55.2271C81.4898 54.7814 81.5368 54.195 82.1714 54.0777Z" fill="#009148"/>
<path d="M239.622 119.028C239.623 118.839 239.604 118.649 239.556 118.465C238.287 115.674 239.439 113.469 241.413 111.592C242.823 110.279 244.445 109.176 245.973 107.98C246.181 107.887 246.399 107.832 246.627 107.816C247.261 111.335 247.689 114.876 247.994 118.418C248.065 119.262 248.159 119.567 247.007 119.427C244.563 119.122 242.09 119.146 239.622 119.028Z" fill="#008642"/>
<path d="M31.94 55.531C32.0734 55.6106 32.1755 55.7252 32.2499 55.8613C32.3243 55.9974 32.3608 56.151 32.3556 56.306C32.6142 62.0059 31.0158 66.8613 26.2678 70.4502C24.2464 71.9748 22.366 73.6637 20.4386 75.2822C20.1801 75.4933 19.9761 75.7036 19.6235 75.6801C22.0915 70.2382 25.1396 65.149 28.5008 60.2232C29.582 58.6281 30.6238 56.9619 31.94 55.531Z" fill="#008542"/>
<path d="M37.0662 133.361C37.9123 132.164 39.2521 131.531 40.3333 130.593C41.7964 129.328 43.113 127.904 44.2587 126.347C44.6347 125.855 44.6013 125.549 44.1077 125.22C47.1398 125.596 50.1521 126.017 53.0902 126.791C52.841 126.772 52.5968 126.808 52.3618 126.893C52.1267 126.978 51.9125 127.112 51.7332 127.285C49.8998 129.092 48.0194 130.851 46.1861 132.61C45.669 133.103 45.2224 133.619 45.0578 134.346C44.7052 134.674 44.2822 134.627 43.8356 134.58C42.0022 134.369 40.1453 134.088 38.2884 133.924C37.8183 133.877 37.3717 133.783 37.0662 133.361Z" fill="#009148"/>
<path d="M153.597 120.95C152.892 120.904 152.304 121.187 151.693 121.445C148.261 122.876 145.229 122.313 142.361 119.967C139.494 117.622 137.707 114.666 135.569 111.851C133.43 109.037 131.126 106.058 129.034 103.055C127.929 101.507 127.036 99.7947 126.825 97.8478C126.778 97.3552 126.52 96.9545 126.355 96.5323C125.885 95.078 126.214 94.1651 127.882 93.7898C128.705 93.5787 129.387 92.8047 129.974 92.1244C130.562 91.4442 131.526 90.9985 132.56 91.28C133.007 91.3973 133.406 91.3973 133.759 91.0689C134.675 90.2479 135.851 90.1776 136.744 90.9282C137.266 91.3991 137.895 91.7371 138.577 91.9133C138.46 92.8047 137.731 92.6405 137.214 92.617C135.647 92.62 134.086 92.801 132.56 93.1565C129.998 93.7195 128.353 95.6664 128.611 97.8009C128.764 99.4038 129.278 100.952 130.115 102.328C132.442 106.128 135.192 109.646 137.919 113.165C139.494 115.206 140.998 117.293 143.137 118.841C146.216 121.046 148.966 121.187 152.21 119.264C152.468 119.093 152.735 118.937 153.009 118.794C153.315 118.63 153.644 118.349 153.996 118.56C154.349 118.771 154.208 119.264 154.114 119.639C154.02 120.014 153.903 120.575 153.597 120.95Z" fill="#008241"/>
<path d="M125.716 193.385C124.94 193.291 124.494 194.018 123.788 194.135C121.203 194.534 120.028 193.22 119.111 190.476C118.31 188.161 118.148 185.674 118.641 183.275C118.946 181.961 119.276 180.53 120.686 179.827C122.637 183.908 124.165 188.153 125.504 192.493L125.716 193.385Z" fill="#008B45"/>
<path d="M76.0302 74.2727C76.1785 74.3261 76.311 74.4171 76.414 74.5363C76.5169 74.6554 76.5873 74.7991 76.6184 74.9533C77.3235 77.5335 78.2637 80.0434 78.4282 82.7643C78.6398 86.0248 77.1825 88.6284 75.3256 91.0679C74.6205 92.0061 74.0093 93.0148 73.0926 93.7654C72.8576 93.953 72.669 94.4453 72.2694 93.9292C72.6455 89.8243 73.4922 85.7902 74.2914 81.7557C74.785 79.2458 75.2545 76.7122 76.0302 74.2727Z" fill="#008441"/>
<path d="M181.803 20.3934C182.883 20.8166 183.915 21.3511 184.883 21.9884C184.413 24.5217 181.521 26.5624 179.1 25.976C176.679 25.3896 175.152 24.2872 173.365 23.0909C168.617 19.9477 164.104 16.4293 159.521 13.0515C158.769 12.4886 158.792 12.3009 159.333 11.8787L162.553 12.817C166.549 15.9367 170.545 19.0329 175.152 21.2613C177.596 22.4576 179.806 22.2699 181.803 20.3934Z" fill="#008542"/>
<path d="M181.803 20.3934C180.981 21.8242 179.002 22.6453 177.404 22.27C173.972 21.4959 171.175 19.4552 168.354 17.5318C166.615 16.359 164.97 15.0454 163.277 13.8022C162.901 13.5442 162.553 13.3095 162.553 12.817C168.711 14.412 174.536 16.8516 180.271 19.5725C180.788 19.8071 181.31 20.1119 181.803 20.3934Z" fill="#008241"/>
<path d="M51.6366 62.3336C52.6238 60.9966 54.2721 60.4572 55.4238 59.2843C56.5756 58.1115 58.2209 56.9152 59.1611 55.3202C59.2073 55.2548 59.2734 55.2058 59.3495 55.1805C59.4256 55.1552 59.5078 55.1548 59.5842 55.1795C61.4176 55.977 63.392 56.5399 65.0843 57.6893C65.1548 58.2053 64.8023 58.4868 64.4497 58.7448C61.9112 60.6917 59.5607 62.8732 57.0456 64.8435C55.1882 64.1312 53.3791 63.2925 51.6366 62.3336Z" fill="#009148"/>
<path d="M154.114 119.639C154.161 118.748 153.956 118.487 153.11 119.074C152.431 119.524 151.716 119.916 150.971 120.247C147.234 121.865 144.249 120.434 141.593 117.948C138.936 115.461 136.727 112.084 134.4 109.081C132.778 106.947 131.156 104.789 129.84 102.443C128.853 100.684 128.077 98.8073 128.406 96.6963C128.735 94.5852 130.545 93.3889 132.567 92.826C134.152 92.4049 135.794 92.2386 137.432 92.3334C137.879 92.3568 138.319 92.3825 138.577 91.9133C139.917 92.2183 141.216 92.7556 142.674 92.6149C143.402 92.521 144.004 92.9676 144.216 93.7416C142.618 93.5305 141.005 93.1543 139.383 93.1543C136.468 93.1309 133.507 93.2482 131.039 95.1247C129.84 96.016 129.629 97.4234 129.746 98.8073C129.911 100.637 130.616 102.255 131.626 103.78C134.612 108.354 137.714 112.834 141.546 116.728C143.026 118.229 144.766 119.308 146.881 119.707C148.385 119.989 152.452 118.44 153.227 117.197C153.274 117.103 153.171 116.917 153.148 116.776C154.206 117.268 154.443 117.973 154.114 119.639Z" fill="#008241"/>
<path d="M159.333 11.8787C158.769 12.3244 159.306 12.5593 159.565 12.747C164.783 16.4766 169.742 20.5345 175.219 23.9123C176.172 24.5268 177.189 25.0379 178.251 25.4369C180.625 26.3986 182.27 25.7888 183.916 23.4431C184.245 22.974 184.554 22.4576 184.883 21.9884C185.611 22.1057 186.01 22.856 186.762 22.9967C186.314 24.6456 185.545 26.192 184.503 27.548C183.046 29.4245 182.482 29.3072 180.437 28.5332C177.546 27.4073 175.172 25.39 172.727 23.5604C167.533 19.7136 162.456 15.7494 157.144 12.1137C156.885 11.9495 156.135 11.8315 156.699 11.1981C157.61 11.2717 158.501 11.5022 159.333 11.8787Z" fill="#008642"/>
<path d="M98.7387 77.1343C102.262 75.7765 106.011 75.0846 109.788 75.0938C113.408 75.1172 116.934 76.0789 119.778 78.6357C120.013 78.8468 120.246 79.0578 120.246 79.4096C115.212 79.2565 110.193 78.8338 105.205 78.1431C103.043 77.8851 100.878 77.6738 98.7387 77.1343Z" fill="#008E46"/>
<path d="M40.1118 124.751C38.2785 127.285 35.8342 128.926 32.7315 129.349C30.3576 129.677 26.6908 126.956 25.9621 124.61C25.7741 124.047 26.0327 124 26.4322 124H29.1353C32.807 124.005 36.4739 124.256 40.1118 124.751Z" fill="#008642"/>
<path d="M63.8546 67.658C64.8653 65.9692 66.5565 65.4761 68.3428 65.1477C70.1292 64.8193 71.9861 65.7107 73.1613 67.3292C73.8196 68.2426 74.4163 69.1986 74.9477 70.1908C75.1827 70.5896 75.3015 71.0592 74.8784 71.4814C71.1336 70.4182 67.453 69.1416 63.8546 67.658Z" fill="#008441"/>
<path d="M57.0456 64.8435C57.0927 64.3275 57.51 64.0686 57.8861 63.7871L65.055 57.8527C65.2901 57.6416 65.5721 57.7119 65.8307 57.8058C67.194 58.2749 68.5338 58.8144 69.897 59.307C70.1791 59.4243 70.4612 59.565 70.5082 59.9403C66.2538 60.7378 63.0847 63.2955 60.076 66.1337L57.0456 64.8435Z" fill="#008B45"/>
<path d="M185.822 124.704C185.305 123.883 185.633 122.969 185.586 122.125C185.539 121.281 185.587 120.036 185.611 118.981C185.869 120.881 185.846 122.804 185.822 124.704Z" fill="#008C45"/>
<path d="M238.214 124.002C237.979 124.002 237.697 124.049 237.509 123.814C238.967 123.791 240.397 123.719 241.831 123.978L239.857 124.025L238.214 124.002Z" fill="#009048"/>
<path d="M175.974 117.433C176.397 118.558 176.115 119.684 176.162 120.81C175.927 119.708 175.974 118.582 175.974 117.433Z" fill="#008C45"/>
<path d="M104.49 117.856C104.419 118.513 104.702 119.169 104.302 119.779C104.325 119.123 104.114 118.466 104.49 117.856Z" fill="#007F3F"/>
<path d="M80.1045 110.208C80.1045 109.716 79.9165 109.2 80.2691 108.778C80.2691 109.247 80.3161 109.739 80.1045 110.208Z" fill="#009047"/>
<path d="M70.8802 106.103C70.8332 106.596 71.0698 107.111 70.6937 107.58C70.6702 107.064 70.6451 106.573 70.8802 106.103Z" fill="#009047"/>
<path d="M184.832 105.703C184.503 105.328 184.667 104.859 184.667 104.437C184.879 104.836 184.855 105.258 184.832 105.703Z" fill="#008B45"/>
<path d="M115.541 225.145C115.33 228.007 117.186 229.649 119.137 231.197C121.088 232.745 123.768 233.777 126.283 234.622C131.501 236.357 136.672 238.163 141.82 240.087C144.922 241.236 148.142 241.4 151.48 241.072C158.273 240.439 164.619 238.328 170.966 236.029C175.62 234.34 180.156 232.393 185.022 231.314C186.15 231.056 187.278 231.22 188.406 231.197C188.806 231.173 189.113 231.337 188.878 231.83C185.211 233.918 181.519 235.959 177.594 237.483C177.053 237.014 176.466 237.249 175.902 237.342C173.152 237.812 170.519 238.68 167.84 239.43C162.621 240.837 157.403 242.268 152.021 242.902C147.021 243.51 141.951 242.688 137.401 240.533C133.452 238.703 129.339 237.342 125.202 235.959C121.065 234.575 116.599 232.44 113.261 229.015C113.073 228.828 112.815 228.687 112.627 228.499C110.488 226.271 108.161 225.99 105.575 227.702C104.235 227.42 103.53 226.412 102.943 225.262C104.094 222.612 102.801 220.337 101.791 218.014C100.197 214.361 98.3598 210.819 96.2906 207.412C95.9851 206.896 95.562 206.38 95.703 205.7C95.9146 205.442 96.1496 205.559 96.3142 205.7C97.748 207.084 99.3463 208.35 100.498 210.039C102.12 214.402 104.306 218.46 107.291 222.049C108.936 224.043 110.3 223.949 112.438 222.002C113.99 222.541 114.859 223.738 115.541 225.145Z" fill="#008D46"/>
<path d="M143.742 247.076C143.554 246.466 142.976 246.514 142.506 246.42C140.179 245.904 138.04 244.942 135.925 243.816C131.271 241.377 126.546 239.055 121.516 237.436C119.065 236.648 116.683 235.659 114.394 234.481C113.76 234.152 113.031 233.941 112.349 233.66C111.668 233.378 111.832 233.613 111.785 233.988C111.738 234.363 111.198 233.871 110.986 233.683C109.701 232.448 108.432 231.181 107.178 229.883C106.92 229.602 106.638 229.32 106.802 228.851C107.86 227.913 109.059 228.218 110.234 228.499C111.551 228.886 112.78 229.523 113.854 230.376C117.05 232.839 120.6 234.574 124.431 235.841C129.555 237.53 134.538 239.618 139.498 241.752C143.564 243.488 147.818 243.629 152.143 243.159C157.808 242.573 163.261 241.001 168.808 239.852C169.302 239.735 169.819 239.571 170.312 239.664C170.806 239.758 171.088 239.876 170.548 240.298C165.541 242.315 160.37 243.746 155.128 244.989C151.383 245.917 147.574 246.614 143.742 247.076Z" fill="#008A44"/>
<path d="M217.716 209.594C217.387 208.843 217.865 208.234 218.171 207.671C220.263 203.73 222.825 200.094 225.269 196.388C229.312 190.242 233.237 184.026 236.481 177.412C240.223 169.74 243.267 161.748 245.577 153.533C245.742 152.9 245.758 152.126 246.416 151.68C245.781 156.723 244.59 161.649 243.086 166.505C238.522 181.303 230.863 194.966 220.615 206.592C219.698 207.624 218.68 208.585 217.716 209.594Z" fill="#008A44"/>
<path d="M170.548 240.298C170.759 239.524 170.186 239.876 169.951 239.923C167.554 240.439 165.156 241.002 162.782 241.542C158.34 242.527 153.921 243.418 149.337 243.676C144.754 243.934 141.181 242.949 137.373 241.237C133.566 239.524 129.852 238.047 125.974 236.733C121.602 235.232 117.371 233.543 113.68 230.658C112.082 229.415 110.296 228.406 108.11 228.594C107.616 228.617 107.17 228.664 106.841 229.063C105.994 228.969 105.477 228.523 105.454 227.632C107.569 225.708 109.92 225.802 112.317 227.82C114.245 229.438 116.054 231.221 118.193 232.581C119.956 233.707 121.884 234.458 123.835 235.114C129.546 237.108 135.187 239.243 140.805 241.518C142.582 242.195 144.453 242.591 146.352 242.691C153.004 243.137 159.28 241.307 165.603 239.712C169.199 238.821 172.678 237.577 176.344 236.921C176.932 236.827 177.453 236.686 177.594 237.483C175.244 238.422 172.969 239.524 170.548 240.298Z" fill="#008C45"/>
<path d="M247.873 140.28C247.92 139.717 247.662 139.107 248.038 138.544C248.061 139.131 248.108 139.717 247.873 140.28Z" fill="#008D46"/>
<path d="M247.638 143.095C247.662 142.673 247.473 142.227 247.803 141.828C247.826 142.274 247.85 142.696 247.638 143.095Z" fill="#008D46"/>
<path d="M247.403 145.394C247.426 144.995 247.238 144.549 247.568 144.174C247.632 144.588 247.575 145.012 247.403 145.394Z" fill="#008D46"/>
<path d="M55.8643 224.793C49.9309 220.721 44.4191 216.07 39.4108 210.907C32.0812 203.425 25.8529 194.943 20.9125 185.714C20.2074 184.401 19.3847 183.134 18.9616 181.68C18.7265 181.187 18.9851 181.117 19.3612 181.258C19.7373 181.398 20.2074 181.938 20.6069 182.313C22.1113 183.768 22.8634 183.885 24.7438 182.923C26.0601 182.266 27.2588 181.352 28.8101 181.328C29.6563 181.774 29.8444 182.665 30.2439 183.392C30.9256 184.612 31.8188 185.714 32.2184 187.075C31.1371 188.623 31.3957 190.265 31.8188 191.907C32.5944 194.933 34.3808 197.325 36.6608 199.366C37.9065 200.492 39.0818 201.688 40.3275 202.814C45.5456 207.576 50.6227 212.525 54.8771 218.202C55.7797 219.331 56.4941 220.598 56.9925 221.955C57.5331 223.479 57.2981 223.972 55.8643 224.793Z" fill="#008E47"/>
<path d="M28.8084 181.469C27.2336 181.821 25.8468 182.619 24.4835 183.416C23.1202 184.214 21.992 183.956 20.6287 182.759C20.1821 182.384 19.806 181.938 19.383 181.54C18.9599 181.141 18.9851 181.328 18.9616 181.68C16.3055 176.496 14.3059 171.031 12.6371 165.449C11.8849 162.986 11.1327 160.546 10.7332 158.013C11.9789 156.066 13.7888 154.705 15.5047 153.275C16.0453 152.829 16.5624 152.336 17.0795 151.891C17.5966 151.445 17.9727 151.07 18.6308 151.422C19.3359 152.547 19.3124 153.884 19.5945 155.104C21.4731 163.722 24.4347 172.068 28.4088 179.945C28.6439 180.414 29.0435 180.859 28.8084 181.469Z" fill="#009048"/>
<path d="M55.8643 224.793C57.5566 223.503 56.9009 222.096 56.1017 220.641C54.997 218.577 53.5162 216.771 51.9884 215.012C49.6144 212.314 47.2404 209.64 44.6078 207.177C41.9753 204.714 38.8021 201.993 36.0285 199.272C33.255 196.552 31.163 193.291 31.1865 189.139C31.1865 188.342 31.3276 187.591 32.0562 187.075C32.4793 187.239 32.5968 187.638 32.8084 187.966C36.6397 193.76 40.8706 199.249 45.7831 204.222C49.0738 207.553 52.4585 210.766 56.1722 213.628C57.465 214.636 58.8518 215.528 60.1445 216.513C60.5441 216.818 61.0377 217.052 61.1553 217.615C61.0847 218.694 61.8604 219.398 62.3775 220.196C63.7173 222.166 65.1511 224.089 65.9738 226.341C66.4909 227.796 67.1255 229.297 66.2558 230.845C66.1806 230.989 66.0767 231.117 65.9503 231.22C62.4341 229.33 59.0612 227.182 55.8643 224.793Z" fill="#008C46"/>
<path d="M105.014 236.779C100.501 237.553 95.8703 237.037 91.3809 238.21C90.0881 238.538 88.8424 238.937 87.8316 239.829C87.4556 240.157 87.0748 240.438 87.3334 241.001C83.3012 239.672 79.3711 238.066 75.5621 236.193C75.8442 234.058 76.2437 231.947 77.1839 229.977C77.6305 229.062 78.5472 228.921 79.4874 228.921C80.4276 228.921 81.3913 229.273 82.3785 229.226C84.3059 229.766 86.0923 230.634 87.9727 231.337C93.1333 233.258 98.4086 234.856 103.768 236.122C104.215 236.24 104.826 236.146 105.014 236.779Z" fill="#008643"/>
<path d="M82.4212 229.531L79.6476 229.273C78.0963 229.156 77.5086 229.508 77.015 231.079C76.5214 232.651 76.3378 234.574 75.5621 236.193C72.2454 234.761 69.0347 233.099 65.9503 231.22C67.0315 228.171 65.5212 225.731 64.0639 223.315C63.1707 221.861 62.16 220.477 61.2198 219.046C60.9377 218.6 60.5616 218.155 60.9612 217.568C62.2775 217.92 63.2882 218.812 64.3929 219.515C68.8824 222.283 73.4423 224.957 78.2138 227.232C79.342 227.772 80.5173 228.194 81.622 228.827C81.9276 228.992 82.4212 228.992 82.4212 229.531Z" fill="#008A44"/>
<path d="M18.4697 151.445C17.0594 151.773 16.3778 153.064 15.2966 153.861C13.7453 154.987 12.288 156.254 11.1832 157.872C11.1127 157.966 10.8977 157.966 10.7332 158.013C10.2097 156.167 9.82694 154.285 9.58358 152.383C10.0067 153.04 10.5251 152.852 10.9717 152.454C12.9931 150.718 14.991 148.935 17.0124 147.176C17.2175 147.001 17.3778 146.78 17.48 146.532C17.5822 146.283 17.6234 146.013 17.6001 145.745H17.6941C18.4227 147.598 18.8458 149.475 18.4697 151.445Z" fill="#008B45"/>
<path d="M115.523 238.492C115.687 238.398 115.946 238.492 116.016 238.21C116.087 237.929 116.392 238.398 116.298 238.585C116.204 238.773 115.96 238.679 115.772 238.702L115.523 238.492Z" fill="#5EB187"/>
<path d="M17.3394 143.633C17.5221 144.021 17.5796 144.455 17.504 144.876C17.1749 144.501 17.3629 144.055 17.3394 143.633Z" fill="#008B45"/>
<path d="M150.851 169.834L146.62 176.848C144.575 177.481 142.977 178.795 141.59 180.343C139.498 182.688 138.605 185.62 137.947 188.623C137.288 191.625 136.983 194.159 136.583 196.95C135.972 201.242 134.28 205.019 131.671 208.444C130.19 210.414 128.545 212.267 127.722 214.66C127.158 216.325 126.735 217.99 127.181 219.797C127.769 222.306 129.344 223.878 131.553 224.98C132.122 225.244 132.77 225.278 133.363 225.074C133.222 227.045 133.058 228.991 132.893 230.938C132.658 231.689 132.094 231.478 131.6 231.314C128.498 230.282 125.395 229.203 123.115 226.669C123.045 226.575 122.927 226.552 122.809 226.482C122.504 223.62 122.175 220.735 121.869 217.873C122.574 213.557 123.421 209.265 126.218 205.723C127.44 204.198 128.897 202.884 130.119 201.36C132.752 198.052 133.575 194.041 134.35 190.007C135.126 185.972 135.573 182.501 137.1 178.959C138.252 176.261 140.274 174.502 142.859 173.282C145.445 172.063 147.349 171.124 149.558 169.928C149.958 169.717 150.357 169.154 150.851 169.834Z" fill="#008B45"/>
<path d="M233.515 132.679C229.026 132.89 224.536 132.914 220.07 133.336C216.357 133.688 212.69 134.087 209.023 134.743C208.681 134.799 208.335 134.83 207.989 134.837C207.589 134.157 208.318 134.251 208.529 134.157C210.104 133.359 211.726 132.656 213.277 131.858C215.534 130.709 217.72 129.419 219.906 128.152C224.207 125.689 226.44 125.994 230.248 129.325C231.423 130.357 232.434 131.553 233.515 132.679Z" fill="#008B45"/>
<path d="M133.907 231.665L138.819 226.716C139.853 227.021 140.676 227.701 141.499 228.358C142.721 229.39 143.943 230.446 145.33 231.267C145.659 231.454 146.012 231.665 146.082 232.111C145.047 233.281 143.931 234.378 142.744 235.395C140.206 234.199 137.714 232.979 134.964 232.275C134.588 232.181 134.095 232.158 133.907 231.665Z" fill="#008B45"/>
<path d="M139.987 238.211C140.058 238.492 140.316 238.398 140.481 238.492C140.246 238.703 139.964 238.797 139.752 238.609C139.54 238.422 139.799 238.281 139.987 238.211Z" fill="#5EB98B"/>
<path d="M87.032 42.6063C87.6297 41.1394 88.3532 39.7268 89.1945 38.3841C92.5321 36.6953 95.1177 34.2089 96.7865 30.8546C97.5152 29.3769 97.3036 28.1337 96.2459 27.1485C97.3255 25.571 98.528 24.0808 99.8422 22.6918C100.312 22.9967 100.782 23.2547 101.229 23.5597C103.344 24.8967 103.838 27.0078 102.616 29.1658C99.3015 35.0064 94.483 39.2051 88.5833 42.231C88.0897 42.489 87.5961 42.7001 87.032 42.6063Z" fill="#008A44"/>
<path d="M96.0351 21.9651C90.6786 23.6466 85.441 25.6841 80.3573 28.0638C79.1821 28.6267 77.9833 29.0959 76.8316 29.7526C76.3145 29.3773 76.7846 29.1662 76.9726 28.9317C78.5945 27.0786 80.6394 25.8354 82.8488 24.7799C86.101 23.1917 89.583 22.1231 93.1675 21.6133C94.1077 21.4725 95.1889 21.0972 96.0351 21.9651Z" fill="#008D46"/>
<path d="M90.1822 65.8277C93.7079 66.508 97.2336 67.2116 100.759 67.8215C103.251 68.2437 105.766 68.5487 108.281 68.924C108.657 69.1351 109.127 68.9005 109.503 69.1116L110.631 69.182C111.007 69.3462 111.454 69.1351 111.854 69.3462L112.982 69.3931C113.452 69.6042 113.969 69.3696 114.463 69.5807L116.038 69.6277C116.602 69.8388 117.213 69.6042 117.777 69.8153L120.033 69.8622C120.739 70.0733 121.491 69.8153 122.219 70.0264L122.595 70.0733C123.089 70.5425 123.724 70.1202 124.335 70.4252C122.948 71.2462 121.514 71.1054 120.104 70.8943C117.33 70.4955 114.533 70.7067 111.76 70.8943C107.341 71.1758 103.063 72.5128 98.6674 72.8412C95.3297 73.0758 92.8852 71.34 91.0989 68.619C90.6523 67.9388 90.2997 67.1882 89.9001 66.4845C89.7121 66.1326 89.7121 65.8746 90.1822 65.8277Z" fill="#008542"/>
<path d="M95.8013 46.5479C93.6859 51.2861 91.6174 56.0243 89.9251 60.9266L88.9379 63.7414C87.9272 63.1316 88.0682 62.0291 87.9742 61.1612C87.6216 58.1588 87.3631 55.1564 89.0319 52.365C90.7008 49.5737 92.9337 48.096 95.3782 46.4775C95.4455 46.4368 95.5252 46.4215 95.6028 46.4344C95.6805 46.4473 95.7509 46.4876 95.8013 46.5479Z" fill="#008643"/>
<path d="M131.761 70.2856L135.287 69.8634C134.135 70.3091 133.031 70.8955 131.761 70.2856Z" fill="#009148"/>
<path d="M174.501 56.4695C175.135 58.1584 175.794 59.8238 176.193 61.6065C174.197 63.002 171.957 64.0124 169.588 64.5855C168.789 64.7497 167.943 64.4447 167.191 64.9373C166.109 61.888 165.028 58.8152 163.971 55.7658C163.736 54.9214 164.441 54.9214 164.911 54.8041C165.725 54.6521 166.557 54.6283 167.379 54.7337C169.847 54.9214 172.268 55.3202 174.501 56.4695Z" fill="#008B45"/>
<path d="M164.903 23.5844C161.378 22.482 157.875 21.2153 154.021 20.4647L155.901 22.6931C155.055 23.0449 154.397 22.5054 153.739 22.1536C150.565 20.5585 147.275 19.3154 143.749 18.9635C141.163 18.7055 138.554 18.4475 135.969 19.2215C131.997 17.345 127.813 17.2512 123.535 17.7907C123.699 17.5092 124.005 17.5327 124.263 17.4857C128.212 16.7821 131.856 15.0228 135.734 14.1315C142.221 12.6303 148.497 12.9352 154.467 16.1018C157.922 17.908 161.096 20.1598 164.175 22.5758C164.48 22.8104 164.856 23.0918 164.903 23.5844Z" fill="#009048"/>
<path d="M156.444 141.147C156.773 141.546 156.82 141.921 156.397 142.297C156.42 141.921 156.42 141.523 156.444 141.147Z" fill="#31A168"/>
<path d="M156.795 140.467C156.717 140.345 156.673 140.204 156.669 140.06C156.665 139.915 156.7 139.772 156.771 139.646C156.861 139.763 156.911 139.906 156.916 140.053C156.92 140.2 156.878 140.345 156.795 140.467Z" fill="#32A26A"/>
<path d="M158.491 137.042C158.397 137.112 158.303 137.253 158.162 137.276C158.021 137.3 157.974 137.183 158.068 137.089C158.161 136.977 158.272 136.882 158.397 136.807C158.432 136.884 158.464 136.962 158.491 137.042Z" fill="#009047"/>
<path d="M63.0836 138.568C59.6519 137.653 56.2907 136.574 52.8119 135.87L49.9913 135.214C49.6388 134.956 49.4272 134.721 49.8738 134.322C51.8482 132.493 53.8932 130.851 56.8548 131.25C58.4296 131.484 59.6283 132.375 60.6156 133.431C61.6028 134.487 62.4489 135.941 63.1306 137.348C63.3186 137.747 63.6242 138.193 63.0836 138.568Z" fill="#008743"/>
<path d="M118.594 200.938C118.328 200.421 118.176 199.854 118.147 199.273C119.416 199.531 118.265 200.422 118.594 200.938Z" fill="#009048"/>
<path d="M36.5865 133.337C36.0095 133.413 35.4229 133.356 34.8707 133.173C35.4348 133.22 36.0459 132.961 36.5865 133.337Z" fill="#009148"/>
<path d="M53.2331 166.832C55.184 166.011 56.8293 166.574 58.2396 167.981C62.6742 172.391 67.1088 176.809 71.5434 181.234L94.9777 204.55C95.2833 204.855 95.5654 205.183 95.8474 205.512C95.8944 206.309 96.3645 206.943 96.7641 207.623C99.3329 211.874 101.527 216.34 103.322 220.97C103.886 222.447 103.957 223.925 103.087 225.332L95.3303 217.568C95.1893 215.715 94.2491 214.167 93.2619 212.666C91.1464 209.429 88.5609 206.52 85.9989 203.635C83.4368 200.75 80.7103 198.006 77.9132 195.332C76.0093 193.525 74.1054 191.719 72.2485 189.89C68.7073 186.412 65.4531 182.654 62.5175 178.654C59.7674 174.995 56.8058 171.523 53.7502 168.122C53.4211 167.77 52.904 167.465 53.2331 166.832Z" fill="#009048"/>
<path d="M100.315 209.97C104.452 213.91 108.495 217.968 112.491 222.073C111.269 223.997 109.435 224.208 108.095 223.176C106.756 222.143 105.557 220.337 104.523 218.742C103.112 216.584 102.008 214.262 100.879 211.963C100.574 211.33 100.245 210.697 100.315 209.97Z" fill="#008C45"/>
<path d="M53.2331 166.832C53.5151 167.981 54.4965 168.615 55.2252 169.365C58.8214 173.259 61.924 177.528 65.1912 181.68C68.4584 185.832 72.4072 189.89 76.403 193.596C82.7259 199.46 88.6726 205.652 93.6321 212.736C94.3817 213.83 94.9751 215.022 95.395 216.278C95.5595 216.724 95.7534 217.17 95.3303 217.568C93.1914 215.481 91.0231 213.37 88.9077 211.259C76.5754 198.967 64.2354 186.684 51.8875 174.408C49.443 171.992 50.1539 167.841 53.2331 166.832Z" fill="#008C46"/>
<path d="M155.647 210.017L163.591 202.041L187.355 178.35C187.613 178.092 187.895 177.881 188.154 177.647C188.577 178.046 188.507 178.585 188.436 179.078C187.449 185.129 185.474 190.782 181.784 195.755C180.421 197.585 178.775 199.156 177.154 200.728C175.179 202.651 173.299 204.692 171.16 206.475C167.587 209.407 163.615 211.33 158.89 211.283C157.692 211.283 156.446 211.143 155.647 210.017Z" fill="#009048"/>
<path d="M133.363 225.074C133.175 225.567 132.931 225.756 132.32 225.591C130.04 224.911 127.314 222.824 126.82 219.634C126.326 216.443 127.619 213.394 129.547 210.767C131.474 208.14 133.777 205.278 135 201.971C135.94 199.461 136.292 196.857 136.692 194.254C137.233 190.688 137.703 187.099 139.09 183.722C140.476 180.344 142.78 178.374 145.718 176.732C146.047 176.544 146.385 176.426 146.62 176.848C144.128 181.797 141.863 186.841 140.1 192.072C137.206 200.803 135.191 209.8 134.083 218.93C133.824 220.971 133.598 223.033 133.363 225.074Z" fill="#008542"/>
<path d="M146.082 232.111C143.473 230.563 141.311 228.428 138.819 226.716C141.781 223.761 144.714 220.781 147.7 217.849C148.193 217.357 148.499 216.7 149.18 216.395C149.309 216.31 149.458 216.263 149.612 216.259C149.766 216.255 149.917 216.294 150.05 216.372C151.907 217.239 153.787 216.934 155.668 216.606C157.548 216.278 159.052 215.996 160.745 215.762C161.168 215.691 161.897 215.386 161.85 216.348C160.98 217.239 160.157 218.154 159.288 219.022L146.947 231.337L146.082 232.111Z" fill="#008643"/>
<path d="M161.85 216.348C161.732 215.832 161.373 215.927 161.02 215.997C158.411 216.443 155.826 216.912 153.217 217.311C151.759 217.546 150.497 216.841 149.18 216.395L155.647 210.017C158.655 211.776 161.678 210.978 164.64 209.922C167.602 208.867 170.657 206.802 173.055 204.363C175.076 202.322 177.239 200.446 179.213 198.311C183.491 193.714 186.1 188.295 187.463 182.22C187.792 180.719 188.318 179.242 188.154 177.647C189.638 176.01 191.198 174.451 192.846 172.978C193.293 173.401 193.175 173.94 192.963 174.386C191.154 177.951 190.683 181.868 189.79 185.668C189.508 186.841 189.015 187.967 189.132 189.21C187.299 191.18 185.324 192.987 183.397 194.84C178.884 199.203 174.442 203.589 170.093 208.116C167.672 210.649 165.157 213.089 162.713 215.599C162.454 215.88 162.249 216.231 161.85 216.348Z" fill="#008B45"/>
<path d="M202.087 166.668C205.424 167.278 206.905 171.383 204.555 173.846C201.076 177.505 197.409 180.976 193.837 184.518C192.873 184.729 193.061 183.955 193.037 183.51C192.92 181.258 193.413 179.1 194.166 176.989C195.482 173.423 197.738 170.444 200.253 167.653C200.747 167.09 201.076 166.222 202.087 166.668Z" fill="#008743"/>
<path d="M202.087 166.668C200.865 166.527 200.651 167.724 200.086 168.334C197.712 170.914 195.644 173.752 194.445 177.13C193.693 179.265 193.223 181.47 193.317 183.745C193.341 184.12 193.366 184.471 193.837 184.518C192.332 186.16 190.777 187.732 189.132 189.21C188.709 189.163 188.593 188.952 188.71 188.553C189.956 184.355 190.379 179.945 191.954 175.817C192.306 174.878 193.057 174.081 192.846 172.978C194.632 171.172 196.349 169.319 198.206 167.583C199.264 166.598 200.606 166.152 202.087 166.668Z" fill="#008A45"/>
<path d="M161.428 29.9402C164.96 35.007 167.946 40.4321 170.336 46.1252C170.007 46.6647 169.443 46.735 168.902 46.8523C166.293 47.3449 163.637 47.2042 160.981 47.1807C160.633 47.179 160.294 47.0637 160.017 46.8523L157.432 41.9265C158.043 41.387 158.795 41.4104 159.547 41.387C160.755 41.3599 161.959 41.2264 163.143 40.9882C165 40.566 165.423 39.5104 164.436 37.9154C163.449 36.3204 161.945 34.7957 160.417 33.5525C155.8 29.747 150.582 26.7347 144.974 24.6391C144.645 24.5218 144.316 24.3341 143.963 24.4045C142.694 23.4662 141.448 22.5045 140.203 21.5428C140.273 20.7687 140.884 20.9564 141.331 20.9564C143.07 21.0033 144.739 21.449 146.384 21.965C151.062 23.3959 155.293 25.7415 159.289 28.5094C159.994 29.002 160.769 29.4007 161.428 29.9402Z" fill="#008843"/>
<path d="M143.963 24.4045C144.293 23.8415 144.738 24.2406 145.091 24.3579C148.311 25.4604 151.273 27.1023 154.211 28.7912C157.065 30.4711 159.736 32.4444 162.179 34.6788C163.332 35.7224 164.301 36.9513 165.047 38.3145C165.705 39.5342 165.07 40.8478 163.66 41.1762C162.647 41.4484 161.606 41.6058 160.557 41.6453C159.523 41.6922 158.466 41.7857 157.432 41.9265C154.799 37.4463 152.001 33.1072 148.593 29.1665C147.136 27.5011 145.515 25.9761 143.963 24.4045Z" fill="#008542"/>
<path d="M160.017 46.8523C163.143 46.7819 166.312 47.0873 169.414 46.3601C169.725 46.3041 170.036 46.2253 170.336 46.1252C171.942 49.4813 173.336 52.9365 174.501 56.4695L170.096 55.4143C168.474 55.0155 166.805 54.9921 165.136 55.0859C164.69 55.1094 164.088 55.109 163.971 55.7658L160.017 46.8523Z" fill="#008F47"/>
<path d="M161.428 29.9402C159.665 29.5884 158.493 28.2512 157.06 27.3599C152.594 24.6155 147.94 22.3168 142.745 21.402C141.923 21.2612 141.002 20.8626 140.203 21.5428L135.969 19.2215C136.18 18.4475 136.845 18.5168 137.41 18.4699C143.168 18.0712 148.645 19.0798 153.745 21.8242C154.432 22.1914 155.151 22.4834 155.901 22.6931C157.966 24.9305 159.819 27.3564 161.428 29.9402Z" fill="#008B45"/>
<path d="M122.219 70.0264C121.491 70.0029 120.739 70.2383 120.033 69.8622C120.762 69.8622 121.491 69.7679 122.219 70.0264Z" fill="#008A44"/>
<path d="M117.777 69.8153C117.189 69.7683 116.578 70.0037 116.038 69.6277C116.625 69.6277 117.213 69.5803 117.777 69.8153Z" fill="#008A44"/>
<path d="M114.463 69.5807C113.969 69.5337 113.428 69.7692 112.982 69.3931C113.483 69.3273 113.994 69.3916 114.463 69.5807Z" fill="#008A44"/>
<path d="M111.854 69.3462C111.431 69.3227 110.984 69.4875 110.631 69.182C111.046 69.1066 111.474 69.1638 111.854 69.3462Z" fill="#008A44"/>
<path d="M109.503 69.1116C109.08 69.0881 108.633 69.2765 108.281 68.924C108.704 68.9005 109.127 68.8766 109.503 69.1116Z" fill="#008A44"/>
<path d="M96.2459 27.1485C97.2096 27.1016 97.3693 27.758 97.4398 28.5086C97.6984 30.6431 96.5936 32.2851 95.3479 33.7394C94.1021 35.1937 92.5038 36.8356 90.7174 37.9615C90.277 38.284 89.7383 38.4346 89.1945 38.3841C89.7586 36.8126 90.7409 35.4752 91.5871 34.0678C92.9741 31.6553 94.5341 29.3435 96.2459 27.1485Z" fill="#008643"/>
</mask>
<g mask="url(#mask0_4764_9091)">
<rect x="6.625" y="6.60278" width="242.259" height="242.255" fill="white"/>
</g>
<defs>
<filter id="filter0_b_4764_9091" x="-35" y="-35" width="326" height="326" filterUnits="userSpaceOnUse" color-interpolation-filters="sRGB">
<feFlood flood-opacity="0" result="BackgroundImageFix"/>
<feGaussianBlur in="BackgroundImageFix" stdDeviation="17.5"/>
<feComposite in2="SourceAlpha" operator="in" result="effect1_backgroundBlur_4764_9091"/>
<feBlend mode="normal" in="SourceGraphic" in2="effect1_backgroundBlur_4764_9091" result="shape"/>
</filter>
</defs>
</svg>
