<svg width="696" height="633" viewBox="0 0 696 633" fill="none" xmlns="http://www.w3.org/2000/svg">
<g clip-path="url(#clip0_5931_13145)">
<path d="M407.228 584.335L406.532 584.266L406.254 583.639L406.393 583.361L407.089 582.943L407.506 583.083L407.576 584.057L407.228 584.335ZM182.072 410.188L182.281 410.257V410.605L182.35 411.788L181.376 411.719L181.098 412.067L180.402 411.719L180.332 410.884L180.471 410.327L181.098 410.188H182.072Z" fill="#7C7C7C" stroke="white" stroke-width="2" stroke-linecap="round" stroke-linejoin="round"/>
<path d="M263.227 382.414L263.436 385.268L265.454 390.418L269.352 394.525L274.363 398.144L275.129 398.91L276.173 404.13V406.079L275.964 406.497L275.059 407.471L273.319 408.515L271.301 409.072L267.473 408.028L266.15 407.262L265.315 406.218L264.41 406.009L260.304 403.991L257.381 403.225L256.824 403.921L257.45 407.401L258.564 410.603L258.634 411.578L258.146 412.413L258.425 413.318L259.26 414.849V417.007L258.494 418.608L248.89 424.246L247.358 424.454L241.303 424.106L237.684 425.011V425.081L237.058 424.524L235.735 423.549L231.49 422.018L230.863 415.475L230.237 412.691L229.054 411.369L228.845 409.211L230.933 404.269L230.306 402.112L228.218 400.65L224.808 398.771L222.024 395.986L220.562 394.107L214.438 394.942L214.159 393.898L214.507 392.506L214.716 391.253L214.855 390.627L214.786 388.957L213.115 383.04V380.534L213.672 379.212L214.577 377.959L215.83 377.054L218.614 375.871L222.929 371.973L225.295 368.771L227.87 370.372L234.204 372.878L236.083 372.809L237.197 372.948L250.56 384.85H251.813L255.919 385.407L257.868 384.363L259.678 382.762L261.974 382.344L263.227 382.414Z" fill="#7C7C7C" stroke="white" stroke-width="2" stroke-linecap="round" stroke-linejoin="round"/>
<path d="M227.8 463.849L227.452 463.919L227.104 463.571L226.756 462.666L226.478 461.901L226.269 461.413L226.687 461.135L227.731 461.622L228.079 461.831L227.94 462.527L228.009 463.223L227.8 463.849ZM322.944 538.604L321.412 539.509L320.925 539.648L319.255 539.578L317.445 539.161L316.819 539.091L314.522 539.369L314.104 539.3L313.408 539.648L312.991 539.857L312.434 540.97L309.65 539.787L308.884 538.952L308.815 538.116L309.163 537.629L309.789 537.351L310.555 537.281H311.181L312.016 537.212L312.434 536.794L312.156 535.889L311.529 535.402L310.068 534.845L309.511 534.358L309.232 533.871L308.676 532.548L308.467 532.131L305.752 529.346L304.569 528.372L303.247 527.815L296.844 526.423L295.452 525.727L291.206 521.76L289.884 520.924L288.422 520.298L286.682 520.02L284.176 520.368L283.62 520.159L282.993 519.741L281.671 519.811L280.279 520.159L278.052 520.576L276.59 520.368L273.528 519.672L273.11 519.602L272.901 519.324L272.832 518.906L272.553 518.419L271.44 518.279L269.908 517.792L269.143 516.957L268.308 515.565L267.403 515.008L267.124 516.191L266.428 516.261L265.732 513.825L265.036 512.781L264.48 511.319L263.088 509.092L261.765 507.7L261.556 506.864L262.322 504.707V503.593L261.556 502.41L260.304 501.296L259.886 500.739L258.564 498.721L257.38 497.468L257.102 497.05L254.944 491.621L254.666 490.368L254.596 485.079L254.179 483.338L253.344 481.807L252.439 480.763L251.256 479.998L249.724 479.65L248.263 479.58L247.567 479.371L247.288 478.953L247.01 478.118L245.27 475.96L244.992 475.195L244.783 474.081L244.922 473.037L245.688 472.62L246.384 472.898L247.08 473.455L247.706 474.22L248.054 474.916L248.402 474.568L248.193 473.942L248.263 473.455L248.472 473.176L249.237 472.48L249.446 472.063L249.585 471.158L249.516 470.253L249.168 469.627L248.472 469.835L248.193 468.583L247.915 468.165L247.497 467.817L246.662 468.165L246.523 467.956L246.453 467.26L246.314 466.703L245.409 466.564L242.625 466.703L241.929 466.842L241.024 467.399L239.98 467.26L239.215 466.564L238.867 465.45L238.797 464.406L238.936 463.919L239.215 463.432L239.772 462.179L240.05 461.901L240.607 462.457L240.746 460.787L240.885 460.509L240.537 460.369L240.259 460.161L239.841 459.325L240.12 458.351V456.68L239.911 455.079L239.632 453.966L239.145 453.131L238.449 452.156L237.892 451.878V453.131L237.684 452.643L236.64 451.112L234.76 449.511L234.482 449.024L234.204 448.258L233.647 447.493L232.464 446.309L230.306 445.474L230.028 444.987L229.749 444.221L229.262 443.386L228.288 442.342L227.313 440.88L225.712 437.887L224.808 436.634L224.181 436.078L222.65 435.103L221.258 433.711L221.049 433.015L220.98 432.249L220.84 431.762H221.467L221.536 431.484L221.328 431.205L220.84 430.927L221.258 429.535L220.423 427.168L220.632 426.124L220.144 425.707L219.588 424.941L219.1 424.106L218.892 423.41L218.683 422.992L217.848 422.505L220.214 421.322L223.903 420.695L225.991 421.739L231.489 422.018L235.735 423.549L237.057 424.524L237.684 425.08V427.238L238.658 430.231L240.468 432.041L242.625 436.495L244.713 437.331L252.648 437.887L257.589 439.488L260.025 442.203L261.974 446.657L264.48 450.694L266.776 453.131L269.7 454.175L272.832 457.098L288.979 487.584L289.814 491.273L295.104 506.238L296.008 507.7L297.609 508.326L298.792 509.022L301.507 512.224L306.379 523.152L311.112 528.998L315.775 533.383L322.944 538.604Z" fill="#7C7C7C" stroke="white" stroke-width="2" stroke-linecap="round" stroke-linejoin="round"/>
<path id="kohkeloieh" d="M409.457 246.341L409.875 275.714L408.9 278.776L405.838 284.136L403.75 285.597L400.966 285.876L397.416 287.825L395.467 290.191L393.797 297.43L392.683 300.632L391.291 303.207L389.273 305.643L385.515 307.871L347.374 321.026L336.029 318.381L333.384 318.45L329.904 319.842L327.747 321.234L326.146 322.557L323.849 323.879L321.274 324.645L319.812 325.619L319.534 327.012L320.578 340.097L320.23 342.812L318.768 348.797L318.072 353.948L317.655 354.992L317.794 357.915L319.325 364.18H319.255L307.006 367.73H304.291L296.287 365.92L294.617 364.458L294.269 360.56L293.782 359.377L293.155 359.308L288.214 361.952L287.518 362.927L286.474 363.414L281.671 366.686L278.957 367.034L275.477 366.198L275.338 367.451L276.173 369.47L277.287 370.583L278.679 371.14L280.279 371.419L282.367 373.019L283.411 375.873L282.507 378.727L281.811 383.042L278.748 390.629L278.47 394.318L278.818 396.754V398.146L277.843 398.494L275.129 398.912L274.363 398.146L269.352 394.527L265.455 390.42L263.436 385.27L263.227 382.416L263.575 380.954L263.645 377.683L260.374 366.825L259.608 362.022L259.817 359.725L261 358.82L262.531 358.194L262.462 356.871L261.348 355.479L260.652 354.227L260.791 352.904L262.253 351.93L263.367 349.633L262.74 345.248L260.861 341.837L256.685 338.635L254.806 336.756L250.212 333.206L249.864 329.865L250.073 326.733L249.238 325.48L248.959 324.227L248.403 323.671L247.498 323.392L247.08 322.348L246.732 320.399L245.34 319.216L243.809 319.425L242.974 320.33L241.512 320.817L236.779 320.956L235.387 321.234L231.351 323.879L229.75 324.227L228.636 323.81L226.827 324.227L224.53 323.949L222.303 322.139L220.145 320.886L218.544 321.234L217.361 321.791L216.108 322L213.672 321.722L206.573 325.55L207.547 322.348L208.313 321.165L206.782 319.146L203.163 317.754L200.031 317.963L198.082 316.919L196.342 312.604V312.186L196.551 311.142L197.038 310.307L197.873 309.75L200.727 308.775L202.397 307.592L203.023 302.441L205.111 300.005L210.471 298.544L211.306 297.987L211.375 297.221L211.584 296.177L215.203 288.869L215.134 286.99L215.273 284.693L216.108 282.952L219.101 280.447L224.808 277.036L239.772 273.138L242.069 271.677L244.087 270.006L246.315 269.241H248.403L249.377 267.57L252.787 259.218L253.205 256.642L252.231 256.086L251.465 254.206L252.509 245.645L252.927 244.392L254.319 243L257.729 241.538L265.524 240.634L268.308 240.773L280.419 237.641L287.379 241.399L290.928 241.956L300.742 241.33L303.178 241.747L318.49 246.828L320.369 247.107L406.255 244.531L408.274 245.158L409.109 245.923L409.457 246.341Z" fill="#7C7C7C" stroke="white" stroke-width="2" stroke-linecap="round" stroke-linejoin="round"/>
<path d="M319.324 364.177L328.512 367.657L333.94 372.669L338.534 378.306L346.956 399.605L352.941 410.324L358.648 417.354L360.249 420.138L361.502 429.256L362.546 431.762L368.114 436.008L375.422 439.697V440.532L376.396 443.803L379.32 449.859L379.737 451.46L380.572 452.852L381.408 453.757L383.008 454.731L391.221 455.497L393.379 456.402L400.617 474.498L402.705 480.763V481.946L401.522 482.781L401.731 484.73L412.519 495.24L413.493 497.816L413.076 502.409L411.266 509.091L411.057 510.762L411.266 512.084L414.259 514.59L415.999 517.374L415.79 519.671L415.164 520.715L414.328 521.272L413.284 521.759L411.196 521.62L407.856 522.525L402.984 525.17L401.592 527.397L400.408 531.017L398.32 532.965L393.796 534.358L384.261 532.965L380.92 533.731L379.18 534.497L377.44 533.94L375.283 533.661L365.678 534.497L361.92 535.819L360.388 537.768L359.832 540.97L359.066 543.197V543.615L359.484 544.798L358.509 546.399L354.751 548.417L343.754 546.469H342.78L340.204 547.095L339.578 547.025L338.952 546.747L335.889 544.241L334.567 543.684L326.563 542.988L323.918 540.483L322.944 538.603L315.775 533.383L311.112 528.998L306.379 523.151L301.507 512.224L298.792 509.022L297.609 508.326L296.008 507.699L295.104 506.238L289.814 491.273L288.979 487.584L272.832 457.098L269.7 454.174L266.776 453.13L264.48 450.694L261.974 446.657L260.025 442.202L257.589 439.488L252.648 437.887L244.713 437.33L242.625 436.495L240.468 432.04L238.658 430.231L237.684 427.238V425.08V425.01L241.303 424.106L247.358 424.454L248.889 424.245L258.494 418.607L259.26 417.006V414.848L258.424 413.317L258.146 412.412L258.633 411.577L258.564 410.602L257.45 407.401L256.824 403.921L257.38 403.224L260.304 403.99L264.41 406.009L265.315 406.217L266.15 407.262L267.472 408.027L271.3 409.071L273.319 408.514L275.059 407.47L275.964 406.496L276.172 406.078V404.129L275.128 398.909L277.843 398.491L278.817 398.143V396.751L278.469 394.315L278.748 390.626L281.81 383.039L282.506 378.724L283.411 375.87L282.367 373.017L280.279 371.416L278.678 371.137L277.286 370.58L276.172 369.467L275.337 367.448L275.476 366.195L278.956 367.031L281.671 366.683L286.473 363.411L287.517 362.924L288.213 361.95L293.155 359.305L293.781 359.374L294.268 360.558L294.616 364.455L296.287 365.917L304.291 367.727H307.005L319.255 364.177H319.324Z" fill="#7C7C7C" stroke="white" stroke-width="2" stroke-linecap="round" stroke-linejoin="round"/>
<path d="M437.924 79.4315L438.202 82.6333L437.924 83.9557L438.063 85.6262L438.481 87.5055L438.411 88.6192L437.715 91.5425L437.785 93.6306L439.037 95.0923L440.708 95.9275L442.169 97.0412L442.865 99.8253L440.847 102.609L436.671 104.071L435.697 104.21L434.583 104.698L433.469 105.672L430.894 106.786L428.249 111.449L427.136 112.493L425.674 113.746L418.993 124.117L416 130.729L415.304 135.671L414.121 138.734L412.241 139.639L399.435 137.829L396.373 138.177L390.039 141.796L383.984 146.599L381.757 149.035L376.676 151.471L374.17 152.028L371.317 151.541L364.287 151.68L362.825 149.453L358.997 145.485L351.063 140.683L349.81 138.525L349.393 137.411V136.785L354.821 137.272L355.378 137.62L356.005 137.829L360.459 136.576L360.946 136.228L361.155 135.462V130.799L361.016 130.033L360.459 129.755L359.763 129.476L359.902 128.78L360.668 127.249L359.833 125.927L359.276 124.256L358.441 120.498L357.397 117.505L357.188 116.878L356.84 113.05L366.653 113.885H367.419L368.045 113.607L368.741 112.911L369.368 112.493L370.133 112.424L370.969 112.563H371.804L373.057 112.145L379.181 108.595L379.947 108.456L382.174 108.943H382.94L383.497 108.665L384.401 107.76L385.097 107.412L385.515 106.994L387.255 105.881L388.16 105.115L388.369 104.767L388.438 104.071L388.925 102.957L389.065 102.331V101.217L388.856 100.591L388.438 100.243L388.369 99.9645L388.299 98.9901L388.925 97.598L389.065 96.6932L389.273 95.9971L389.691 95.2315L390.805 94.0482L396.233 90.2896L397.904 88.4104L398.182 87.9231L398.321 87.2967L398.809 87.0879L399.713 86.8791L399.922 86.5311L400.34 85.6958L400.618 85.3478L401.314 85.0694L403.402 84.7214L403.889 84.5125L404.168 83.8165L405.003 83.3293L406.604 82.7725H407.021L407.787 82.146L408.483 81.7284L411.197 79.7099L412.033 79.2923L414.329 79.2227L421.429 77.6914H422.542L424.769 78.2482L426.161 79.0139L426.718 79.2227H428.528L429.154 79.4315L430.129 79.9187L430.616 80.1275H431.173L436.323 79.2227L437.785 79.3619L437.924 79.4315Z" fill="#7C7C7C" stroke="white" stroke-width="2" stroke-linecap="round" stroke-linejoin="round"/>
<path d="M349.392 136.784V137.41L349.81 138.524L351.062 140.682L358.997 145.484L362.825 149.452L364.286 151.679L360.667 152.793L357.674 154.533L354.96 157.247L353.707 159.753L352.872 162.398L352.315 166.017L350.923 167.688L347.234 170.959L346.399 172.212L345.982 173.326L345.077 174.509L343.546 175.901L340.97 177.293L338.256 178.128L336.446 178.407L335.263 177.78L333.384 178.407L331.087 179.729L329.417 180.216L325.798 180.564L325.241 180.843L322.039 178.616L320.438 178.198L319.255 178.894L317.376 179.172L314.662 178.616L310.555 176.388L307.284 175.762L304.709 174.718L302.342 174.37L299.071 177.015L294.408 182.653L291.902 183.697L289.049 183.488L287.309 182.861L286.195 182.235L284.942 180.704L282.854 176.806L279.166 172.839L274.294 170.89L268.795 170.402L264.898 168.105L262.531 165.391L256.615 164.068L255.154 163.442L253.762 162.12L253.135 161.215L250.838 160.31L244.853 159.127V158.222L244.435 156.969L238.589 152.514L236.57 151.47L227.035 143.327L228.845 142.143L231.072 138.176L231.838 134.487L233.299 133.025L235.178 132.051L236.431 130.311L236.779 128.988L238.519 130.172L239.215 130.38L239.772 130.589L240.816 131.772L241.373 132.19L247.01 135.322L252.23 139.011L255.223 140.334L265.246 142.352L271.649 144.231L278.33 145.415L284.734 147.294L291.415 146.389L297.331 144.231L303.526 142.7L309.929 141.447L316.054 140.194L322.178 138.385L328.164 136.505L340.066 133.861L341.736 133.582L355.865 132.747L358.44 132.12L360.18 130.659L360.11 132.399L358.092 133.095L355.517 133.373L353.916 133.93L353.429 134.139L352.942 134.069L351.967 133.791L351.41 133.861L350.436 134.209L349.879 134.348L347.722 134.069H345.912L346.19 134.557L346.678 134.765L347.861 134.696L346.886 134.974L347.722 136.157L349.183 136.784H349.392Z" fill="#7C7C7C" stroke="white" stroke-width="2" stroke-linecap="round" stroke-linejoin="round"/>
<path d="M456.088 144.58L456.784 144.372L457.968 144.441L459.429 145.346L460.264 148.826L459.36 153.002L457.898 155.787L457.341 160.659L458.037 169.081L459.151 174.44L460.195 176.946L468.686 183.906L471.052 186.621L470.496 189.753L464.232 200.542L462.7 204.091L461.656 204.927L454 207.78L449.964 210.217L445.3 214.532L439.524 221.701L426.578 243.487L422.611 245.575L413.424 245.366L410.083 245.993L409.456 246.271V246.341L409.108 245.923L408.273 245.158L406.255 244.531L320.368 247.106L318.489 246.828L303.177 241.747L300.741 241.329L290.928 241.956L287.378 241.399L280.418 237.64L281.601 235.9L283.202 232.142L284.176 228.313L284.246 224.764L283.759 223.024L283.898 221.144L285.012 217.595L286.891 214.741L287.308 212.026L285.708 209.103L281.601 203.674L281.323 201.795L281.601 199.776L282.228 197.131L282.715 193.024L283.341 192.398L284.037 192.746L284.455 193.164L285.22 193.442L287.378 193.512L289.327 195.252L295.939 199.289L298.514 200.194L301.298 200.263L309.372 202.63L312.295 202.769L316.401 201.377L319.951 199.498L325.658 194.277L326.841 190.24L326.354 185.786L325.24 180.844L325.797 180.565L329.416 180.217L331.087 179.73L333.384 178.408L335.263 177.781L336.446 178.408L338.256 178.129L340.97 177.294L343.545 175.902L345.076 174.51L345.981 173.327L346.399 172.213L347.234 170.96L350.923 167.689L352.315 166.018L352.872 162.399L353.707 159.754L354.96 157.248L357.674 154.534L360.667 152.794L364.286 151.68L371.316 151.541L374.169 152.028L376.675 151.471L381.756 149.035L383.983 146.599L390.038 141.796L396.372 138.177L399.434 137.829L412.24 139.639L414.12 138.734L415.303 135.671L415.999 130.729L418.992 124.117L425.673 113.746L427.135 112.493L432.633 119.802L435.139 121.611L436.6 121.333L438.34 122.098L437.923 123.143L435.835 123.769L434.93 124.465L434.721 125.161L435.139 125.996L435.348 127.18L435.139 130.242L434.512 132.957L434.373 133.861L435 135.254L439.315 140.056L443.352 143.606L445.37 144.232L448.85 144.859L450.59 145.555L456.088 144.58Z" fill="#7C7C7C" stroke="white" stroke-width="2" stroke-linecap="round" stroke-linejoin="round"/>
<path d="M325.242 180.842L326.355 185.784L326.842 190.238L325.659 194.275L319.952 199.496L316.402 201.375L312.296 202.767L309.373 202.628L301.299 200.261L298.515 200.192L295.94 199.287L289.328 195.25L287.379 193.51L285.222 193.44L284.456 193.162L284.038 192.744L283.342 192.396L282.716 193.023L282.229 197.129L281.602 199.774L281.324 201.793L281.602 203.672L285.709 209.101L287.31 212.024L286.892 214.739L285.013 217.593L283.899 221.142L283.76 223.022L263.298 210.771L254.598 208.127L244.297 208.057V207.918L247.429 197.825L247.359 194.763L246.454 192.953L244.784 190.865L245.758 188.638L248.055 187.245L249.934 184.879L250.978 182.234L254.18 182.025L254.598 179.867L254.737 177.014L256.894 174.508L259.818 173.464L262.741 173.812L264.759 172.559V170.053L264.898 168.104L268.796 170.401L274.294 170.889L279.166 172.838L282.855 176.805L284.943 180.703L286.196 182.234L287.31 182.86L289.05 183.487L291.903 183.696L294.409 182.652L299.072 177.014L302.343 174.369L304.71 174.717L307.285 175.761L310.556 176.387L314.662 178.615L317.377 179.171L319.256 178.893L320.439 178.197L322.04 178.615L325.242 180.842Z" fill="#7C7C7C" stroke="white" stroke-width="2" stroke-linecap="round" stroke-linejoin="round"/>
<path d="M509.194 315.177L509.402 318.448L509.124 319.771L508.15 321.372L507.523 322.903L507.802 323.877L508.289 324.852L509.402 326.035V327.358L510.516 329.724L511.978 332.091L511.908 334.457L511.073 336.824L510.725 338.912L510.168 340.861L505.366 347.334L504.043 351.023L500.354 356.8L498.475 361.602L497.918 362.438L459.36 345.803L454.766 345.037L454.001 346.22L452.33 347.96L444.813 352.206L442.308 354.921L423.168 365.013L421.567 368.493L421.149 381.718L420.593 384.641L414.468 387.356L407.717 388.261L404.724 387.704L400.13 387.495L379.946 391.114L376.745 394.664L375.074 397.796L374.309 400.859L374.378 402.947L376.397 406.775L378.554 412.343L379.389 416.52L380.573 417.912L381.686 418.747L381.269 432.25L381.617 434.617L382.104 436.217L382.173 437.401L381.06 438.236L377.371 438.654L377.023 439.002L375.422 439.698L368.114 436.009L362.546 431.763L361.502 429.257L360.249 420.139L358.649 417.355L352.942 410.325L346.956 399.606L338.534 378.307L333.941 372.669L328.512 367.658L319.325 364.178L317.794 357.914L317.654 354.99L318.072 353.946L318.768 348.795L320.23 342.81L320.578 340.095L319.534 327.01L319.812 325.617L321.274 324.643L323.849 323.877L326.146 322.555L327.746 321.232L329.904 319.84L333.384 318.448L336.029 318.379L347.374 321.024L385.514 307.869L389.273 305.641L391.291 303.205L392.683 300.63L393.797 297.428L395.467 290.189L397.416 287.823L400.965 285.874L403.749 285.595L405.837 284.134L408.9 278.774L409.874 275.712L409.457 246.339V246.269L410.083 245.991L413.424 245.365L422.611 245.573L426.578 243.485L439.524 221.699L454.21 217.802L468.547 211.05L477.595 208.684L481.562 209.728L492.072 217.802L493.325 220.586L492.838 223.37L489.358 226.781L475.09 236.943L472.654 241.328L468.06 255.04L467.782 262.348L470.009 274.877L471.749 277.521L478.848 278.426L488.035 276.269L489.636 278.217L491.028 281.002L493.742 299.168L496.039 304.528L499.102 306.268L500.006 306.964L502.303 308.008L505.366 309.957L508.289 314.481L509.194 315.177Z" fill="#7C7C7C" stroke="white" stroke-width="2" stroke-linecap="round" stroke-linejoin="round"/>
<path d="M263.227 382.415L261.974 382.345L259.677 382.763L257.867 384.364L255.919 385.408L251.812 384.851H250.559L237.196 372.949L236.083 372.81L234.203 372.879L227.87 370.373L225.295 368.773L226.617 366.267L228.566 363.831L228.635 361.882L227.591 359.515L224.529 356.244L223.833 354.991L222.093 353.39L220.979 351.58L219.866 349.075L218.891 345.525L218.404 344.411L217.847 343.785L216.107 343.228L215.62 342.671L214.715 341.975L213.811 340.862L212.697 338.008L207.268 329.377L206.711 326.802L206.572 325.549L213.671 321.721L216.107 321.999L217.36 321.79L218.543 321.233L220.144 320.885L222.302 322.138L224.529 323.948L226.826 324.226L228.635 323.809L229.749 324.226L231.35 323.878L235.387 321.233L236.779 320.955L241.511 320.816L242.973 320.329L243.808 319.424L245.339 319.215L246.731 320.398L247.079 322.347L247.497 323.391L248.402 323.669L248.959 324.226L249.237 325.479L250.072 326.732L249.863 329.864L250.211 333.205L254.805 336.755L256.684 338.634L260.86 341.836L262.739 345.247L263.366 349.632L262.252 351.928L260.791 352.903L260.651 354.225L261.347 355.478L262.461 356.87L262.531 358.193L260.999 358.819L259.816 359.724L259.607 362.021L260.373 366.824L263.644 377.682L263.575 380.953L263.227 382.415Z" fill="#7C7C7C" stroke="white" stroke-width="2" stroke-linecap="round" stroke-linejoin="round"/>
<path d="M196.342 312.602L198.082 316.918L200.03 317.962L203.162 317.753L206.782 319.145L208.313 321.164L207.547 322.347L206.573 325.549L206.712 326.801L207.269 329.377L212.698 338.008L213.811 340.861L214.716 341.975L215.621 342.671L216.108 343.228L217.848 343.785L218.405 344.411L218.892 345.525L219.866 349.075L220.98 351.58L222.094 353.39L223.834 354.991L224.53 356.244L227.592 359.515L228.636 361.882L228.566 363.83L226.618 366.267L225.295 368.772L222.929 371.974L218.614 375.872L215.83 377.055L214.577 377.96L213.672 379.213L213.115 380.535V383.041L214.786 388.957L214.855 390.628L214.716 391.254L214.507 392.507L214.159 393.899L214.438 394.943L220.562 394.108L222.024 395.987L224.808 398.771L228.218 400.651L230.306 402.112L230.933 404.27L228.845 409.212L229.054 411.37L230.237 412.692L230.863 415.476L231.49 422.019L225.991 421.741L223.903 420.697L220.214 421.323L217.848 422.506L216.943 422.089L215.621 421.949L214.298 422.158L212.976 422.645L201.701 429.884L200.378 430.441L199.195 430.163L198.221 428.701L198.151 428.005L198.082 426.126L197.803 425.43L197.316 424.594L196.968 424.386L196.272 424.177L195.506 424.107L194.323 424.316L193.906 424.386L193.488 424.316L192.931 423.898L192.653 423.829L191.887 423.968L190.565 424.525L189.799 424.664L188.894 424.594L188.546 424.246L188.616 422.506L187.99 422.019L187.85 421.81V420.975L188.059 420.349V420.07L187.572 419.792L187.363 420.488L187.015 421.184L186.458 421.741L185.902 421.81L185.206 421.393L184.927 420.836L184.51 420.418L183.883 420.349L183.048 420.07L180.682 418.678L180.194 418.26L179.986 416.868L179.359 416.033L178.385 415.546L177.202 415.268L177.619 414.571L178.246 414.432L179.707 414.641H180.473L181.656 414.223L182.282 414.084L183.048 414.293L184.51 415.059L184.997 415.268L185.832 415.337L186.389 415.616L186.876 416.033L187.363 416.66L187.572 416.103L188.268 414.92L189.312 413.527L189.521 413.11L189.59 412.344L188.825 412.553L188.268 412.205L187.92 411.509L187.642 409.978L187.224 410.186L186.667 410.813L186.11 411.23L186.18 410.674L186.389 410.395L186.041 409.908L185.762 409.978L185.414 410.256L184.858 410.395L184.649 410.256L184.301 409.63L184.022 409.49L183.257 409.838L182.561 409.699L181.934 409.49H181.308L180.682 409.838L179.429 409.63L178.385 410.256L178.106 411.091L179.081 411.579L180.194 411.787L181.099 412.344L181.378 413.11L180.682 413.806H180.055L178.106 413.527L177.689 413.667L175.74 415.546L175.322 416.172L175.114 416.729L175.531 417.077L175.044 417.912L175.253 418.817L175.879 419.513L176.645 420.07L177.202 420.697L177.55 421.462L177.758 422.367L177.967 424.246L177.898 424.734L177.55 425.638L177.48 426.126V426.543L177.689 427.309V427.796L177.48 428.631L176.993 429.327L176.366 429.884L175.601 430.093L173.165 429.815L172.538 430.093L171.842 429.745L169.337 429.815L167.806 428.91L167.249 428.84L167.11 429.536L167.318 430.023L167.806 430.789L167.875 431.416L167.806 431.764L167.527 432.181L166.901 432.668L166.066 432.877L162.934 432.599L161.82 432.32L161.263 431.972L160.776 431.555L160.358 431.068L160.08 430.232L160.01 429.675L159.314 427.657L159.036 427.17L158.34 426.334L157.853 425.36L157.783 425.082L157.853 424.594L158.479 423.968L158.758 423.62L158.827 423.133L158.758 422.715L158.34 421.949L156.948 420.627L155.834 419.305L155.069 418.121L154.721 417.773L154.303 417.634H153.886L152.563 417.843L151.658 417.773L151.31 417.634L150.962 417.286L150.823 416.938L150.545 415.059L150.197 414.154L149.779 413.319L149.153 412.692L148.387 412.344L144.559 411.787L144.49 410.534L144.629 390.349L144.559 389.793L144.142 389.584H132.31L132.518 372.183L138.017 357.218L138.226 356.244L138.156 355.339L137.669 354.573L136.207 353.529L135.65 352.833L135.302 351.789L135.094 351.441L134.885 351.163L134.189 350.745L133.98 350.397L132.658 348.1L132.518 347.334L132.17 346.569L130.918 345.942L130.361 345.316L129.526 343.437L128.969 342.671L129.943 342.323L133.702 339.817L135.024 337.729L134.537 335.015V332.857L137.112 329.238L140.453 321.512L142.402 318.588L147.343 305.642L149.292 304.18L158.131 303.554L160.706 302.788L164.534 302.51L168.223 303.623L170.102 305.433L172.33 306.06L180.264 306.895L188.686 312.672L193.766 313.159L196.342 312.602Z" fill="#7C7C7C" stroke="white" stroke-width="2" stroke-linecap="round" stroke-linejoin="round"/>
<path d="M133.075 245.993L133.98 246.41L135.511 247.385L136.277 248.498L151.728 258.66L159.732 259.635L161.055 260.122L162.099 259.844L163.978 257.895L164.952 257.686L166.831 257.756L169.198 257.477L179.011 261.723L178.455 262.628L178.176 264.02L178.663 265.203L178.803 266.178L177.341 269.519L177.063 270.493L176.854 271.537L177.341 272.442L179.151 273.486L181.517 274.391L185.554 274.739L186.598 275.087L189.451 273.277L190.147 272.581L191.331 268.753L192.931 267.848L194.95 267.152L196.759 266.178L198.708 266.804L200.309 268.683L201.283 270.354L201.353 271.537L200.727 272.79L200.379 274.043L200.727 275.087L201.91 276.061L204.555 277.453L205.807 278.776L206.921 279.611L207.756 279.054L208.035 277.941L208.731 276.548L209.983 275.644L210.749 276.131L211.375 277.175L212.489 278.08L213.255 278.845V280.098L213.463 281.351L215.76 282.604L216.108 282.952L215.273 284.692L215.134 286.989L215.203 288.868L211.584 296.177L211.375 297.221L211.306 297.986L210.471 298.543L205.111 300.005L203.023 302.441L202.397 307.592L200.727 308.775L197.873 309.749L197.038 310.306L196.551 311.141L196.342 312.185V312.603L193.767 313.16L188.686 312.673L180.264 306.896L172.33 306.06L170.103 305.434L168.223 303.624L164.535 302.511L160.707 302.789L158.131 303.555L149.292 304.181L147.343 305.643L142.402 318.589L140.453 321.512L140.035 321.095L139.27 320.051L133.493 307.8L129.247 302.232L128.064 300.91L127.577 300.631L126.881 300.422L126.394 299.935L125.698 298.543L124.863 297.569L124.445 297.36H123.888L123.471 297.221L123.262 296.664L122.844 296.177L118.459 294.019L116.928 293.601L116.023 293.045L115.327 292.348V291.792L114.701 291.513L112.961 290.121L112.543 289.773H112.056L111.847 289.982L111.43 289.912L111.151 289.425L109.829 289.008L109.133 288.659L108.715 288.242L108.228 287.685L108.089 287.337L108.507 286.571L108.576 286.154L108.437 285.736L108.089 285.597L106.14 284.414L105.375 284.135L104.4 282.952L103.287 282.326L102.451 280.864L101.895 280.585V280.237L102.451 278.567L102.521 277.941L103.147 277.662L103.774 277.593L104.539 275.574L106.767 273.486L119.364 269.936L120.13 268.892L122.079 267.57L122.983 266.665L123.471 265.69L123.61 264.298L123.331 262.21L122.496 260.261L122.009 259.565L122.635 259.148L123.123 258.312L122.983 257.964V257.477L123.053 256.711L122.983 256.224L122.844 255.807L122.357 255.319L122.287 254.902L122.496 254.275L124.584 253.231L127.159 253.092L128.899 252.187L129.108 249.751L128.76 247.385L128.899 246.41L129.526 245.993L130.57 245.645L133.075 245.993Z" fill="#7C7C7C" stroke="white" stroke-width="2" stroke-linecap="round" stroke-linejoin="round"/>
<path d="M122.009 259.564L122.496 260.26L123.331 262.209L123.61 264.297L123.471 265.689L122.983 266.663L122.079 267.568L120.13 268.89L119.364 269.935L106.767 273.484L104.539 275.572L103.774 277.591L103.147 277.661L102.521 277.939L102.451 278.565L101.895 280.236V280.584L102.451 280.862L103.287 282.324L104.4 282.95L105.375 284.134L106.14 284.412L108.089 285.595L108.437 285.734L108.576 286.152L108.507 286.57L108.089 287.335L108.228 287.683L108.715 288.24L109.133 288.658L109.829 289.006L111.151 289.423L111.43 289.911L111.847 289.98L112.056 289.772H112.543L112.961 290.12L114.701 291.512L115.327 291.79V292.347L116.023 293.043L116.928 293.6L118.459 294.017L122.844 296.175L123.262 296.662L123.471 297.219L123.888 297.358H124.445L124.863 297.567L125.698 298.542L126.394 299.934L126.881 300.421L127.577 300.63L128.064 300.908L129.247 302.231L133.493 307.799L139.27 320.049L140.035 321.093L140.453 321.511L137.112 329.237L134.537 332.856V335.014L135.024 337.728L133.702 339.816L129.943 342.322L128.969 342.67L128.899 342.601L128.203 342.322L127.647 342.253L127.09 341.417L126.603 341.139L126.046 341L125.767 340.791L125.837 339.886L125.976 339.399L126.394 338.633V338.007L126.255 337.45L125.559 336.893L125.35 336.406L124.793 335.988L123.819 334.596L122.775 333.552L122.357 332.786L122.844 331.603L123.123 331.116V330.559L122.914 330.281L121.939 329.515L121.313 328.749L120.895 328.123L120.478 327.566L119.712 327.149L117.624 326.453H117.137L115.467 327.357L114.84 327.566L113.587 327.705L112.474 327.497L111.36 326.87L110.177 326.035L99.389 316.569L97.8579 314.898L95.4914 313.437L93.8906 312.114L90.4106 310.096L89.3666 309.052L85.8171 307.312L81.9891 306.128L77.7435 306.616L75.5859 306.337L74.8203 304.667L75.3075 304.11L75.8643 303.623L76.4211 303.066L76.6299 302.37L76.4907 301.743L75.9339 301.326L75.2379 300.978L73.7067 300.838L73.1499 300.421L73.2195 299.864L73.9155 299.446L74.7507 299.377L75.3075 299.446L75.9339 299.307L76.6995 298.75L77.6739 297.776L78.1611 297.149L78.3699 296.593V296.245L77.9523 295.966L77.8131 295.549V295.201L78.0219 294.365V293.948L77.7435 293.252L77.1867 292.695L76.0731 291.79L74.6115 289.772L73.4283 288.588L73.2195 287.962V287.266L73.0803 286.361L72.8019 285.526L72.3843 284.83L71.2011 283.298L70.6443 283.02L70.2267 283.159L69.6003 283.786L68.4867 283.925L67.4427 283.646L66.8163 283.159L67.3731 282.394L69.1131 281.349L69.5307 280.653L69.2523 279.749L68.4867 279.192L67.8603 278.565L67.9995 277.243L67.2339 277.452H65.4939L64.8675 277.73L63.8235 278.705L63.1971 279.122L62.5707 279.261L62.3619 278.983V277.452L62.2227 277.104L63.0579 276.477L63.8235 270.213L65.1459 265.828L65.5635 263.044L65.0763 261.443L65.7027 260.608L67.8603 260.677L73.4283 259.981L78.7874 262.209L81.7107 262.417L84.6339 263.113L87.0002 264.575L89.6451 266.872L98.6931 269.795L102.939 270.143L109.063 268.542L114.701 268.821L115.397 267.359L115.954 264.575L115.397 263.461L114.423 262V260.608L120.199 259.285L121.383 259.424L122.009 259.564Z" fill="#7C7C7C" stroke="white" stroke-width="2" stroke-linecap="round" stroke-linejoin="round"/>
<path d="M397.904 599.717L397.626 599.926L397.139 600.065L396.652 599.647L396.373 599.021L396.93 598.742L397.556 598.533L397.696 598.881L397.904 599.717ZM379.878 598.255L379.53 598.533L379.043 598.464L378.486 598.185L378.347 597.698L378.764 597.489L379.669 597.211L379.808 597.559L379.878 598.255ZM378.904 584.195H378.695L377.86 583.847L377.651 583.638L377.512 582.316L377.651 581.829L377.929 581.55L378.208 581.411L378.556 581.481L378.904 581.829L379.182 581.968L379.53 582.316L379.669 582.594L378.904 584.195ZM361.712 574.451L361.295 574.659L358.372 574.52L357.188 573.963L356.492 572.711L356.84 572.154L357.397 571.806L358.024 571.597H358.72L359.346 571.806L360.668 571.945L361.156 572.154L361.295 572.432V573.128L361.782 573.476L361.852 573.963L361.712 574.451ZM427.972 569.23L427.206 569.648L426.649 569.3L426.719 568.395L427.206 567.49L427.763 567.073L428.111 567.003L428.389 567.421L428.459 568.326L427.972 569.23ZM347.723 567.421L347.236 567.908L346.609 567.769L345.983 567.49L345.635 567.003L345.913 566.516H346.609L347.444 566.794L347.723 567.421ZM337.77 561.992L337.213 562.131L335.821 561.992L335.404 562.131L334.777 562.479H334.081L331.993 562.131L331.367 561.852L330.81 561.504L329.696 560.53L329.348 560.182L329.488 560.043L330.392 559.834L333.455 560.739L336.1 560.948L337.004 561.296L337.77 561.992ZM445.58 560.53L444.188 561.017L443.562 560.739L443.701 559.625L444.188 558.929L445.093 558.511L446.485 558.372L446.694 559.625L445.58 560.53ZM438.133 557.815L437.298 559.625L436.88 560.321L435.419 561.852L435.14 562.409L434.862 562.688L433.47 563.384L433.192 563.801L432.844 563.941L431.104 565.681L430.06 566.307L429.224 565.959L428.389 565.124L427.484 564.428L425.118 565.681L424.422 566.237L423.726 566.585H422.96L421.36 566.377L420.594 566.516L419.828 566.864L417.949 568.256L415.931 569.161L414.678 570.066L414.052 570.414L411.824 570.622L410.224 571.04L409.597 571.527L409.249 571.597L408.553 571.458H408.205L407.857 572.015L407.44 572.293L406.674 572.432L406.396 572.223L406.256 571.806L406.048 570.762L406.326 570.066L406.396 569.648L406.187 569.439L405.839 568.186L406.187 567.769L407.927 568.326L408.275 568.186L408.623 568.256L410.502 567.212L415.304 565.611L416 565.541L416.627 565.333L418.297 564.289L418.993 563.732L421.36 562.757L422.473 562.827L423.1 562.688L423.448 562.34L423.796 562.27L423.517 561.713L424.074 561.087L424.213 560.321L424.074 558.511L423.796 557.815L423.169 557.189L422.543 556.771L422.334 556.423L423.239 555.867L428.25 557.815L429.642 557.467L433.4 555.031L438.133 553.918H439.595L440.291 554.126L441.196 554.474L441.961 555.101L442.309 555.867L441.126 556.493L438.899 557.119L438.133 557.815ZM449.269 552.178L448.712 552.247L447.599 551.829L447.668 550.785L448.295 549.881L448.921 549.741L449.756 550.159L450.104 550.437L450.244 551.064L450.104 551.551L449.756 551.899L449.269 552.178ZM534.947 593.87L534.529 594.079L533.903 595.123L533.694 596.376L533.833 597.072L534.32 597.281L535.643 598.116L542.464 604.171L543.577 606.051L543.786 607.512L544.552 608.348L545.665 608.765L546.222 609.461L546.5 610.296L546.988 610.923L547.614 611.549L548.867 613.707L549.145 614.055L549.841 614.403L549.702 615.656L548.728 616.074L548.936 617.048L546.918 617.326L544.83 618.301L544.064 618.51L543.786 618.44L543.299 618.022L542.255 618.301L541.489 618.231L540.724 618.092L540.167 617.883L539.68 617.466L538.009 614.821L537.104 613.707L535.712 613.081H534.46L534.112 612.941L533.624 611.828L533.207 611.689H530.075L523.532 610.505L521.305 610.853L519.356 610.784L518.73 610.436L518.939 609.809L517.895 609.879L516.781 610.088L516.294 610.366L515.459 611.062L514.902 611.201L514.345 610.923L513.649 611.549L513.301 611.619L512.605 611.41L511.352 612.315L510.03 612.524L508.847 612.245L507.733 611.897L506.55 611.689L505.576 611.271L504.74 610.227L503.696 607.93L502.583 606.538L501.191 606.19L499.729 606.607L498.268 607.373L497.015 608.348L496.249 608.835H495.692L495.832 607.095L496.11 606.259L496.04 605.981L495.692 605.076L495.136 604.589L494.37 604.38L493.465 604.311L492.63 604.45L490.681 604.867L490.194 604.798L489.498 604.45L489.011 604.311L488.663 604.38L487.549 604.589L486.644 604.519L484.208 603.754L484.487 603.545L479.684 603.197L479.128 602.918L478.849 602.292L478.64 600.343L477.805 598.325L477.318 596.654L477.04 595.889L475.856 594.496H475.091L474.882 593.8L474.395 592.408L474.256 591.712L473.908 590.947L473.838 590.459L474.047 589.624L475.16 588.441L475.578 587.606L475.091 586.353L472.724 583.708L472.933 582.594L472.655 582.385L472.446 580.576L472.168 579.671L471.75 578.905L471.054 578.279L470.776 577.583L470.636 576.33L471.263 571.318L471.124 569.439L468.827 560.043L468.34 559.347L467.087 558.303L466.669 557.607L466.739 556.98L465.625 556.215L465.208 555.867H465.764L466.948 555.31L466.669 555.031L466.6 554.614L466.948 553.918L465.834 554.405L465.486 554.474L465.138 554.405L464.79 553.987L464.442 553.778L464.024 553.361L463.259 553.709L463.05 553.57L462.98 552.804L462.563 552.943L462.284 552.734V552.386L462.841 552.108L463.468 551.412L463.746 551.203V550.855L462.702 550.716L461.867 550.159L461.24 549.324L461.032 548.419L460.614 548.837L460.127 548.976H459.152L458.665 548.837L458.039 548.001L457.691 547.862L454.002 547.792L453.167 547.514L452.888 547.862L452.053 547.375L450.94 547.166L448.712 547.027L447.668 546.818L445.789 546.052L444.606 545.913L442.448 545.983L441.265 546.331L440.43 546.888L439.664 547.236L437.368 547.375L436.393 547.514L436.115 547.723L435.488 548.349L435.28 548.976L434.862 549.185L433.888 549.881L431.452 551.342L430.616 552.108V552.247L429.781 552.943L429.364 553.082L427.763 553.291L426.301 553.639L425.884 553.709L424.7 553.639L424.283 553.709L423.726 554.126L423.448 554.196H422.056L420.942 553.918H420.594L419.898 554.196L418.715 555.379L417.88 555.936L415.931 558.094L416.418 557.885L416.905 557.537L417.044 558.511L416.836 559.764L416.418 560.878L415.931 561.713L414.748 562.757L413.356 563.453L411.894 563.732L410.224 563.662L407.37 562.618L405.7 562.409L404.308 563.036L403.89 563.801L403.681 564.567L403.333 565.054L402.498 565.263L401.802 565.402L400.201 565.82L399.644 566.098L397.348 568.186L396.93 568.465L393.45 571.249L389.552 573.546L388.787 574.242L388.439 574.381L387.952 574.311L387.395 573.894L386.977 573.824L383.845 574.103L382.314 573.894L381.688 572.989L381.2 571.806L380.156 570.762L378.556 570.483L375.284 570.622L373.962 569.996L373.336 568.952L372.779 567.629L372.152 566.446L371.039 565.541L370.273 565.402L369.577 565.541L368.881 565.681L366.167 565.889L365.401 565.82L362.896 565.124L361.921 564.845L361.225 564.289L360.947 564.149H360.529L359.833 564.289L357.467 565.402L355.796 565.681L354.335 566.098H353.5L351.899 565.541L351.064 565.472L350.228 565.959L349.741 565.82L347.862 564.149L345.148 562.548L341.668 559.904L341.18 559.277L340.972 558.511L340.902 556.563L340.554 555.797L339.997 555.031L338.814 554.335L326.564 550.159L325.799 550.089L325.033 549.811L324.546 549.324L324.128 548.628L323.711 548.071L321.553 547.584L321.205 547.166L320.927 546.261L320.161 545.844L318.56 545.356L315.637 542.711L314.384 541.876L312.436 540.971L312.992 539.858L313.41 539.649L314.106 539.301L314.524 539.37L316.82 539.092L317.447 539.162L319.256 539.579L320.927 539.649L321.414 539.51L322.945 538.605L323.92 540.484L326.564 542.99L334.568 543.686L335.891 544.243L338.953 546.748L339.58 547.027L340.206 547.096L342.781 546.47H343.756L354.752 548.419L358.511 546.4L359.485 544.8L359.068 543.616V543.199L359.833 540.971L360.39 537.77L361.921 535.821L365.68 534.498L375.284 533.663L377.442 533.941L379.182 534.498L380.922 533.733L384.263 532.967L393.798 534.359L398.322 532.967L400.41 531.018L401.593 527.399L402.985 525.171L407.857 522.526L411.198 521.622L413.286 521.761L414.33 521.274L415.165 520.717L415.792 519.673L416 517.376L414.26 514.592L411.268 512.086L411.059 510.763L411.268 509.093L413.077 502.411L413.495 497.817L412.52 495.242L401.732 484.732L401.524 482.783L402.707 481.948V480.764L400.619 474.5L403.681 474.709L410.154 476.588L413.425 479.094L414.956 481.182L416.557 482.296L418.158 483.061L419.968 482.574L427.206 477.145L431.452 475.126L432.496 474.987L433.54 476.519L434.236 492.11L433.331 495.172L434.096 499.209L437.298 503.316L440.36 506.17L444.049 508.397L448.364 509.093L450.661 508.675L454.907 506.587L458.804 502.829L459.918 501.506L461.519 500.184L463.468 500.253L467.226 502.133L467.504 502.759L467.226 506.935L468.548 513.269L469.036 514.174L469.732 514.8L470.845 514.94L472.724 515.914L474.186 517.793L475.021 519.394L476.622 521.204L478.292 523.71L478.501 525.728L477.527 526.563L476.9 527.816L477.736 529L478.64 529.487L479.615 531.505L480.728 534.707L481.842 549.811L482.608 552.178L493.744 558.094L496.18 559.904L497.224 560.252L498.964 558.651L499.799 557.398L501.26 556.423L503.627 556.493L506.132 557.955L508.777 560.252L510.935 562.688L511.979 564.915L511.631 565.681L509.404 564.289H508.638L508.568 565.054L509.473 567.699V568.674L509.264 569.37L508.638 570.205L508.151 571.388L507.316 579.253L507.524 580.437V581.62L507.107 583.847L506.341 584.752L506.411 585.518L511.213 585.239L514.136 585.726L516.085 585.587L517.338 584.961L518.591 585.239L519.983 585.866L522.21 586.214L522.906 586.701L522.836 587.118L522.488 587.815L522.558 588.65L522.976 589.485L523.045 590.738L523.672 591.852L525.133 592.2L526.943 592.269L528.474 592.06L529.518 590.947L530.562 590.668L531.954 591.225H532.998L533.485 591.643L534.947 593.87Z" fill="#7C7C7C" stroke="white" stroke-width="2" stroke-linecap="round" stroke-linejoin="round"/>
<path d="M166.135 65.0229L166.344 65.5102L167.527 66.4846L168.223 67.4591L168.432 68.3639L169.336 68.7119L170.659 68.9903L171.216 69.6168L170.937 70.452L162.794 80.1269L162.028 81.867L161.75 84.3031L160.567 86.1128L160.497 88.6185L163.838 97.8062L169.754 107.203L171.772 109.291L174.069 111.1L175.252 112.632L175.322 113.885L175.113 115.903L175.461 118.27L175.809 119.383L173.443 118.061L172.12 118.478L170.728 119.453L169.406 119.244L168.432 118.687L167.736 118.966L167.248 119.731V120.497L166.761 121.332L165.717 121.541L163.003 118.687L161.541 118.13L160.497 118.409L159.453 117.991H159.175L158.618 117.017L158.131 116.738H156.878L156.321 116.947L156.043 117.365H155.764L156.043 116.46L154.372 115.068L153.607 114.302L151.449 112.841L150.475 110.613L150.196 107.342L149.222 106.507L146.577 105.115L145.812 104.975L145.603 105.115L142.053 102.887L141.009 97.9454L141.288 93.7692L142.123 92.0987L142.471 90.7763L142.123 90.0106L139.687 87.7833L136.833 83.8855L135.024 79.3613L134.815 75.7419L133.771 72.3313L131.265 71.0785L123.122 72.2617L122.078 72.1225L121.591 71.7049L120.477 70.5912L118.18 70.9392L116.44 71.5657L116.023 70.1736L116.162 67.8071L116.928 66.1366L117.832 64.9533L118.946 62.7956L121.869 60.7075L123.331 59.037L125.836 58.341L128.412 58.7586L130.152 57.5754L129.456 55.2784L127.576 54.2344L127.507 52.9119L128.899 51.1718L129.247 48.0397L127.159 42.8194L127.089 39.3392L126.532 38.5736L127.02 33.2837L125.558 32.7269L123.261 34.815L120.825 36.2767L119.364 36.1375L116.649 38.0168L112.543 45.1859L113.03 45.9516L113.587 46.1604L113.1 46.7172L110.872 48.4573L109.55 50.3366L108.019 51.5199L102.66 49.9886L100.293 50.6846L97.7877 52.0071L95.3517 52.9119L93.4725 51.8679L92.498 49.3621L93.0548 46.5084L94.5165 44.5595L95.4908 44.0027L95.8388 43.3066L97.1613 43.1674L99.11 43.6547L99.5973 43.237L99.806 41.9146L99.8756 40.5921L99.9453 39.8961L100.711 39.8265L102.312 41.2185L103.912 40.8705L105.374 40.0353L107.601 39.7569L110.733 37.5992L111.499 36.5551L111.708 35.7199L111.847 34.815L111.151 32.0309L110.664 31.0564L109.55 30.4996L109.063 29.9428L108.993 29.4555L108.854 29.3859L108.576 28.4811L108.854 28.3419L109.411 27.5066L110.037 25.7666L111.29 23.6784L111.429 23.1912L111.777 22.8432L113.517 21.7295L117.067 20.3375L118.598 19.5022L119.781 18.2494L121.591 15.9525L122.774 14.978L124.236 14.1428L126.741 13.3075L127.576 13.1683L128.064 12.8899L129.943 10.941L134.954 8.08725L137.042 5.92954L137.738 5.44232L138.573 5.23351L141.288 5.30311L141.775 5.1639L142.123 4.81588L142.54 4.18945L143.028 4.32866L143.724 4.81588L145.951 6.90399L152.006 14.1428L154.442 16.4397L155.486 17.8317L156.252 19.5022L154.999 19.9895L153.05 21.2423L150.823 21.6599L149.64 22.356L148.596 23.3304L147.9 24.6529L147.83 26.2538L148.317 27.5066L149.222 28.7595L151.24 30.7084L153.328 31.6132L153.816 32.1005L154.929 34.467L155.138 35.0238V35.6503L154.929 36.3463L154.651 36.9031L154.303 37.4599L152.841 38.3648L146.16 39.548L146.09 39.8265L145.951 40.4529L144.072 41.6362L143.724 42.193L143.863 44.0723L144.559 45.3947L146.925 47.274L151.658 49.6406L152.076 49.9886L152.354 51.1022L152.215 51.9375L152.284 52.7727L154.024 54.1648L154.581 55L155.277 55.6265H156.391L158.2 54.7912H159.036L159.453 55.7657L159.662 57.0185L160.149 57.645L160.706 58.1322L161.332 59.1066L161.959 59.7331L162.446 60.4987L163.838 62.2388L164.812 63.9093L165.926 65.0229H166.135Z" fill="#7C7C7C" stroke="white" stroke-width="2" stroke-linecap="round" stroke-linejoin="round"/>
<path d="M244.783 190.866L246.454 192.954L247.358 194.764L247.428 197.826L244.296 207.919L243.252 209.38L242.069 212.791L241.442 219.542L241.025 221.213L240.329 221.631L236.64 222.883L232.186 223.579L230.028 225.041L226.896 225.946L223.625 225.459L221.606 227.129L221.537 229.983L222.302 231.027L221.885 231.932L218.544 233.811L218.196 236.108L220.145 238.335L221.746 239.797L223.068 240.424L224.46 240.284L225.574 240.911L226.618 242.164L227.174 243.416L227.035 245.226L227.87 247.384L229.541 249.472L231.907 251.49L241.234 252.326L244.922 254.344L253.205 256.641L252.787 259.216L249.377 267.569L248.402 269.239H246.314L244.087 270.005L242.069 271.676L239.772 273.137L224.808 277.035L219.101 280.446L216.108 282.951L215.76 282.603L213.463 281.35L213.254 280.098V278.845L212.489 278.079L211.375 277.174L210.749 276.13L209.983 275.643L208.73 276.548L208.034 277.94L207.756 279.053L206.921 279.61L205.807 278.775L204.554 277.453L201.91 276.061L200.726 275.086L200.378 274.042L200.726 272.789L201.353 271.536L201.283 270.353L200.309 268.683L198.708 266.803L196.759 266.177L194.95 267.151L192.931 267.847L191.33 268.752L190.147 272.58L189.451 273.276L186.598 275.086L185.554 274.738L181.517 274.39L179.15 273.485L177.341 272.441L176.854 271.536L177.062 270.492L177.341 269.518L178.802 266.177L178.663 265.202L178.176 264.019L178.454 262.627L179.011 261.722L182.77 258.312L183.396 257.476L183.535 256.432L182.839 253.648L182.63 251.212L182.074 248.846L179.498 243.834L179.22 239.24L178.594 236.456L176.784 235.76L176.297 234.507L177.55 234.02L181.238 234.438L182.909 235.203L183.744 234.994L183.118 231.653L183.257 228.591L184.162 226.99L184.649 225.459L184.231 222.883L185.136 221.491L191.678 221.143L194.81 221.7L195.646 222.953L194.88 224.624L195.437 226.572L196.829 228.313L198.012 229.357L199.613 229.496L200.448 227.756L199.682 223.023L198.778 220.865L197.038 218.777L195.228 217.872L191.33 216.828L189.73 215.993L188.894 215.227L188.825 214.601L189.451 213.835L190.565 213.696L192.583 213.069L194.323 211.051L193.906 209.032L192.305 206.318L191.609 203.394L192.722 201.933L193.697 201.863L193.836 202.698L193.766 203.812L194.462 204.787L195.715 205.065L196.898 203.673L197.038 202.002L196.202 200.889L195.924 199.288V198.244L202.258 198.105L203.302 195.599L204.833 194.485L211.166 192.536L213.046 191.631L214.994 191.005L216.665 190.935L223.138 188.151L225.226 188.012L226.339 188.151L227.87 188.499L231.49 188.778L235.039 189.752L237.127 191.631L238.032 192.188L238.38 191.562V190.796L236.988 188.847L237.475 187.664H239.494L240.886 189.335V191.771L241.094 193.232L242.138 193.093L243.113 191.005L244.783 190.866Z" fill="#7C7C7C" stroke="white" stroke-width="2" stroke-linecap="round" stroke-linejoin="round"/>
<path d="M283.76 223.022L284.248 224.762L284.178 228.312L283.204 232.14L281.603 235.899L280.42 237.639L268.309 240.771L265.525 240.632L257.73 241.536L254.32 242.998L252.928 244.39L252.51 245.643L251.466 254.204L252.232 256.084L253.206 256.64L244.924 254.344L241.235 252.325L231.908 251.49L229.542 249.471L227.872 247.383L227.036 245.225L227.176 243.416L226.619 242.163L225.575 240.91L224.461 240.284L223.069 240.423L221.747 239.796L220.146 238.335L218.197 236.107L218.545 233.81L221.886 231.931L222.304 231.026L221.538 229.982L221.608 227.129L223.626 225.458L226.897 225.945L230.029 225.04L232.187 223.579L236.641 222.883L240.33 221.63L241.026 221.212L241.444 219.542L242.07 212.79L243.253 209.38L244.297 207.918V208.057L254.598 208.127L263.298 210.772L283.76 223.022Z" fill="#7C7C7C" stroke="white" stroke-width="2" stroke-linecap="round" stroke-linejoin="round"/>
<path d="M152.215 187.107L153.398 189.265L155.069 190.309L162.794 190.587L165.926 192.258L168.919 193.023L171.634 192.049L172.956 190.239V189.473L174.626 188.777L178.594 188.847L181.586 190.518L182.909 192.258L181.865 193.928L184.301 195.807L188.894 196.573L189.938 196.364L195.019 197.617L195.924 198.244V199.288L196.202 200.888L197.038 202.002L196.898 203.673L195.715 205.065L194.462 204.786L193.766 203.812L193.836 202.698L193.697 201.863L192.722 201.932L191.609 203.394L192.305 206.318L193.906 209.032L194.323 211.051L192.583 213.069L190.565 213.695L189.451 213.835L188.825 214.6L188.894 215.227L189.73 215.992L191.33 216.828L195.228 217.872L197.038 218.777L198.778 220.865L199.682 223.022L200.448 227.755L199.613 229.495L198.012 229.356L196.829 228.312L195.437 226.572L194.88 224.623L195.646 222.953L194.81 221.7L191.678 221.143L185.136 221.491L184.231 222.883L184.649 225.458L184.162 226.99L183.257 228.591L183.118 231.653L183.744 234.994L182.909 235.203L181.238 234.437L177.55 234.02L176.297 234.507L176.784 235.76L178.594 236.456L179.22 239.24L179.498 243.834L182.074 248.845L182.63 251.212L182.839 253.648L183.535 256.432L183.396 257.476L182.77 258.311L179.011 261.722L169.198 257.476L166.831 257.755L164.952 257.685L163.978 257.894L162.098 259.843L161.054 260.121L159.732 259.634L151.728 258.659L136.277 248.497L135.511 247.384L133.98 246.409L133.075 245.992L133.702 244.808L135.024 242.79L138.574 242.511L142.61 243.347L143.724 242.442L143.654 240.423L144.002 237.57L143.654 235.76L142.958 234.716L142.123 234.925L140.522 235.621L137.39 238.822L136.486 237.43L135.998 235.621L135.024 235.133L133.841 234.855L131.196 233.463L129.317 231.932L128.969 230.192L129.526 229.495L130.639 229.078L134.258 228.66L135.929 226.155L137.39 222.953L138.574 221.561L138.782 220.377L138.713 219.681L139.826 219.125L142.054 218.429L143.376 217.733L143.724 216.48L144.42 216.34L145.603 219.194L146.369 219.612L147.552 218.568L148.805 216.549L149.57 213.278L148.526 209.171L146.508 207.153L145.046 206.178L143.237 204.021L139.409 195.39L136.903 191.631L137.46 190.518L139.339 188.429L140.174 188.29L141.845 191.84L142.958 192.188L144.142 191.631L145.186 190.657L147.761 189.752V188.638L147.343 187.664L146.23 186.341L145.603 184.532L146.926 184.184L152.215 187.107Z" fill="#7C7C7C" stroke="white" stroke-width="2" stroke-linecap="round" stroke-linejoin="round"/>
<path d="M175.809 119.383L181.238 122.863L185.275 127.039L186.806 129.545L188.894 136.923L185.971 137.967L182.073 140.542L180.612 143.953L181.377 146.807L183.257 149.243L184.44 152.166L185.623 153.976L187.433 154.881L188.546 154.95L189.242 155.298L189.869 156.064L190.843 156.551L191.469 157.804L192.096 160.031L193.209 161.841L194.045 163.72L194.601 168.454L193.766 169.637L187.224 171.446L183.605 173.535L181.377 175.971L181.169 177.78L181.238 178.268L177.967 176.736L175.601 176.597L172.329 177.502L170.311 178.964L169.058 179.242L167.457 179.312L166.344 179.52L165.648 180.077L165.717 181.4L170.311 185.576L172.956 189.474V190.239L171.633 192.049L168.919 193.024L165.926 192.258L162.794 190.587L155.069 190.309L153.398 189.265L152.215 187.107L151.867 186.133L151.171 184.88L150.545 184.323L140.592 178.268L140.105 177.084L140.731 175.483L142.123 173.952L142.889 170.75L142.958 166.157L142.262 163.651L141.497 163.512L141.427 163.233L141.705 162.607L141.775 162.328L141.497 161.215L141.566 160.867L141.984 160.519L141.636 159.962L141.218 159.127L140.87 158.152L140.731 157.247L140.522 156.76L139.339 155.507L139.2 155.298L121.104 151.679L120.06 150.635L115.049 139.498L114.84 138.037V135.809L115.536 134.417L120.965 128.849L122.496 126.343L123.609 125.578L125.976 124.394L127.925 122.306L129.177 121.541L130.43 120.984L141.775 119.661L145.185 120.218L147.482 119.801L156.113 120.705L158.827 119.661L160.08 118.687L160.497 118.409L161.541 118.13L163.003 118.687L165.717 121.541L166.761 121.332L167.249 120.497V119.731L167.736 118.965L168.432 118.687L169.406 119.244L170.729 119.453L172.121 118.478L173.443 118.061L175.809 119.383Z" fill="#7C7C7C" stroke="white" stroke-width="2" stroke-linecap="round" stroke-linejoin="round"/>
<path d="M227.034 143.326L236.569 151.47L238.587 152.514L244.434 156.969L244.851 158.222V159.126L236.29 158.222L232.254 158.5L231.21 160.101L233.019 162.607L234.342 163.79L236.917 164.555L238.587 165.948L237.404 169.845L235.734 173.395L235.246 175.066L234.063 176.249L226.755 179.799L224.806 181.748L224.319 183.488L224.598 184.81L225.572 186.898L226.338 188.151L225.224 188.012L223.136 188.151L216.663 190.935L214.993 191.005L213.044 191.631L211.165 192.536L204.831 194.485L203.3 195.599L202.256 198.104L195.922 198.244L195.018 197.617L189.937 196.364L188.893 196.573L184.299 195.807L181.863 193.928L182.907 192.258L181.585 190.518L178.592 188.847L174.625 188.777L172.954 189.473L170.31 185.576L165.716 181.399L165.646 180.077L166.342 179.52L167.456 179.311L169.057 179.242L170.31 178.963L172.328 177.502L175.599 176.597L177.966 176.736L181.237 178.267L181.167 177.78L181.376 175.97L183.603 173.534L187.222 171.446L193.765 169.637L194.6 168.453L194.043 163.72L193.208 161.841L192.094 160.031L191.468 157.804L190.842 156.551L189.867 156.064L189.241 155.298L188.545 154.95L187.431 154.881L185.622 153.976L184.438 152.166L183.255 149.243L181.376 146.807L180.61 143.953L182.072 140.542L185.97 137.967L188.893 136.923L192.303 138.593L192.373 139.359L192.86 140.751L194.878 143.326L197.036 145.414L201.978 146.876L203.857 146.807L204.97 147.015L205.736 147.572L209.007 148.199L210.817 147.92L217.568 144.231L218.334 143.953L219.099 143.535L222.092 142.909L227.034 143.326Z" fill="#7C7C7C" stroke="white" stroke-width="2" stroke-linecap="round" stroke-linejoin="round"/>
<path d="M53.9413 37.9469L49.7653 42.4712L48.9301 44.3505L47.8861 49.2923L48.3733 51.9372L49.3477 54.3734L49.2781 56.6703L47.9557 59.1064L41.7613 65.5099L39.7429 68.9205L39.3253 70.939L39.8125 72.4703L42.1093 75.5328H42.3877V76.1593L42.8749 76.7857L43.0837 77.1337L43.2925 77.969L43.3621 78.4562L43.1533 78.9434L43.0837 80.4051L44.3365 92.7249L45.1021 93.6993L45.3109 94.2562L45.5893 97.0403L45.4501 97.2491L44.7541 97.7363L44.6149 98.2236L44.8933 98.9196L45.3805 99.8941L45.5893 100.66L48.0253 103.583L48.9301 105.671L48.5125 111.309L48.9997 113.745L50.3221 115.764L60.8317 122.724L65.4949 123.559L69.3925 123.629L74.3341 128.153L74.9605 129.336L79.4149 131.912L81.0157 133.304L82.6861 134L83.7301 133.304L84.2869 132.399L84.4261 131.981L84.9829 130.728L86.1661 129.197L88.3237 127.805L90.0637 127.457L90.9685 127.527L91.9429 126.622L93.4741 125.578L95.1445 125.856L96.2581 127.039L97.6501 127.944L99.5293 128.362L100.643 129.336L100.782 130.241L100.364 130.937L101.756 135.113V138.106L103.009 139.986L106.559 140.473L115.05 139.498L120.061 150.635L119.156 150.913L118.112 151.609L117.973 152.445L118.252 153.21L118.043 153.906L117.416 155.159L115.885 156.899L113.171 158.083L109.134 157.735L105.376 156.691L103.984 155.716L103.357 155.09L102.661 154.463L102.174 153.767L101.896 153.21L101.478 152.862L82.8253 154.602L73.7773 153.35L70.6453 154.533L69.8797 155.577L69.8101 157.735L68.0701 160.38L62.2237 162.259L61.1101 163.442L60.6925 164.208L59.9269 164.973L59.4397 167.201L57.4213 169.428L56.8645 170.89L55.4029 172.282L54.2197 173.047L53.3845 172.769H52.4797L51.2269 173.395L50.6005 173.604L49.9045 174.091L49.0693 174.37L48.3037 174.231L47.6773 173.604L47.3989 172.839L47.6773 171.934L48.0949 171.029L48.5125 170.333L48.6517 169.428L48.2341 168.523L47.1205 167.061L46.9117 166.157L46.9813 164.068L46.8421 163.233L46.2853 162.676L45.6589 162.189L45.4501 161.632L46.2853 161.076L45.6589 160.171L45.3805 159.405L45.3109 157.526L45.1021 156.482L44.7541 155.368L44.1277 154.533L43.2229 154.463L41.2045 155.298L40.1605 155.368L39.1861 154.881L38.7685 154.394L38.3509 153.002L37.5157 151.888V151.261L37.0285 150.774L36.3325 150.148L35.8453 149.452L35.9149 148.756L36.6109 148.408L36.6805 147.433L37.0285 145.902L37.7245 144.301L37.7941 143.466L37.4461 142.491L36.5413 140.891L35.9845 140.125L35.4277 139.846L34.9405 139.777L34.5229 139.707L34.1749 139.429L33.3397 138.594L32.8525 138.524L31.7389 138.594L30.7645 138.385L30.0685 137.898L29.7901 137.132L30.2077 136.018L31.4605 134.417L31.9477 133.652L32.1565 132.538L31.9477 131.564L31.6693 130.798L31.4605 130.032L31.6693 128.78L32.0173 128.292L32.0869 127.805L31.8781 127.387L31.0429 126.97L30.6253 126.552L30.4165 126.413H30.0685L29.3725 126.622L29.0245 126.552L28.8157 126.343L28.5373 125.369L27.7717 124.951L27.5629 124.673L27.2149 123.838V123.42L27.7021 122.098L27.9805 121.262L27.7021 120.497L27.4237 119.731L27.2845 118.826L27.4933 117.991L27.9805 117.643L28.4677 117.295L28.8853 116.738L29.0245 115.276L28.1893 114.372L26.1013 113.049L25.8229 112.423L25.6141 111.796L25.2661 111.379L23.9437 111.518L23.6653 111.17L23.1085 109.847L22.5517 109.43L21.2293 109.36L20.7421 109.082L20.5333 108.316L21.0205 106.924L20.6725 105.254L20.7421 104.14L20.9509 103.026L21.2989 102.121L21.1597 101.356L20.3245 100.729L19.6285 99.8941L19.7677 98.502L20.0461 98.0844L21.2989 97.1099L21.7165 96.4835L21.5773 96.0659L20.2549 94.465L19.4197 93.6993L18.3757 93.2121L17.4013 93.3513L16.9141 93.5601L16.3573 93.769H15.8701L15.5917 93.2121L15.8005 92.2377L15.7309 91.9593L15.4525 91.7505L14.9653 91.8897L14.6869 91.82L14.3389 91.3328L13.9909 90.2192L13.7821 89.8016L13.3645 89.5231L12.1117 88.8967L11.6245 88.7575L9.32767 89.0359L8.07487 88.8271L7.44847 87.8527L7.58767 87.2958L8.28367 86.391L8.21407 85.7645L8.07487 85.1381L8.14447 84.5813L8.35327 84.0245L8.97967 82.7716L9.88447 81.7971L10.1629 81.1011L10.4413 80.1267L10.7893 79.5002L11.2765 79.1522L11.9725 78.8042L12.1813 78.5258L11.9029 77.6905V77.2729L12.2509 76.9945L12.8773 76.7161L13.1557 76.3681L13.3645 75.7416L13.5733 74.8368L13.7125 73.9319L13.5733 71.7046L14.5477 70.591L15.8701 69.5469L16.7053 68.3637L16.6357 67.6676L16.4269 66.902L15.9397 66.2756L15.4525 65.8579L14.8957 65.6491L14.4085 65.7187L13.2253 66.4148L11.4157 66.1364L10.5805 65.6491L10.4413 65.2315L10.5805 64.0483L10.5109 62.865V62.3778L10.9285 60.4985L10.9981 59.7328L10.6501 57.3663L10.8589 55.5566V54.5822L10.5805 53.8165L10.0237 53.3293L9.39727 53.1205L8.97967 52.9117L9.04927 52.6333L9.39727 52.2853L9.53647 51.9372L9.32767 51.102L9.18847 50.6148L9.11887 49.9883L9.25807 49.0835L10.2325 45.7425L10.0237 44.3505L8.14447 43.4456L7.58767 42.8888L7.10047 42.1928L6.47407 40.4527V39.6174L5.84767 39.1302L5.63887 38.7822L5.49967 38.0861L5.15167 37.3901L5.70847 36.5549L6.26527 36.0676L6.61327 35.5108L6.26527 33.7011L6.47407 32.9355L7.17007 31.5434L6.89167 30.4298L5.49967 29.3857L3.89887 28.5505L2.92447 27.8544V27.4368L3.13327 26.6016V26.1839L2.71567 25.2791L2.57647 24.4439L2.64607 23.8174L2.22847 22.9126L2.01967 21.9381L1.88047 21.4509L0.906066 20.3373L0.697266 19.7804L1.11487 19.2236L1.81087 18.7364L2.36767 18.5276H2.92447L3.75967 18.5972L4.59487 18.5276L6.54367 18.0403L7.37887 18.1099L9.88447 19.3628L10.7893 19.4324L11.5549 19.2236L13.4341 18.3884L14.1301 17.9011L14.7565 16.9267V16.0914L14.6173 15.2562L14.8261 14.2121L15.1741 13.6553V13.0985L14.9653 11.8456L15.0349 11.08L15.2437 10.4536L16.4269 8.01743L16.6357 7.391L16.7053 6.69497L16.5661 5.16369L16.7053 4.60686L20.5333 1.4747L21.4381 1.19629L21.9949 1.61391L22.8997 3.07558L23.4565 3.63241L25.5445 4.60686L26.2405 5.23329L29.2333 7.391L29.3029 7.4606L29.9293 7.87823L30.6949 8.01743H31.5301L31.3213 8.36545L32.0869 8.92228L32.5045 9.96633L33.5485 14.421L34.0357 15.3954L34.7317 16.0218L34.4533 16.6483L34.5925 16.9267L35.4973 17.6227L36.4021 17.6923L36.6805 18.2491L38.0029 19.154L38.6293 20.198L38.9773 20.6853L39.3253 20.8245L39.6037 21.3117L40.5085 23.2606L41.0653 24.235L41.4133 26.532L41.6221 27.228L42.5965 26.9496L46.3549 28.2024L46.9813 27.7848L47.3293 27.8544L47.4685 28.1328L47.3293 28.9681L47.6773 29.1073L48.1645 29.2465L48.6517 29.5249L48.8605 30.0121L48.5821 30.7082L48.7909 31.1954L49.4869 31.613L49.7653 31.961L50.2525 33.3531L50.3917 33.7707L50.7397 33.9795L51.5749 34.3972L51.7837 34.6756L51.7141 35.1628L51.4357 35.9284L51.5053 36.4157L51.9229 36.9725L52.6885 37.4597L53.5237 37.8773L53.9413 37.9469Z" fill="#7C7C7C" stroke="white" stroke-width="2" stroke-linecap="round" stroke-linejoin="round"/>
<path d="M160.498 118.409L160.08 118.688L158.827 119.662L156.113 120.706L147.483 119.801L145.186 120.219L141.775 119.662L130.431 120.985L129.178 121.541L127.925 122.307L125.976 124.395L123.61 125.578L122.496 126.344L120.965 128.85L115.536 134.418L114.84 135.81V138.037L115.049 139.499L106.558 140.474L103.008 139.986L101.755 138.107V135.114L100.363 130.938L100.781 130.242L100.642 129.337L99.5282 128.363L97.649 127.945L96.257 127.04L95.1434 125.857L93.473 125.578L91.9418 126.622L90.9674 127.527L90.0626 127.458L88.3226 127.806L86.165 129.198L84.9818 130.729L84.425 131.982L84.2858 132.4L83.729 133.304L82.685 134L81.0146 133.304L79.4138 131.912L74.9594 129.337L74.333 128.154L69.3914 123.629L65.4938 123.56L60.8306 122.725L50.321 115.764L48.9986 113.746L48.5114 111.31L48.929 105.672L48.0242 103.584L45.5882 100.66L45.3794 99.8947L44.8922 98.9202L44.6138 98.2242L44.753 97.737L45.449 97.2497L45.5882 97.0409L45.3098 94.2568L45.101 93.7L44.3354 92.7255L43.0826 80.4057L43.1522 78.944L43.361 78.4568L43.2914 77.9696L43.0826 77.1343L42.8738 76.7863L42.3866 76.1599V75.5334H42.1082L39.8114 72.4709L39.3242 70.9396L39.7418 68.9211L41.7602 65.5105L47.9546 59.107L49.277 56.6709L49.3466 54.374L48.3722 51.9378L47.885 49.2929L48.929 44.351L49.7642 42.4718L53.9402 37.9475L54.497 38.1563L55.2626 38.574L55.6802 38.6436L56.6546 38.7132L58.7426 39.2004H61.9442L64.589 40.314L72.1754 41.9149L74.5418 42.959L76.6298 43.5158L79.4138 43.0982L80.0402 42.8198L81.9194 41.4973L82.6154 41.1493L83.1026 41.0101L84.4946 40.9405L85.3298 40.6621L85.7474 40.5925L86.2346 40.7317L89.993 42.4022L90.6194 42.611L91.2458 42.5414L92.081 42.2629L92.6378 41.8453L93.1946 41.4277L93.6818 40.8709L94.0994 40.1748L95.1434 38.0867L95.561 37.4603L96.257 36.9035L98.345 35.8594L98.9018 35.3026L99.5282 33.8409L99.9458 33.2145L100.851 32.6577L101.338 32.1008L102.243 30.4999L102.73 29.9431L103.287 29.4559L103.913 29.1775H104.47L105.444 29.5951L106.001 29.7343L106.419 29.6647L108.576 28.4814L108.855 29.3863L108.994 29.4559L109.063 29.9431L109.551 30.4999L110.664 31.0568L111.151 32.0312L111.847 34.8154L111.708 35.7202L111.499 36.5555L110.734 37.5995L107.602 39.7572L105.375 40.0356L103.913 40.8709L102.312 41.2189L100.711 39.8268L99.9458 39.8964L99.8762 40.5925L99.8066 41.9149L99.5978 43.2374L99.1106 43.655L97.1618 43.1678L95.8394 43.307L95.4914 44.003L94.517 44.5599L93.0554 46.5088L92.4986 49.3625L93.473 51.8682L95.3522 52.9123L97.7882 52.0074L100.294 50.685L102.66 49.9889L108.019 51.5202L109.551 50.337L110.873 48.4577L113.1 46.7176L113.587 46.1607L113.031 45.9519L112.543 45.1863L116.65 38.0171L119.364 36.1378L120.826 36.277L123.262 34.8154L125.559 32.7273L127.02 33.2841L126.533 38.574L127.09 39.3396L127.159 42.8198L129.247 48.04L128.899 51.1722L127.507 52.9123L127.577 54.2347L129.456 55.2788L130.152 57.5757L128.412 58.759L125.837 58.3414L123.331 59.0374L121.87 60.7079L118.947 62.796L117.833 64.9537L116.928 66.137L116.163 67.8074L116.023 70.174L116.441 71.566L118.181 70.9396L120.478 70.5916L121.591 71.7052L122.079 72.1229L123.123 72.2621L131.266 71.0788L133.771 72.3317L134.815 75.7422L135.024 79.3616L136.834 83.8859L139.687 87.7836L142.123 90.011L142.471 90.7766L142.123 92.0991L141.288 93.7696L141.01 97.9458L142.054 102.888L145.603 105.115L145.812 104.976L146.578 105.115L149.223 106.507L150.197 107.342L150.475 110.614L151.45 112.841L153.607 114.303L154.373 115.068L156.043 116.46L155.765 117.365H156.043L156.322 116.948L156.879 116.739H158.131L158.619 117.017L159.175 117.992H159.454L160.498 118.409Z" fill="#7C7C7C" stroke="white" stroke-width="2" stroke-linecap="round" stroke-linejoin="round"/>
<path d="M138.711 219.682L138.781 220.378L138.572 221.562L137.389 222.954L135.927 226.156L134.257 228.661L130.638 229.079L129.524 229.497L128.967 230.193L129.315 231.933L131.194 233.464L133.839 234.856L135.022 235.134L135.997 235.622L136.484 237.431L137.389 238.823L140.521 235.622L142.122 234.926L142.957 234.717L143.653 235.761L144.001 237.571L143.653 240.424L143.722 242.443L142.609 243.348L138.572 242.512L135.022 242.791L133.7 244.809L133.074 245.993L130.568 245.645L129.524 245.993L128.898 246.41L128.758 247.385L129.106 249.751L128.898 252.187L127.158 253.092L124.582 253.231L122.494 254.275L122.286 254.902L122.355 255.319L122.842 255.807L122.982 256.224L123.051 256.712L122.982 257.477V257.964L123.121 258.312L122.634 259.148L122.007 259.565L121.381 259.426L120.198 259.287L114.421 260.609V262.001L115.395 263.463L115.952 264.577L115.395 267.361L114.699 268.823L109.062 268.544L102.937 270.145L98.6912 269.797L89.6432 266.874L86.9984 264.577L84.632 263.115L81.7088 262.419L78.7856 262.21L73.4264 259.983L67.8584 260.679L65.7008 260.609L65.0744 261.445L65.5616 263.045L65.144 265.83L63.8216 270.215L63.056 276.479L62.2208 277.105L62.0816 276.827L60.4112 275.574L59.8544 275.017L59.3672 274.321L59.0192 273.625L58.7408 272.86L58.6016 271.955L58.3232 271.259L57.836 270.771L57.2792 270.284L56.792 269.727L53.5904 263.881L53.3816 263.811L52.3376 263.95L51.3632 263.881L50.5976 263.393L49.832 262.349L50.5976 262.001L51.224 261.445L51.7808 260.261L52.1288 259.148L52.4768 258.173L53.3816 257.408L53.9384 256.851L55.4 255.667L55.748 255.18V254.693L55.2608 253.927L55.1216 253.44L55.1912 253.023L55.6784 252.187L55.8176 251.839L56.3048 249.751L56.3744 248.638L56.2352 247.663L55.6784 246.828L54.9128 246.341H54.0776L53.3816 246.897L52.6856 246.41L52.268 245.505L51.1544 241.886L51.5024 241.329L53.3816 240.912L53.8688 240.355L54.2864 239.728V238.406L54.008 236.666L54.1472 235.413L55.5392 235.83L56.792 236.527L57.9056 236.805L60.4112 236.944L61.1768 237.292L61.3856 237.223L61.5944 236.457L61.664 235.97L61.5248 235.691L61.1072 235.134L61.0376 234.438L60.968 233.603L60.8984 232.768L60.3416 232.002L60.1328 231.167L59.8544 230.819L59.228 230.401L58.7408 229.775L59.0192 229.079L59.9936 227.965L60.1328 227.408L59.9936 226.573L60.1328 226.016L60.4808 225.529L60.968 225.32L61.9424 225.251L62.9864 224.555L63.1256 223.441L63.056 222.327L63.3344 221.492H64.1696L65.2136 222.049L66.188 222.397L66.7448 221.631L67.0232 220.587L67.3016 219.752L67.4408 218.917L67.0928 217.803L66.9536 217.177V216.62L67.1624 216.133L67.5104 215.715L68.276 215.576L68.5544 215.297L68.4848 214.532L68.972 213.697L69.2504 213.627L69.8072 213.766L70.5728 214.253L70.9208 214.462L71.408 214.393L72.452 214.88L73.0088 214.741L73.5656 214.253L74.54 213.627H74.888L75.5144 213.766L76.4192 213.488L76.9064 213.349L77.2544 213.14L77.5328 212.652L76.8368 211.748L77.324 210.495L78.0896 209.172L78.2288 208.059L77.672 207.571H76.28L75.7928 207.223L75.6536 206.527L76.0016 205.971L76.4192 205.414L76.628 204.996L77.6024 205.344L84.4928 210.704L93.1232 222.606L94.6544 223.65L95.4896 223.58L95.6288 224.485L95.3504 225.808V227.548L96.6032 228.87L98.7608 228.592L101.962 229.009L104.398 228.661L105.79 227.896L105.93 226.434L106.695 225.529L107.809 225.32L108.574 224.415L108.644 223.163L109.062 222.188L110.593 221.701L112.75 219.404L114.978 219.195L116.37 219.334L117.135 218.917L117.344 216.063L117.692 215.158L122.842 214.81L124.095 213.697L124.234 212.235L123.608 210.912L123.956 210.077L125 210.147L126.462 211.4L130.568 213.279L136.066 219.474L137.598 219.752L138.711 219.682Z" fill="#7C7C7C" stroke="white" stroke-width="2" stroke-linecap="round" stroke-linejoin="round"/>
<path d="M236.78 128.987L236.432 130.31L235.179 132.05L233.3 133.024L231.838 134.486L231.072 138.175L228.845 142.142L227.036 143.325L222.094 142.908L219.101 143.534L218.336 143.952L217.57 144.23L210.819 147.919L209.009 148.198L205.738 147.571L204.972 147.014L203.859 146.806L201.98 146.875L197.038 145.414L194.88 143.325L192.862 140.75L192.375 139.358L192.305 138.592L188.895 136.922L186.807 129.544L185.276 127.038L181.239 122.862L175.81 119.382L175.462 118.268L175.114 115.902L175.323 113.883L175.253 112.63L174.07 111.099L171.773 109.289L169.755 107.201L163.839 97.8048L160.498 88.6171L160.568 86.1114L161.751 84.3017L162.029 81.8656L162.795 80.1255L170.938 70.4506L171.216 69.6154L170.66 68.9889L169.337 68.7105L168.432 68.3625L168.224 67.4576L167.528 66.4832L166.344 65.5087L166.136 65.0215L167.806 65.1607L168.641 64.8823L169.616 64.4647L170.52 63.9079L171.286 63.2118L172.052 62.7246L173.235 62.7942L175.532 63.2814L175.671 67.3184L175.253 68.6409L175.462 69.6154L175.532 72.0515L176.228 73.722L176.715 79.3598L178.246 84.6497L177.968 85.5546L177.898 86.5986L178.037 87.5731L178.316 88.2691L179.638 90.3572V90.7748L179.429 91.5405L179.847 93.3501L180.612 95.0206L182.422 97.8048L184.858 100.31L187.433 102.19L193.28 105.252L195.994 106.157L209.775 108.036L211.306 107.758L212.489 107.271L213.672 107.062L214.925 107.758L214.577 107.828L214.02 107.619L213.742 108.036L216.735 109.22L221.398 110.264L223.068 110.96L224.252 112.004L224.112 113.674L224.391 114.301L224.878 115.902L225.226 116.598L225.713 117.363L226.548 119.799L227.662 121.609L228.915 122.792L231.49 124.811L233.3 126.969L233.856 127.247L234.552 127.456L236.78 128.987Z" fill="#7C7C7C" stroke="white" stroke-width="2" stroke-linecap="round" stroke-linejoin="round"/>
<path d="M152.216 187.107L146.926 184.184L145.604 184.532L146.23 186.341L147.344 187.664L147.761 188.638V189.752L145.186 190.657L144.142 191.631L142.959 192.188L141.845 191.84L140.175 188.29L139.34 188.429L137.46 190.518L136.904 191.631L139.409 195.39L143.237 204.021L145.047 206.178L146.508 207.153L148.527 209.171L149.571 213.278L148.805 216.549L147.552 218.568L146.369 219.612L145.604 219.194L144.42 216.34L143.724 216.48L143.376 217.733L142.054 218.429L139.827 219.125L138.713 219.681L137.6 219.751L136.068 219.473L130.57 213.278L126.464 211.399L125.002 210.146L123.958 210.076L123.61 210.911L124.236 212.234L124.097 213.696L122.844 214.809L117.694 215.157L117.346 216.062L117.137 218.916L116.372 219.333L114.98 219.194L112.752 219.403L110.595 221.7L109.064 222.187L108.646 223.162L108.576 224.415L107.811 225.319L106.697 225.528L105.932 226.433L105.792 227.895L104.4 228.66L101.964 229.008L98.7627 228.591L96.6052 228.869L95.3524 227.547V225.807L95.6307 224.484L95.4916 223.579L94.6564 223.649L93.1252 222.605L84.4948 210.703L77.6044 205.343L76.6299 204.995L76.6995 204.786L76.4212 203.533L75.5859 202.489L73.5675 200.749L71.2708 197.06L70.8532 195.738L70.9228 194.972L71.4099 194.485L71.5492 194.137L70.9923 192.884L70.6444 192.049L70.9923 191.979L72.1059 192.327L72.1755 191.701L71.8275 189.961V189.265L71.9668 188.499L72.2452 187.803L72.7323 187.246L73.4284 187.037L76.0035 187.107L76.6995 186.898L78.5092 185.993L79.9012 186.063L80.6668 185.924L81.2235 185.437L81.7108 184.671L82.8244 183.975L83.3812 183.488L83.7988 182.722L83.8684 182.026L83.5899 181.469L83.0332 181.052L82.2675 180.982L81.5715 181.26L81.0148 181.678L80.3188 181.956L78.7875 182.304H78.0219L77.2563 182.026L76.7692 181.539L76.6299 181.191L76.4212 180.286L74.8899 179.659H74.2635L73.7068 179.868L73.0108 180.286L72.3148 180.495L70.0179 180.425L68.8348 180.843L67.7212 180.634L66.8859 181.4L66.1899 181.748L65.4243 181.817L64.8675 181.4L64.4499 181.33L63.1275 181.748L62.4315 181.539L62.0139 180.982L61.1092 178.685L59.4388 176.318L58.3252 175.274L57.3508 175.135L56.9332 174.787L55.5412 173.604L54.2188 173.047L55.4019 172.281L56.8635 170.889L57.4203 169.428L59.4388 167.2L59.9259 164.973L60.6915 164.207L61.1092 163.442L62.2228 162.259L68.0692 160.379L69.8092 157.734L69.8788 155.577L70.6444 154.533L73.7764 153.349L82.8244 154.602L101.477 152.862L101.895 153.21L102.173 153.767L102.66 154.463L103.356 155.089L103.983 155.716L105.375 156.69L109.133 157.734L113.17 158.082L115.884 156.899L117.416 155.159L118.042 153.906L118.251 153.21L117.972 152.444L118.112 151.609L119.156 150.913L120.06 150.635L121.104 151.679L139.2 155.298L139.34 155.507L140.523 156.76L140.732 157.247L140.871 158.152L141.219 159.126L141.636 159.962L141.984 160.518L141.567 160.866L141.497 161.214L141.776 162.328L141.706 162.607L141.428 163.233L141.497 163.511L142.263 163.651L142.959 166.156L142.889 170.75L142.124 173.952L140.732 175.483L140.105 177.084L140.592 178.267L150.545 184.323L151.172 184.88L151.868 186.133L152.216 187.107Z" fill="#7C7C7C" stroke="white" stroke-width="2" stroke-linecap="round" stroke-linejoin="round"/>
<path d="M593.409 257.684L593.827 261.512L594.871 268.125L594.801 269.795L593.688 272.301L593.409 273.763L594.244 276.895L596.541 279.122L599.464 280.305L602.248 280.514L604.893 280.375L606.285 280.445L607.538 280.793L608.095 281.071L608.652 281.628L609 282.254L608.652 282.811L608.164 283.02L606.424 283.159L605.798 283.577L605.728 284.203L605.868 285.665L605.659 286.5L605.311 286.987L604.128 287.753L603.084 288.658L599.952 292.904L596.263 297.915L596.054 298.542L596.124 301.883L596.611 304.667L600.16 316.569L602.944 326.035L605.728 336.545L605.659 339.956L605.172 343.366L604.963 344.062L603.988 345.315L603.71 345.942L603.849 346.22L604.406 346.638L604.058 347.542L604.128 347.96L604.476 348.865L604.545 349.77L604.267 352.415L604.336 354.433L604.824 358.401L604.406 361.533L604.476 362.507L605.032 364.526L605.45 368.493L606.633 368.98L616.377 370.442L617.004 372.878L616.516 377.959L614.22 383.527L612.48 389.653L611.714 400.65L611.853 403.852L613.732 411.926L613.663 413.248L613.106 414.083L611.853 414.571L606.981 414.779L604.058 412.204L598.351 404.13L593.966 400.859L590.625 399.954L589.79 399.327L588.537 397.935L586.519 397.587L559.584 405.244L558.4 405.801L544.063 384.85L538.912 381.022L497.918 362.438L498.475 361.602L500.354 356.8L504.043 351.023L505.365 347.334L510.168 340.86L510.724 338.912L511.072 336.823L511.908 334.457L511.977 332.09L510.516 329.724L509.402 327.357V326.035L508.288 324.852L507.801 323.877L507.523 322.903L508.149 321.371L509.124 319.771L509.402 318.448L509.193 315.177L510.098 314.133L511.629 311.488L512.812 306.407L517.824 298.82L529.168 291.303L530.769 289.632L532.509 286.779L532.788 285.526L533.832 283.507L528.403 279.54L528.055 278.287L527.707 277.243L526.872 276.686L525.828 275.712L525.688 273.832L526.245 271.396L527.15 269.169L527.289 267.429L526.872 265.549L527.637 262.348L527.985 259.424L526.593 257.197L526.384 256.014L526.941 254.761L528.82 254.065L534.597 254.761L538.286 255.944L539.26 255.179L540.304 254.065L550.953 252.464L554.294 250.515L558.052 249.123L560.001 250.794L563.481 256.571L568.214 258.241L590.625 258.172L593.409 257.684Z" fill="#7C7C7C" stroke="white" stroke-width="2" stroke-linecap="round" stroke-linejoin="round"/>
<path d="M593.409 257.686L590.625 258.173L568.214 258.243L563.481 256.572L560.001 250.795L558.052 249.125L554.294 250.517L550.953 252.466L540.304 254.067L539.26 255.18L538.286 255.946L534.597 254.763L528.82 254.067L526.941 254.763L526.384 256.015L526.593 257.199L527.985 259.426L527.637 262.349L526.871 265.551L527.289 267.43L527.15 269.171L526.245 271.398L525.688 273.834L525.827 275.713L526.871 276.688L527.707 277.245L528.055 278.289L528.403 279.541L533.831 283.509L532.787 285.527L532.509 286.78L530.769 289.634L529.168 291.304L517.823 298.822L512.812 306.408L511.629 311.489L510.098 314.134L509.193 315.178L508.288 314.482L505.365 309.958L502.303 308.009L500.006 306.965L499.101 306.269L496.039 304.529L493.742 299.17L491.027 281.003L489.635 278.219L488.035 276.27L478.847 278.428L471.748 277.523L470.008 274.878L467.781 262.349L468.059 255.041L472.653 241.329L475.089 236.944L489.357 226.782L492.837 223.371L493.324 220.587L492.071 217.803L481.562 209.729L477.595 208.685L468.547 211.052L454.209 217.803L439.523 221.701L445.3 214.532L449.963 210.216L454 207.78L461.656 204.926L462.7 204.091L464.231 200.541L470.495 189.753L471.052 186.621L468.686 183.906L460.195 176.946L459.151 174.44L458.037 169.081L457.341 160.659L457.898 155.786L459.359 153.002L460.264 148.826L459.429 145.346L457.967 144.441L456.784 144.371L456.088 144.58L456.227 143.397L455.949 141.796L456.227 139.708L458.315 136.993L466.946 129.894L472.723 130.172L496.526 143.467L506.479 144.998L509.193 144.302L510.585 143.049L511.768 139.499L511.49 138.107L510.167 137.341L509.75 136.645L509.959 135.393L512.116 133.096L511.977 132.052L510.794 131.495L510.028 130.381L509.75 129.198L509.263 129.407L508.775 130.799L507.801 130.938L507.105 129.685L506.131 128.571L504.391 127.319L504.182 125.787L505.643 123.978L507.801 117.574L509.123 115.764L509.471 114.372L509.541 113.467L509.819 112.702L510.794 111.519L511.559 110.057L511.351 108.247L510.376 106.229L507.105 103.166L506.27 101.287L505.852 99.7556L505.156 98.8507L489.009 98.0851L487.617 97.1106L488.243 95.5793L488.661 93.8393V91.8904L489.983 90.4983L494.368 87.7837L495.064 87.6445L495.343 87.7141L495.621 87.9925L495.969 88.6886L496.178 88.967L496.735 89.1758H497.291L497.918 88.967H498.475L499.727 89.315L505.365 92.0296L507.731 92.5864L508.984 92.656L509.541 92.7952L510.167 93.0736L510.446 93.4216L510.376 94.3961L510.933 95.5097L511.072 95.7881L511.142 96.6234V97.2498L511.351 97.8066L511.977 98.2939L512.534 98.5723L515.387 98.9899L515.805 99.1987L516.779 99.8251L517.267 99.9644L520.538 99.6859L521.164 99.3379L521.651 98.6419L521.999 97.8762L522.417 97.1802L522.974 96.8322L523.67 96.7626L524.227 97.041L526.036 98.6419L527.637 99.3379L528.403 99.4075L529.238 99.3379L529.516 99.1291L530.003 98.6419H530.421L531.187 98.8507L531.952 98.6419L532.439 98.0851L532.509 97.389L532.718 97.041L534.875 98.2939L537.659 98.9203L539.121 99.5467L539.608 99.9644L540.095 100.104L541.139 100.243L541.487 100.452L542.671 101.704L547.473 105.185L548.239 105.254L550.257 104.349L551.092 104.558L551.858 105.254L552.554 106.159L552.693 106.785L552.554 107.83L552.902 108.665L552.554 109.5L552.415 110.057L552.484 110.962L553.18 114.094L553.598 114.72L555.895 116.6L556.799 117.644L556.521 118.131L556.382 118.827L556.521 119.175L557.078 119.314L557.635 119.801L558.191 119.941L559.375 119.523L559.862 119.593L560.488 120.219L560.767 120.985L560.906 121.82L561.184 122.585L561.671 122.934L562.019 122.864L562.228 122.585L562.646 121.959L562.994 121.75H563.411L568.562 123.49L570.928 125.439L572.251 126.274L575.174 126.762L576.566 127.388L577.61 128.78L579.002 131.704L580.603 134.209L584.431 138.873L585.196 140.126L586.24 142.91L587.006 144.163L588.189 144.859L606.633 144.511L614.567 144.371L616.377 144.719L617.839 144.859L618.117 146.39L618.535 147.504L618.604 148.06L618.535 148.617L618.395 149.104L617.978 149.87L617.839 150.357L617.908 150.914L618.117 151.61L617.351 155.16L617.143 157.387L617.63 158.64L617.351 159.267L617.978 159.684L618.395 160.171L618.604 161.146V162.19L618.743 162.608L619.231 163.443L619.787 166.227L619.857 167.549V168.106L619.3 168.872L619.161 169.289L619.091 170.125L618.952 170.612L618.326 170.96L618.117 171.169L617.978 171.726L618.117 172.63V173.048L617.63 173.466L616.934 174.092L616.516 174.649L617.003 174.858L617.908 174.997L618.604 175.415L619.231 175.971L619.787 176.667L620.205 177.294L620.483 178.06L620.762 178.825L620.901 180.426L621.04 181.052V181.818L620.831 182.793L621.04 183.141V183.558L620.831 184.602V185.646L620.692 185.925L620.205 186.412L620.066 186.69L620.205 187.874L620.692 188.918L621.806 190.658L622.154 192.467L622.293 193.372L622.084 194.277L621.597 195.112L620.762 196.156L620.344 196.992L619.996 198.384L619.787 198.871L619.091 199.845L618.883 200.333L618.674 201.237L618.883 203.534L618.604 204.3L617.908 204.718L617.003 204.857H616.238L615.751 205.274L615.542 206.249V207.641L615.751 207.78L615.89 208.198V208.685L615.333 209.033L615.472 209.451L616.795 211.191L616.864 211.4L616.725 212.304L616.795 212.652L617.143 213.07L616.238 214.253L616.029 214.88L615.82 216.759L615.263 218.36L615.055 219.682L614.498 220.448L614.428 221.005L614.637 222.675L614.498 224.207L614.219 225.668L613.106 226.016L612.897 226.782L612.201 228.035L611.018 228.94L610.391 229.705L610.322 230.749L610.461 231.863L610.322 232.907L609.974 233.394L609.556 233.534L609.069 233.464L608.582 233.534L608.095 233.812L607.677 234.508L606.007 236.387L605.311 236.805L604.406 237.083L602.457 237.362L601.552 237.849L601.065 238.754L601.413 238.823L601.761 238.963L601.97 239.241L602.248 240.285L602.596 240.633L603.501 241.051L603.919 241.399L604.267 241.956L604.823 243.069L607.468 246.549L607.886 247.385L599.047 247.872L599.255 248.846L598.699 249.403L597.028 250.378L595.706 251.63L594.592 253.162L593.618 255.18L593.339 257.129L593.409 257.686Z" fill="#7C7C7C" stroke="white" stroke-width="2" stroke-linecap="round" stroke-linejoin="round"/>
<path d="M494.368 87.7832L489.984 90.4977L488.661 91.8898V93.8387L488.244 95.5788L487.617 97.11L489.009 98.0845L505.156 98.8501L505.852 99.755L506.27 101.286L507.105 103.166L510.376 106.228L511.351 108.247L511.56 110.056L510.794 111.518L509.82 112.701L509.541 113.467L509.472 114.372L509.124 115.764L507.801 117.573L505.644 123.977L504.182 125.787L504.391 127.318L506.131 128.571L507.105 129.684L507.801 130.937L508.776 130.798L509.263 129.406L509.75 129.197L510.028 130.381L510.794 131.494L511.977 132.051L512.116 133.095L509.959 135.392L509.75 136.645L510.168 137.341L511.49 138.106L511.768 139.499L510.585 143.048L509.193 144.301L506.479 144.997L496.526 143.466L472.723 130.172L466.946 129.893L458.316 136.993L456.228 139.707L455.949 141.795L456.228 143.396L456.088 144.58L450.59 145.554L448.85 144.858L445.37 144.232L443.352 143.605L439.315 140.055L435 135.253L434.373 133.861L434.512 132.956L435.139 130.241L435.348 127.179L435.139 125.995L434.721 125.16L434.93 124.464L435.835 123.768L437.923 123.142L438.34 122.098L436.6 121.332L435.139 121.61L432.633 119.801L427.135 112.492L428.248 111.448L430.893 106.785L433.468 105.671L434.582 104.697L435.696 104.21L436.67 104.07L440.846 102.609L442.864 99.8246L442.168 97.0404L440.707 95.9268L439.036 95.0915L437.784 93.6299L437.714 91.5417L438.41 88.6184L438.48 87.5047L438.062 85.6255L437.923 83.955L438.201 82.6325L437.923 79.4307L439.036 79.918L439.663 79.9876L442.725 79.5003L443.282 79.0827L443.63 78.3171L443.769 77.4818L443.63 76.7162L442.656 75.5329L442.864 74.9065L445.092 72.8184L446.344 71.9832L447.667 71.4959L450.938 71.3567L451.564 71.4959L452.539 72.192L453.026 72.4008L453.583 72.3312L456.436 71.0087L458.176 70.7303L458.524 70.7999L459.916 71.9832L461.169 72.6792L461.726 72.8184L467.155 73.8625L468.547 74.4889L469.312 74.5585L469.939 74.2105L470.426 73.7929L471.609 72.9576L472.027 72.54L472.792 71.2871L473.21 70.7999L473.836 70.5215H474.602L475.368 70.7303L475.785 71.0087L475.855 71.6351L476.064 72.0528L476.899 73.4448L477.525 75.0457L477.943 75.6721L479.126 76.9946L479.544 78.3171L480.309 79.4307L480.518 80.266L480.379 81.0316L479.683 83.3981L480.588 84.651L485.738 86.6695L486.364 86.5999L486.921 86.4607L487.478 86.3215L488.104 86.3911L489.914 86.9479H491.724L492.211 86.8087H492.768L493.255 87.0871L493.742 87.5047L494.368 87.7832Z" fill="#7C7C7C" stroke="white" stroke-width="2" stroke-linecap="round" stroke-linejoin="round"/>
<path d="M548.934 617.047L548.725 616.072L549.7 615.655L549.839 614.402L549.143 614.054L548.864 613.706L547.612 611.548L546.985 610.922L546.498 610.295L546.22 609.46L545.663 608.764L544.549 608.346L543.784 607.511L543.575 606.049L542.461 604.17L535.64 598.115L534.318 597.279L533.831 597.07L533.692 596.374L533.9 595.122L534.527 594.078L534.944 593.869L535.64 592.129L535.849 590.597V588.161L536.267 587.117L536.754 586.491L536.684 585.168L537.38 584.333L537.937 582.802L537.659 581.201L536.406 579.739L535.78 577.442L536.615 575.563L537.798 574.171V572.779L536.615 571.735L536.058 570.83L537.032 569.09L538.076 566.027L536.128 562.199L533.413 558.997L532.648 556.283L532.787 553.707L532.648 552.176L531.812 548.766V544.729L535.919 528.511L536.406 523.848L536.128 509.718L540.304 504.289L541.417 500.6L540.164 498.512L537.172 496.285L535.849 494.196L537.937 493.083L542.044 491.691L550.396 486.819L551.996 485.496L553.04 484.382L553.11 482.851L552.762 481.25L551.718 479.023L551.648 475.682L551.161 472.898L551.648 470.253L554.641 465.659L555.755 461.552L555.894 458.003L554.641 449.233L553.18 445.613L551.579 444.5L550.744 443.664L551.022 440.184L558.4 405.8L559.583 405.243L586.518 397.587L588.536 397.935L589.789 399.327L590.624 399.953L593.965 400.858L598.35 404.13L604.057 412.204L606.98 414.779L611.852 414.57L613.105 414.083L613.662 413.248L613.732 411.925L611.852 403.851L611.713 400.649L612.479 389.652L614.219 383.527L616.516 377.959L617.003 372.878L616.376 370.441L629.531 372.39L635.656 373.226L636.56 373.643L637.256 374.2L638.579 375.801L638.788 376.636L638.579 378.446V379.281L638.927 380.116L639.901 381.717L640.18 382.692L640.249 383.875L640.319 384.293L640.945 385.685L641.363 387.007L641.572 387.842V388.678L641.293 389.582L640.597 390.974L640.806 391.462L640.945 394.315L640.597 394.733V395.499L640.736 395.777L640.11 396.404L628.487 410.533L619.578 421.113L611.087 431.344L606.215 436.982L611.017 442.69L618.952 452.156L621.875 455.706L622.571 456.263L623.336 456.611L623.963 457.028L624.311 458.072L624.241 458.907L623.824 460.369V461.135L624.172 461.97L625.285 463.223L625.772 463.989L625.842 464.406L625.981 465.45L626.19 465.937L626.538 466.355L627.234 466.494L627.582 466.703L627.93 467.33L628.139 468.026L628.417 468.582L629.044 468.861L629.392 469.139L629.461 469.487L629.392 469.905L628.765 470.531V471.019L629.531 471.436L629.879 471.784L630.227 472.202L631.758 475.682L631.967 476.448L632.036 477.144L632.245 477.77L633.289 478.953L634.264 481.181L635.308 482.503L639.066 485.914L640.528 487.793L642.824 489.951L643.938 491.273L644.634 491.621L646.792 492.248L648.532 493.222L649.576 493.57L652.012 493.779L653.125 494.057L656.118 495.38L660.851 496.354L661.895 496.841L662.312 497.329L662.591 497.885L662.939 498.373L663.565 498.721L664.122 498.93L664.54 499.138L664.748 499.556L665.027 500.322L665.514 501.157L667.811 503.663L668.507 504.08L674.423 502.897L675.188 503.384L675.397 504.846L674.284 513.685L675.884 520.367L676.58 528.163L677.137 534.01L676.928 535.68L675.049 539.926L675.745 540.831L675.884 541.248L675.815 541.875L675.676 542.501L675.467 542.919L675.119 543.197L674.562 543.267L676.093 544.659L676.65 544.937H676.928L677.416 544.659H677.972L678.808 545.146L679.921 545.425L680.896 545.355L682.984 544.937L683.958 544.798L685.837 544.172H686.812H687.856L689.804 543.545L690.152 543.615L690.64 543.754L691.544 544.589L691.962 544.868L692.867 545.216L693.145 545.425L693.563 545.842L694.05 546.608L695.303 549.322L694.676 549.044H693.911L693.215 549.392L692.797 550.019L692.658 550.436L692.31 550.993L692.101 551.411V551.828L692.24 556.422L692.588 557.188L693.006 557.814L693.354 558.51L693.215 559.206L692.658 559.693L691.196 559.972L690.64 560.25L690.361 560.877L690.083 566.723L689.665 568.394L688.9 569.159H688.552L687.647 568.672L687.299 568.603L686.255 568.881L684.863 568.811L683.471 568.603L674.91 568.394L674.562 568.533L674.284 568.881L673.866 569.577L673.1 569.995L671.987 570.273H671.639L670.873 569.995L670.595 570.134L669.968 570.691L669.272 570.969L663.217 571.596L662.591 571.944L662.312 572.431L662.104 572.64L661.756 572.709H660.99L660.294 572.848L659.598 573.336L658.832 573.684L658.554 573.823L658.345 574.171L658.276 574.519L658.554 575.215L658.136 575.911L657.023 577.025L656.814 577.581L656.953 578.486L657.301 579.252L657.371 579.809L656.605 580.226L655.213 580.018L653.612 579.461L652.29 579.252L651.664 580.226L651.524 581.201L651.176 581.619L649.715 581.897L648.949 582.106L648.323 582.454L647 583.289L642.685 584.542L641.78 585.238L641.293 586.282L641.015 587.535L640.388 592.129L639.205 600.759L638.996 601.456L638.44 602.152L637.813 602.291H637.117L636.352 602.43L635.586 603.544L635.795 605.005L636.143 606.537L636.073 607.929L635.308 608.764L635.099 609.182L634.96 609.738L634.124 622.824L633.011 626.095L632.802 625.538L632.732 624.912L632.106 624.425L631.758 624.077L631.41 624.285L631.34 624.494L631.271 625.19L631.201 625.399L631.897 626.165L631.132 626.095L630.575 625.886H629.948L629.183 626.443L630.088 626.722L630.436 626.93L630.714 627.278L630.505 627.696L629.948 628.392L629.74 629.158L629.461 629.436L628.904 629.715L626.956 630.341L627.512 630.689L626.677 631.803L620.622 629.715L618.464 629.297L618.534 628.601L617.977 627.626L612.966 625.817L607.05 624.842L602.039 623.659L598.628 623.241L598.072 622.893L598.628 622.406L597.724 621.153L597.654 620.596L597.584 618.369L597.515 618.021L596.192 616.699L595.636 616.351L595.009 616.281L594.383 616.351L591.877 617.116L591.251 617.464L590.903 618.021L590.068 619.135L590.346 620.457L591.112 620.805H591.46L592.156 621.571H591.738L592.782 622.128L592.643 622.615L592.225 622.545L589.65 621.432L588.884 621.014H587.353L586.309 620.179L586.796 619.413L586.24 619.135L585.613 619.065L584.291 619.135L583.108 619.413L582.76 619.761L582.899 620.179L583.664 620.736L583.386 621.432H582.412L581.716 620.945L581.298 620.805L580.045 620.666L579.767 620.457L579.349 619.9L578.792 619.622L577.47 619.692L575.66 619.97L573.712 620.04L572.389 621.014L570.858 620.527L569.396 619.065L567.726 618.648L563.62 618.926H561.949L559.235 618.23L557.495 616.49L556.242 615.794L554.154 616.211L548.934 617.047Z" fill="#7C7C7C" stroke="white" stroke-width="2" stroke-linecap="round" stroke-linejoin="round"/>
<path d="M497.918 362.438L538.913 381.022L544.063 384.85L558.401 405.801L551.023 440.185L550.745 443.665L551.58 444.501L553.181 445.614L554.642 449.234L555.895 458.004L555.756 461.553L554.642 465.66L551.649 470.254L551.162 472.899L551.649 475.683L551.719 479.024L552.763 481.251L553.111 482.852L553.041 484.383L551.997 485.497L550.397 486.819L542.045 491.692L537.938 493.084L535.85 494.197L537.173 496.286L540.165 498.513L541.418 500.601L540.305 504.29L536.129 509.719L536.407 523.849L535.92 528.512L531.813 544.73V548.767L532.649 552.177L532.788 553.708L532.649 556.284L533.414 558.998L536.129 562.2L538.077 566.028L537.033 569.091L536.059 570.831L536.616 571.736L537.799 572.78V574.172L536.616 575.564L535.781 577.443L536.407 579.74L537.66 581.202L537.938 582.803L537.381 584.334L536.685 585.169L536.755 586.492L536.268 587.118L535.85 588.162V590.598L535.641 592.13L534.945 593.87L533.484 591.642L532.997 591.225H531.953L530.561 590.668L529.517 590.946L528.473 592.06L526.941 592.269L525.132 592.199L523.67 591.851L523.044 590.737L522.974 589.485L522.557 588.649L522.487 587.814L522.835 587.118L522.905 586.7L522.209 586.213L519.981 585.865L518.589 585.239L517.337 584.96L516.084 585.587L514.135 585.726L511.212 585.239L506.409 585.517L506.34 584.752L507.105 583.847L507.523 581.619V580.436L507.314 579.253L508.149 571.388L508.637 570.204L509.263 569.369L509.472 568.673V567.699L508.567 565.054L508.637 564.288H509.402L511.629 565.68L511.977 564.915L510.933 562.687L508.776 560.251L506.131 557.954L503.625 556.493L501.259 556.423L499.797 557.397L498.962 558.65L497.222 560.251L496.178 559.903L493.742 558.093L482.606 552.177L481.841 549.811L480.727 534.707L479.613 531.505L478.639 529.486L477.734 528.999L476.899 527.816L477.525 526.563L478.5 525.728L478.291 523.709L476.621 521.204L475.02 519.394L474.185 517.793L472.723 515.914L470.844 514.939L469.73 514.8L469.034 514.174L468.547 513.269L467.225 506.935L467.503 502.759L467.225 502.132L463.466 500.253L461.517 500.183L459.917 501.506L458.803 502.828L454.905 506.587L450.66 508.675L448.363 509.093L444.048 508.397L440.359 506.169L437.297 503.315L434.095 499.209L433.329 495.172L434.234 492.109L433.538 476.518L432.494 474.987L431.45 475.126L427.205 477.145L419.966 482.574L418.157 483.061L416.556 482.295L414.955 481.182L413.424 479.093L410.153 476.588L403.68 474.708L400.617 474.5L393.379 456.403L391.221 455.498L383.009 454.732L381.408 453.758L380.573 452.853L379.737 451.461L379.32 449.86L376.397 443.804L375.422 440.533V439.698L377.023 439.002L377.371 438.654L381.06 438.236L382.173 437.401L382.104 436.218L381.617 434.617L381.269 432.25L381.686 418.747L380.573 417.912L379.389 416.52L378.554 412.344L376.397 406.775L374.378 402.947L374.309 400.859L375.074 397.797L376.745 394.664L379.946 391.115L400.13 387.495L404.724 387.704L407.717 388.261L414.468 387.356L420.593 384.642L421.149 381.718L421.567 368.493L423.168 365.013L442.308 354.921L444.813 352.206L452.33 347.96L454.001 346.22L454.766 345.037L459.36 345.803L497.918 362.438Z" fill="#7C7C7C" stroke="white" stroke-width="2" stroke-linecap="round" stroke-linejoin="round"/>
<path d="M244.852 159.126L250.838 160.309L253.135 161.214L253.761 162.118L255.153 163.441L256.615 164.067L262.531 165.39L264.897 168.104L264.758 170.053V172.559L262.74 173.812L259.816 173.464L256.893 174.508L254.736 177.014L254.596 179.867L254.179 182.025L250.977 182.234L249.933 184.879L248.054 187.245L245.757 188.637L244.783 190.865L243.112 191.004L242.138 193.092L241.094 193.231L240.885 191.77V189.333L239.493 187.663H237.475L236.988 188.846L238.38 190.795V191.561L238.032 192.187L237.127 191.63L235.039 189.751L231.489 188.777L227.87 188.498L226.339 188.15L225.573 186.897L224.599 184.809L224.32 183.487L224.808 181.747L226.756 179.798L234.064 176.248L235.248 175.065L235.735 173.394L237.405 169.844L238.588 165.947L236.918 164.555L234.343 163.789L233.02 162.606L231.211 160.1L232.255 158.499L236.292 158.221L244.852 159.126Z" fill="#7C7C7C" stroke="white" stroke-width="2" stroke-linecap="round" stroke-linejoin="round"/>
</g>
<defs>
<clipPath id="clip0_5931_13145">
<rect width="696" height="632" fill="white" transform="translate(0 0.5)"/>
</clipPath>
</defs>
</svg>
