<svg width="50" height="50" viewBox="0 0 50 50" fill="none" xmlns="http://www.w3.org/2000/svg">
<path d="M0.0786332 23.2899C-0.00757282 22.9537 0.0958746 22.626 0.113116 22.2984C0.138978 21.8673 0.233804 21.4449 0.294148 21.0138C0.423457 20.0481 0.638972 19.1084 0.906211 18.1772C1.2769 16.8322 1.78551 15.5303 2.37171 14.2629C2.90619 13.1162 3.5355 12.0213 4.24238 10.9694C4.75962 10.1848 5.3372 9.45196 5.94926 8.73635C6.40616 8.19318 6.87167 7.66725 7.38029 7.17581C8.44062 6.14982 9.5613 5.20142 10.7768 4.36511C11.7768 3.67537 12.8199 3.0546 13.9147 2.51143C15.6647 1.64925 17.4923 0.985372 19.3888 0.554283C20.3026 0.34736 21.225 0.20079 22.156 0.0887067C22.9319 -0.0061329 23.7077 0.0111107 24.4836 0.00248889C25.0956 -0.00613289 25.7077 0.0111107 26.3111 0.00248889C27.2853 -0.0147547 28.2508 0.131816 29.2077 0.287008C30.0783 0.424956 30.9404 0.623257 31.7852 0.856045C32.7766 1.12332 33.7335 1.47681 34.6817 1.86479C36.2679 2.52005 37.7593 3.34774 39.1731 4.31338C40.0179 4.89104 40.8368 5.52043 41.5868 6.21879C41.9661 6.57229 42.3713 6.89991 42.7334 7.27065C43.4748 8.04661 44.1903 8.84843 44.8454 9.71061C45.7247 10.8487 46.492 12.0557 47.1558 13.3231C47.992 14.9095 48.6471 16.5649 49.1213 18.2893C49.3799 19.2291 49.5781 20.1861 49.7333 21.1517C49.8368 21.7897 49.923 22.4364 49.9402 23.0916C49.9402 23.152 49.9316 23.2209 49.9316 23.2985C49.5695 23.1692 49.2075 23.2037 48.854 23.2037C48.5695 23.2037 48.2937 23.2037 48.0092 23.1606C47.9316 23.152 47.9144 23.1175 47.8885 23.0485C47.8109 22.8243 47.8282 22.5829 47.8023 22.3588C47.7247 21.6259 47.5954 20.9017 47.4488 20.1775C47.2678 19.2808 47.0178 18.3927 46.7161 17.5306C46.1213 15.8148 45.3368 14.1939 44.3541 12.6679C43.8799 11.9264 43.3885 11.1936 42.8023 10.5297C42.4144 10.09 42.0955 9.58991 41.673 9.17606C40.3541 7.8828 38.9748 6.66712 37.4058 5.67562C35.949 4.75309 34.4231 3.96851 32.8024 3.38223C32.1559 3.14944 31.4921 2.98562 30.8542 2.71835C30.5869 2.60627 30.2852 2.60627 30.0007 2.5804C29.5783 2.54591 29.1732 2.3821 28.7508 2.35624C27.8197 2.31313 26.906 2.09758 25.9663 2.1062C25.268 2.11482 24.5698 2.03723 23.8801 2.08034C23.0612 2.14069 22.2422 2.14069 21.4233 2.29588C20.7853 2.41659 20.156 2.61489 19.5267 2.71835C18.8198 2.83905 18.1388 3.04598 17.475 3.27877C15.1647 4.07197 13.044 5.21867 11.1044 6.70161C10.3113 7.30514 9.55268 7.95177 8.85441 8.66738C8.432 9.10709 7.932 9.4692 7.56994 9.97789C7.04408 10.7107 6.44926 11.3919 5.94926 12.142C4.88031 13.7542 4.00101 15.4613 3.34584 17.2892C2.96654 18.3583 2.66481 19.4532 2.44068 20.5654C2.31999 21.1517 2.21654 21.7466 2.17344 22.3501C2.16482 22.5226 2.13896 22.7036 2.13034 22.8761C2.10447 23.1347 2.01827 23.1951 1.59586 23.2037C1.32862 23.2123 1.06138 23.2123 0.794144 23.2037C0.570008 23.1865 0.328631 23.2209 0.0786332 23.2899Z" fill="#005AC7"/>
<path d="M23.9577 26.7557C24.2422 25.5745 24.5267 24.3847 24.8112 23.2036C24.8456 23.0742 24.8629 22.9449 25.0439 22.9535C25.2163 22.9621 25.225 23.0829 25.2508 23.2036C25.5094 24.2468 25.7594 25.2986 26.018 26.3419C26.0611 26.5402 26.1043 26.7385 26.1474 26.9799C26.8025 25.04 27.4404 23.1432 28.0784 21.255C28.1991 20.9015 28.3025 20.548 28.4404 20.2118C28.4922 20.0825 28.4491 20.0135 28.3542 19.9445C28.1991 19.8411 28.0439 19.7462 27.8887 19.6428C27.6215 19.4617 27.518 19.1513 27.6301 18.884C27.768 18.5564 28.0008 18.4443 28.3629 18.5133C29.9146 18.8064 31.4663 19.1082 33.0266 19.3927C34.1473 19.5997 34.7766 20.229 35.0093 21.3671C35.1473 22.0569 35.3111 22.7466 35.4662 23.4363C35.5697 23.8847 35.6731 24.3416 35.7766 24.79C35.7938 24.8762 35.7766 24.9365 35.6904 24.9624C35.5007 25.0314 35.3455 25.1607 35.1817 25.2728C34.9835 25.4021 34.949 25.2986 34.9145 25.1348C34.8111 24.6606 34.7076 24.1864 34.6042 23.7122C34.4318 22.9621 34.2421 22.2207 34.0956 21.462C33.9835 20.8671 33.63 20.5136 33.0783 20.3497C32.7249 20.2463 32.3542 20.2032 31.9921 20.1342C31.1904 19.979 30.3801 19.8238 29.5784 19.66C29.4318 19.6341 29.4059 19.6514 29.4318 19.8066C29.4922 20.1687 29.3025 20.4791 29.1904 20.8067C28.768 22.0051 28.3801 23.2208 27.9749 24.4192C27.3887 26.1608 26.8111 27.9024 26.2077 29.6354C25.9749 30.3165 25.7422 30.9976 25.5698 31.696C25.5353 31.8426 25.4663 31.9633 25.2594 31.9547C24.7336 31.9374 24.7336 31.9547 24.5612 31.4546C24.1819 30.3769 23.8026 29.3078 23.4319 28.2301C22.975 26.8937 22.5181 25.5659 22.0612 24.2295C21.6302 22.9708 21.1905 21.7206 20.7509 20.4618C20.6647 20.2204 20.544 19.9876 20.6302 19.7117C20.6647 19.6083 20.5526 19.6255 20.5009 19.6428C19.906 19.7548 19.3198 19.8669 18.725 19.9876C18.1733 20.0997 17.6216 20.2204 17.0699 20.3153C16.544 20.4101 16.0526 20.8584 15.9492 21.4447C15.8371 22.1086 15.6561 22.7552 15.5095 23.4191C15.3802 23.9968 15.2509 24.5744 15.1302 25.1521C15.0957 25.3245 15.044 25.428 14.8457 25.2987C14.6733 25.1952 14.5268 25.0486 14.3371 24.9883C14.2423 24.9538 14.2509 24.8848 14.2595 24.8072C14.5095 23.7209 14.7595 22.6431 15.0095 21.5568C15.0699 21.2723 15.1216 20.9878 15.2337 20.7205C15.5785 19.9187 16.225 19.5565 17.0526 19.4014C18.4405 19.1427 19.8285 18.8496 21.2164 18.5995C21.475 18.5564 21.7336 18.4271 22.0181 18.5219C22.2767 18.6081 22.4146 18.7806 22.4491 19.022C22.4922 19.2806 22.3888 19.4962 22.1733 19.6514C22.0353 19.7462 21.8974 19.8583 21.7508 19.9273C21.5784 20.0049 21.5871 20.1083 21.6388 20.2549C22.1819 21.8241 22.7164 23.3932 23.2595 24.971C23.4663 25.5745 23.6819 26.1781 23.8974 26.7816C23.9232 26.7557 23.9405 26.7557 23.9577 26.7557Z" fill="#005AC7"/>
<path d="M15.2764 11.5211C13.9574 11.5298 13.3712 12.323 13.1471 13.4438C13.0781 13.8059 13.0436 14.1766 13.0436 14.556C13.0436 14.7026 13.0005 14.8578 12.8971 14.9612C12.785 15.0733 12.8023 15.1681 12.8798 15.2544C13.3712 15.7975 13.5436 16.5304 14.0091 17.0822C14.1384 17.2374 14.2591 17.4012 14.3971 17.5478C14.6729 17.8323 14.8022 18.1685 14.716 18.5651C14.6212 19.0307 14.3022 19.2807 13.854 19.3842C12.8109 19.6256 11.7678 19.867 10.7161 20.0998C10.5781 20.1343 10.4316 20.1774 10.2937 20.186C10.0695 20.2033 10.0006 20.3498 9.95745 20.5309C9.77642 21.3241 9.59539 22.1087 9.42298 22.9019C9.39711 23.014 9.37125 23.0571 9.25919 23.0312C9.06953 22.9881 8.8885 22.9277 8.69885 22.9019C8.54368 22.876 8.52643 22.7898 8.55229 22.6777C8.74195 21.8155 8.94022 20.9534 9.14712 20.0998C9.25056 19.6687 9.56091 19.4359 9.9747 19.3411C11.1643 19.0566 12.3626 18.7893 13.5522 18.5134C13.8367 18.4444 13.8712 18.3841 13.6816 18.1599C13.3109 17.7116 12.9574 17.246 12.6988 16.7201C12.5695 16.4528 12.4316 16.1941 12.2333 15.9614C11.9661 15.6251 11.7936 15.2199 11.9143 14.7629C11.9316 14.7026 11.9574 14.6336 12.0005 14.5905C12.1471 14.4698 12.1471 14.3146 12.1471 14.1508C12.1816 13.3145 12.3367 12.504 12.8109 11.797C13.3022 11.0728 14.0005 10.7193 14.8626 10.6331C15.4143 10.5727 15.9402 10.6331 16.4574 10.8055C17.1557 11.0469 17.6384 11.5298 17.9488 12.185C18.2591 12.8403 18.3884 13.53 18.3884 14.2542C18.3884 14.3318 18.3712 14.4267 18.4401 14.4784C18.7677 14.7371 18.6901 15.0647 18.5953 15.3837C18.5177 15.651 18.397 15.901 18.1815 16.0907C18.0867 16.1683 18.035 16.2804 17.9832 16.3924C17.7419 16.9529 17.4315 17.4702 17.0264 17.9271C16.9574 17.9961 16.9057 18.0823 16.8453 18.1513C16.6729 18.3582 16.6901 18.4272 16.966 18.4962C17.1039 18.5306 17.2505 18.5651 17.3884 18.591C17.5177 18.6082 17.5953 18.6686 17.6039 18.8065C17.6212 18.9704 17.4919 18.9876 17.3884 19.0135C17.216 19.0566 17.0436 19.0911 16.8712 19.1169C15.716 19.3325 15.035 20.0222 14.7764 21.1603C14.5178 22.2984 14.2505 23.4364 14.0005 24.5745C13.966 24.7297 13.9057 24.7211 13.8022 24.6866C13.6212 24.6176 13.4402 24.5486 13.2591 24.4711C13.1557 24.4279 13.1298 24.359 13.1557 24.2469C13.2591 23.7986 13.354 23.3416 13.4574 22.8846C13.6298 22.1259 13.7936 21.3672 13.9833 20.6085C14.216 19.7118 14.7677 19.048 15.5781 18.5996C15.716 18.522 15.8022 18.453 15.8022 18.272C15.8108 18.022 15.897 17.7719 16.0867 17.5909C16.5522 17.1253 16.897 16.5821 17.1643 15.9872C17.2505 15.7975 17.3539 15.6337 17.5005 15.4872C17.7246 15.263 17.7505 15.1164 17.6039 14.8405C17.5177 14.6595 17.5091 14.4698 17.5005 14.2715C17.4574 13.599 17.3798 12.9351 16.9919 12.3488C16.6126 11.7453 16.0005 11.5125 15.2764 11.5211Z" fill="#005AC7"/>
<path d="M34.6385 11.5214C33.5523 11.5041 32.8368 12.2456 32.6213 13.4354C32.5609 13.7803 32.5092 14.1252 32.5178 14.47C32.5178 14.6166 32.492 14.7546 32.4058 14.858C32.2161 15.0822 32.3282 15.2891 32.4747 15.4357C32.7075 15.6685 32.8368 15.9444 32.9747 16.2289C33.2247 16.7376 33.5351 17.1945 33.9316 17.5997C34.1299 17.798 34.2075 18.0567 34.2247 18.324C34.2333 18.4447 34.2592 18.5137 34.3713 18.574C35.4143 19.1086 35.9574 20.0052 36.1816 21.1174C36.354 21.9537 36.5523 22.7814 36.7333 23.6091C36.7764 23.8074 36.8195 23.9971 36.8626 24.1954C36.8971 24.342 36.8281 24.4368 36.6988 24.4885C36.6299 24.5144 36.5609 24.5317 36.4919 24.5575C36.0178 24.7213 36.035 24.7213 35.923 24.2299C35.6816 23.1177 35.4488 22.0055 35.1643 20.9019C34.9057 19.919 34.2075 19.3586 33.2333 19.1344C33.0264 19.0913 32.8195 19.0654 32.6213 19.0137C32.5264 18.9879 32.4058 18.9706 32.4144 18.824C32.423 18.6861 32.4833 18.6171 32.6213 18.5999C32.7851 18.574 32.9575 18.5395 33.1126 18.4964C33.3109 18.4361 33.3368 18.3498 33.1988 18.186C32.7075 17.617 32.2678 17.0221 32.0006 16.3151C31.9747 16.2548 31.9402 16.1944 31.8885 16.1599C31.5609 15.8754 31.423 15.5047 31.3454 15.0994C31.3109 14.9184 31.3196 14.7287 31.4661 14.5994C31.6213 14.47 31.6213 14.3148 31.6299 14.1424C31.6644 13.2199 31.854 12.3491 32.4402 11.599C32.8799 11.0386 33.4747 10.7541 34.1557 10.6506C34.8195 10.5471 35.4747 10.5989 36.104 10.8748C36.6212 11.1075 37.0264 11.4697 37.3109 11.9611C37.7074 12.6422 37.8454 13.3923 37.8712 14.1769C37.8798 14.3407 37.8971 14.4614 38.0178 14.5907C38.1385 14.7287 38.1902 14.9011 38.1471 15.1081C38.0609 15.5133 37.9229 15.884 37.604 16.1685C37.5695 16.203 37.5436 16.2461 37.5264 16.2892C37.2505 16.9876 36.8195 17.5997 36.3368 18.1688C36.173 18.3671 36.1988 18.4447 36.4488 18.505C37.0178 18.6344 37.5954 18.7637 38.1729 18.893C38.7936 19.0396 39.4143 19.1862 40.035 19.3241C40.5522 19.4448 40.8367 19.7724 40.9488 20.2725C41.1212 21.0398 41.2764 21.8072 41.4574 22.5745C41.5091 22.7901 41.4229 22.8677 41.2591 22.8849C41.0436 22.9108 40.7936 23.1177 40.6384 22.9711C40.5091 22.8504 40.5177 22.5659 40.4746 22.359C40.3453 21.7554 40.2074 21.1519 40.0781 20.5484C40.035 20.3501 39.9574 20.2294 39.7333 20.1777C38.5522 19.919 37.3712 19.6431 36.1988 19.3758C35.7592 19.2724 35.4316 19.0482 35.3281 18.574C35.2333 18.1688 35.3626 17.8325 35.6471 17.5394C36.0868 17.0738 36.4488 16.5651 36.673 15.9616C36.7592 15.7116 36.9833 15.565 37.1126 15.3581C37.2074 15.2029 37.2678 15.0822 37.1385 14.9011C36.9143 14.5907 37.0092 14.2114 36.9661 13.8665C36.8885 13.2285 36.7592 12.6164 36.3109 12.1249C35.9057 11.6766 35.354 11.5128 34.6385 11.5214Z" fill="#005AC7"/>
<path d="M25.0175 20.0481C25.4054 20.2033 25.8019 20.2895 26.1554 20.4878C26.2761 20.5568 26.2502 20.712 26.1726 20.8327C25.8709 21.2724 25.5606 21.7121 25.2588 22.1518C25.095 22.3846 24.9657 22.3846 24.8106 22.1518C24.5088 21.7121 24.1985 21.2724 23.8968 20.8327C23.8192 20.712 23.7847 20.5482 23.914 20.4878C24.2675 20.3154 24.6468 20.1947 25.0175 20.0481Z" fill="#005AC7"/>
<path fill-rule="evenodd" clip-rule="evenodd" d="M22.9572 50C22.8268 49.9193 22.6831 49.9191 22.542 49.9188C22.4872 49.9187 22.4327 49.9186 22.3796 49.9138C20.371 49.6982 18.4227 49.2327 16.5348 48.5602C14.7245 47.9135 12.9917 47.0945 11.3538 46.0771C10.3797 45.4736 9.4573 44.8183 8.56938 44.1027C7.72456 43.4216 6.93146 42.6887 6.20733 41.8869C5.33665 40.9213 4.50908 39.9125 3.80219 38.8176C2.82806 37.3174 2.04358 35.7223 1.4229 34.0411C1.00911 32.9203 0.707389 31.7736 0.466012 30.6096C0.319462 29.9026 0.233256 29.187 0.14705 28.4714C0.0461917 27.6581 0.032912 26.8449 0.0195772 26.0282C0.0146759 25.728 0.00976712 25.4274 0.000499259 25.1262C-0.0167419 24.5399 0.414288 24.1174 1.02635 24.1088C1.38299 24.103 1.74346 24.105 2.10265 24.1069C2.28177 24.1078 2.46056 24.1088 2.6384 24.1088C2.84757 24.1088 3.05752 24.1065 3.26777 24.1041C3.7594 24.0987 4.25273 24.0933 4.74183 24.1174C5.45734 24.1519 6.17285 24.2123 6.87974 24.2985C7.73318 24.4019 8.578 24.5226 9.42282 24.6951C10.7763 24.971 12.0952 25.3503 13.3797 25.8676C14.759 26.4194 16.0607 27.1178 17.2848 27.9714C17.871 28.3852 18.4227 28.8422 18.9658 29.3163C19.4744 29.7733 19.94 30.2647 20.3968 30.7734C20.871 31.2994 21.302 31.8684 21.6986 32.4547C22.6899 33.9118 23.4744 35.4809 24.0778 37.1363C24.4313 38.1019 24.7244 39.0762 24.9571 40.0763C24.9611 40.0842 24.9668 40.0921 24.9744 40.1025C24.9833 40.1148 24.9948 40.1305 25.0089 40.1539C25.0573 39.975 25.1058 39.7991 25.1536 39.626L25.1539 39.6246C25.2165 39.3978 25.2779 39.1753 25.3365 38.9555C25.6037 37.9554 25.9658 36.9897 26.3623 36.0327C26.9226 34.705 27.6123 33.4376 28.4485 32.2564C28.8709 31.6529 29.3364 31.0924 29.8278 30.5406C30.7157 29.5405 31.7071 28.6783 32.8019 27.9196C33.7329 27.2644 34.7243 26.7126 35.7501 26.247C37.1639 25.609 38.638 25.1348 40.1553 24.7985C40.9311 24.6261 41.7156 24.4882 42.5001 24.3761C42.9357 24.3128 43.3714 24.2725 43.8117 24.2317C43.9116 24.2225 44.0117 24.2132 44.1121 24.2036C45.0345 24.1174 45.9569 24.1174 46.8793 24.1174C47.1175 24.1174 47.3567 24.1165 47.5961 24.1155C48.076 24.1136 48.5572 24.1117 49.0345 24.1174C49.5 24.126 49.819 24.3761 50 24.7985V27.1868C49.9569 27.3716 49.9578 27.5653 49.9587 27.7551V27.756C49.959 27.8314 49.9594 27.9065 49.9569 27.98C49.9224 28.8853 49.7672 29.7733 49.5948 30.6613C49.2759 32.3081 48.7759 33.9118 48.1035 35.4551C47.2414 37.4381 46.1207 39.2573 44.7414 40.9213C44.1207 41.6627 43.4656 42.3783 42.7587 43.0422C41.4225 44.2924 39.9656 45.3787 38.3967 46.3185C35.4829 48.0515 32.3622 49.2068 29.0174 49.7758C28.3968 49.8793 27.7847 49.9741 27.1554 49.9655C27.1209 49.9655 27.0864 49.9655 27.0692 49.9914C25.6903 50 24.3287 50 22.9584 50H22.9572ZM23.3058 46.0303L23.3053 46.0298C22.5763 45.291 21.8478 44.5528 21.1037 43.8354C19.5359 42.3266 18.0017 40.7841 16.4675 39.2416C15.547 38.3161 14.6264 37.3907 13.6986 36.4724C12.9918 35.777 12.2926 35.0738 11.5933 34.3707C11.2437 34.0191 10.8941 33.6675 10.5435 33.3169C10.1383 32.9116 9.51764 32.8858 9.1211 33.2738C8.73317 33.6531 8.75903 34.2653 9.18144 34.6877L19.69 45.1977L22.2589 47.767C22.2839 47.792 22.3134 47.814 22.343 47.8362C22.3848 47.8675 22.4269 47.899 22.4572 47.9394C20.2675 47.7152 18.8882 47.3014 17.4486 46.8272C16.3107 46.4478 15.2072 45.9909 14.1383 45.4391C12.6297 44.6631 11.2073 43.7578 9.88833 42.6801C9.1642 42.0852 8.46593 41.4731 7.82801 40.7919C7.06077 39.9815 6.35388 39.1193 5.71596 38.1968C4.97459 37.1277 4.33666 35.9982 3.80219 34.8171C3.19874 33.4807 2.75047 32.0926 2.44875 30.6614C2.27634 29.825 2.13841 28.9801 2.0522 28.1179C1.99186 27.4885 1.94876 26.8505 1.91427 26.2125C1.90565 26.0573 1.94876 26.0056 2.11255 26.0056C2.37421 26.0086 2.63587 26.0052 2.89752 26.0018C3.37724 25.9956 3.85695 25.9894 4.33666 26.0228C5.07803 26.0659 5.81079 26.1091 6.55216 26.1953C7.57801 26.316 8.58662 26.4712 9.58661 26.704C10.9659 27.023 12.3021 27.4627 13.5952 28.0662C14.94 28.6956 16.1641 29.4802 17.302 30.4372C18.7848 31.6787 19.9572 33.1703 20.9055 34.8429C22.0089 36.7828 22.733 38.8693 23.2158 41.042C23.4313 42.0076 23.6037 42.9819 23.733 43.9561C23.7951 44.4045 23.8351 44.8528 23.8751 45.3011C23.8851 45.4132 23.8951 45.5253 23.9054 45.6374C23.9165 45.7852 23.9133 45.9315 23.9102 46.0775C23.906 46.2721 23.9017 46.4664 23.9313 46.6634C23.7225 46.4526 23.5141 46.2415 23.3058 46.0303ZM26.113 45.7746C26.0935 46.0736 26.0737 46.3795 26.0175 46.7065C26.0355 46.6904 26.0508 46.6772 26.0635 46.6661C26.1057 46.6295 26.1209 46.6163 26.1209 46.603C26.802 45.9262 27.4851 45.2537 28.1683 44.5812C28.8515 43.9087 29.5347 43.2362 30.2157 42.5594C32.543 40.2577 34.8509 37.9462 37.1612 35.6324C37.9317 34.8607 38.7024 34.0888 39.4742 33.3169C39.8708 32.9203 40.4915 32.9116 40.8794 33.2824C41.2673 33.6531 41.2501 34.2739 40.8449 34.6791L38.9484 36.5759C36.4545 39.0644 33.9644 41.5567 31.473 44.0503C30.2269 45.2976 28.9804 46.5452 27.733 47.7928C27.7162 47.8096 27.6974 47.8251 27.6786 47.8405C27.63 47.8805 27.5816 47.9203 27.5692 47.9825C28.1037 47.9566 28.6295 47.8618 29.1554 47.7497C30.4054 47.4997 31.6295 47.1807 32.8278 46.7496C34.3364 46.215 35.7846 45.5512 37.1639 44.7407C39.1036 43.594 40.8535 42.2232 42.388 40.5764C43.2673 39.628 44.0518 38.602 44.7587 37.5157C45.3966 36.5414 45.9225 35.5068 46.3793 34.4463C46.888 33.2565 47.2673 32.0322 47.5431 30.7648C47.6983 30.0664 47.8276 29.3595 47.9052 28.6525C47.9218 28.4996 47.9423 28.3481 47.9626 28.1973C47.995 27.9568 48.0272 27.7184 48.0431 27.4799C48.0691 27.1482 48.0804 26.8214 48.0918 26.4921C48.0955 26.3849 48.0992 26.2774 48.1035 26.1694C48.1035 26.0573 48.0604 26.0315 47.9569 26.0315C47.6115 26.042 47.2646 26.0396 46.9168 26.0372C46.4142 26.0338 45.9097 26.0303 45.4052 26.0659C45.2693 26.0749 45.1331 26.0835 44.9966 26.092C44.4751 26.1248 43.9504 26.1578 43.4311 26.2125C42.7932 26.2729 42.1639 26.3591 41.5432 26.4798C40.2329 26.7212 38.9484 27.0574 37.6984 27.5316C36.6122 27.9541 35.5519 28.4456 34.5691 29.0749C33.3795 29.8337 32.2847 30.7045 31.3364 31.7649C30.8623 32.2995 30.4054 32.8599 29.9916 33.4462C28.9485 34.9378 28.1726 36.5586 27.5778 38.2744C27.2416 39.24 26.983 40.2229 26.7675 41.2144C26.5778 42.068 26.4226 42.9301 26.3192 43.8009C26.3008 43.9608 26.2834 44.1217 26.266 44.2833C26.2346 44.5751 26.2029 44.8691 26.164 45.1632C26.1394 45.3669 26.1263 45.5691 26.113 45.7746Z" fill="#005AC7"/>
<path fill-rule="evenodd" clip-rule="evenodd" d="M27.8025 7.21024C26.9749 6.63258 26.0439 6.40842 25.0439 6.45152C24.6473 6.45152 24.2594 6.46015 23.8629 6.53774C22.5439 6.7964 21.587 7.52925 20.975 8.71043C20.4319 9.75367 20.2336 10.8831 20.2163 12.0557C20.2151 12.0751 20.2144 12.0943 20.2137 12.1133C20.2095 12.2295 20.2056 12.3375 20.087 12.4264C19.8457 12.6075 19.7595 12.8834 19.7853 13.1593C19.837 13.7283 20.0095 14.2629 20.3888 14.7198C20.43 14.7684 20.4754 14.8149 20.5213 14.8619C20.6381 14.9817 20.7579 15.1044 20.8198 15.2716C20.9663 15.651 21.156 16.0217 21.3715 16.3752C21.9836 17.3839 22.6905 18.2979 23.7077 18.9445C24.4404 19.4101 25.1991 19.5566 26.0008 19.1428C26.6215 18.8152 27.1473 18.3754 27.6214 17.8409C28.2507 17.1253 28.7507 16.3321 29.1559 15.4699C29.1777 15.4263 29.1973 15.3826 29.2167 15.3396C29.2738 15.2124 29.3288 15.0901 29.4318 14.9871C29.8456 14.5905 30.1042 14.099 30.2249 13.5386C30.3197 13.1075 30.3283 12.7023 29.9231 12.4006C29.8628 12.3488 29.8456 12.2626 29.8456 12.1764C29.8369 11.9005 29.8283 11.6246 29.8025 11.3487C29.7421 10.6331 29.6042 9.94335 29.3456 9.27947C29.018 8.45178 28.5525 7.72755 27.8025 7.21024ZM27.3283 8.01207C26.6473 7.49476 25.8628 7.35681 25.0439 7.32232C24.8284 7.33095 24.6129 7.33957 24.3973 7.38268C23.2249 7.52063 22.3543 8.10691 21.7939 9.14152C21.2594 10.1244 21.1474 11.2107 21.1129 12.3057C21.1129 12.573 21.0353 12.8144 20.837 13.0041C20.7163 13.1075 20.6991 13.2282 20.7422 13.3748C20.8543 13.7456 21.0094 14.0904 21.3112 14.3491C21.4577 14.4698 21.5439 14.6336 21.6215 14.806C22.1732 16.0907 22.9146 17.2288 24.0611 18.0651C24.7422 18.5565 25.1732 18.6427 25.9059 18.1427C26.3542 17.8409 26.7421 17.4702 27.0956 17.0563C27.6646 16.3752 28.1042 15.6337 28.449 14.8233C28.5266 14.6422 28.6128 14.4698 28.768 14.3405C29.0697 14.0818 29.2249 13.7369 29.3369 13.3662C29.3801 13.2282 29.3628 13.1075 29.2421 12.9955C29.0611 12.8316 28.9749 12.6075 28.9663 12.3661C28.949 11.5987 28.8801 10.84 28.6645 10.0985C28.4232 9.27085 28.0266 8.54662 27.3283 8.01207Z" fill="#005AC7"/>
</svg>
