<svg width="45" height="45" viewBox="0 0 45 45" fill="none" xmlns="http://www.w3.org/2000/svg">
<g clip-path="url(#clip0_7797_20626)">
<rect x="0.5" y="0.5" width="44" height="44" rx="12" fill="white"/>
<path fill-rule="evenodd" clip-rule="evenodd" d="M22.4997 7.83301C18.5164 7.83301 18.017 7.84989 16.4526 7.92127C14.8915 7.99247 13.8254 8.24043 12.8925 8.60302C11.928 8.97778 11.1101 9.47928 10.2946 10.2946C9.47928 11.1101 8.97778 11.928 8.60302 12.8925C8.24043 13.8254 7.99247 14.8915 7.92127 16.4526C7.84989 18.017 7.83301 18.5164 7.83301 22.4997C7.83301 26.4829 7.84989 26.9824 7.92127 28.5467C7.99247 30.1078 8.24043 31.174 8.60302 32.1069C8.97778 33.0714 9.47928 33.8893 10.2946 34.7047C11.1101 35.5201 11.928 36.0216 12.8925 36.3964C13.8254 36.7589 14.8915 37.0069 16.4526 37.0781C18.017 37.1495 18.5164 37.1663 22.4997 37.1663C26.4829 37.1663 26.9824 37.1495 28.5467 37.0781C30.1078 37.0069 31.174 36.7589 32.1069 36.3964C33.0714 36.0216 33.8893 35.5201 34.7047 34.7047C35.5201 33.8893 36.0216 33.0714 36.3964 32.1069C36.7589 31.174 37.0069 30.1078 37.0781 28.5467C37.1495 26.9824 37.1663 26.4829 37.1663 22.4997C37.1663 18.5164 37.1495 18.017 37.0781 16.4526C37.0069 14.8915 36.7589 13.8254 36.3964 12.8925C36.0216 11.928 35.5201 11.1101 34.7047 10.2946C33.8893 9.47928 33.0714 8.97778 32.1069 8.60302C31.174 8.24043 30.1078 7.99247 28.5467 7.92127C26.9824 7.84989 26.4829 7.83301 22.4997 7.83301ZM22.4996 10.4756C26.4158 10.4756 26.8796 10.4906 28.4262 10.5612C29.8562 10.6264 30.6328 10.8653 31.1496 11.0662C31.8342 11.3322 32.3228 11.65 32.836 12.1633C33.3492 12.6765 33.667 13.1651 33.9331 13.8497C34.134 14.3665 34.3729 15.1431 34.4381 16.5731C34.5087 18.1196 34.5236 18.5835 34.5236 22.4997C34.5236 26.4158 34.5087 26.8797 34.4381 28.4263C34.3729 29.8562 34.134 30.6328 33.9331 31.1497C33.667 31.8343 33.3492 32.3228 32.836 32.836C32.3228 33.3493 31.8342 33.6671 31.1496 33.9332C30.6328 34.134 29.8562 34.373 28.4262 34.4382C26.8799 34.5087 26.416 34.5237 22.4996 34.5237C18.5831 34.5237 18.1194 34.5087 16.573 34.4382C15.143 34.373 14.3664 34.134 13.8496 33.9332C13.165 33.6671 12.6764 33.3493 12.1632 32.836C11.65 32.3228 11.3321 31.8343 11.0661 31.1497C10.8652 30.6328 10.6263 29.8562 10.5611 28.4263C10.4905 26.8797 10.4756 26.4158 10.4756 22.4997C10.4756 18.5835 10.4905 18.1196 10.5611 16.5731C10.6263 15.1431 10.8652 14.3665 11.0661 13.8497C11.3321 13.1651 11.65 12.6765 12.1632 12.1633C12.6764 11.65 13.165 11.3322 13.8496 11.0662C14.3664 10.8653 15.143 10.6264 16.573 10.5612C18.1195 10.4906 18.5834 10.4756 22.4996 10.4756Z" fill="url(#paint0_linear_7797_20626)"/>
<path fill-rule="evenodd" clip-rule="evenodd" d="M22.4994 27.3882C19.7993 27.3882 17.6105 25.1994 17.6105 22.4993C17.6105 19.7992 19.7993 17.6104 22.4994 17.6104C25.1995 17.6104 27.3883 19.7992 27.3883 22.4993C27.3883 25.1994 25.1995 27.3882 22.4994 27.3882ZM22.4993 14.9678C18.3397 14.9678 14.9678 18.3397 14.9678 22.4993C14.9678 26.6589 18.3397 30.0308 22.4993 30.0308C26.6589 30.0308 30.0308 26.6589 30.0308 22.4993C30.0308 18.3397 26.6589 14.9678 22.4993 14.9678Z" fill="url(#paint1_linear_7797_20626)"/>
<path fill-rule="evenodd" clip-rule="evenodd" d="M32.0884 14.6702C32.0884 15.6422 31.3004 16.4302 30.3283 16.4302C29.3564 16.4302 28.5684 15.6422 28.5684 14.6702C28.5684 13.6982 29.3564 12.9102 30.3283 12.9102C31.3004 12.9102 32.0884 13.6982 32.0884 14.6702Z" fill="url(#paint2_linear_7797_20626)"/>
<g opacity="0.529578" filter="url(#filter0_f_7797_20626)">
<path fill-rule="evenodd" clip-rule="evenodd" d="M26.1667 11.5C22.1834 11.5 21.684 11.5169 20.1196 11.5883C18.5585 11.6595 17.4924 11.9074 16.5594 12.27C15.595 12.6448 14.7771 13.1463 13.9616 13.9616C13.1463 14.7771 12.6448 15.595 12.27 16.5594C11.9074 17.4924 11.6595 18.5585 11.5883 20.1196C11.5169 21.684 11.5 22.1834 11.5 26.1667C11.5 30.1499 11.5169 30.6494 11.5883 32.2137C11.6595 33.7748 11.9074 34.841 12.27 35.7739C12.6448 36.7384 13.1463 37.5563 13.9616 38.3717C14.7771 39.1871 15.595 39.6886 16.5594 40.0634C17.4924 40.4259 18.5585 40.6739 20.1196 40.7451C21.684 40.8164 22.1834 40.8333 26.1667 40.8333C30.1499 40.8333 30.6494 40.8164 32.2137 40.7451C33.7748 40.6739 34.841 40.4259 35.7739 40.0634C36.7384 39.6886 37.5563 39.1871 38.3717 38.3717C39.1871 37.5563 39.6886 36.7384 40.0634 35.7739C40.4259 34.841 40.6739 33.7748 40.7451 32.2137C40.8164 30.6494 40.8333 30.1499 40.8333 26.1667C40.8333 22.1834 40.8164 21.684 40.7451 20.1196C40.6739 18.5585 40.4259 17.4924 40.0634 16.5594C39.6886 15.595 39.1871 14.7771 38.3717 13.9616C37.5563 13.1463 36.7384 12.6448 35.7739 12.27C34.841 11.9074 33.7748 11.6595 32.2137 11.5883C30.6494 11.5169 30.1499 11.5 26.1667 11.5ZM26.1666 14.1427C30.0828 14.1427 30.5467 14.1576 32.0932 14.2282C33.5232 14.2934 34.2998 14.5323 34.8166 14.7332C35.5012 14.9992 35.9898 15.3171 36.503 15.8303C37.0162 16.3435 37.3341 16.8321 37.6001 17.5167C37.801 18.0335 38.0399 18.8101 38.1051 20.2401C38.1757 21.7866 38.1906 22.2505 38.1906 26.1667C38.1906 30.0828 38.1757 30.5467 38.1051 32.0933C38.0399 33.5233 37.801 34.2999 37.6001 34.8167C37.3341 35.5013 37.0162 35.9898 36.503 36.503C35.9898 37.0163 35.5012 37.3341 34.8166 37.6002C34.2998 37.8011 33.5232 38.04 32.0932 38.1052C30.5469 38.1757 30.0831 38.1907 26.1666 38.1907C22.2502 38.1907 21.7864 38.1757 20.24 38.1052C18.81 38.04 18.0334 37.8011 17.5166 37.6002C16.832 37.3341 16.3434 37.0163 15.8302 36.503C15.317 35.9898 14.9992 35.5013 14.7331 34.8167C14.5322 34.2999 14.2933 33.5233 14.2281 32.0933C14.1575 30.5467 14.1426 30.0828 14.1426 26.1667C14.1426 22.2505 14.1575 21.7866 14.2281 20.2401C14.2933 18.8101 14.5322 18.0335 14.7331 17.5167C14.9992 16.8321 15.317 16.3435 15.8302 15.8303C16.3434 15.3171 16.832 14.9992 17.5166 14.7332C18.0334 14.5323 18.81 14.2934 20.24 14.2282C21.7866 14.1576 22.2504 14.1427 26.1666 14.1427Z" fill="url(#paint3_linear_7797_20626)"/>
</g>
<g opacity="0.529578" filter="url(#filter1_f_7797_20626)">
<path fill-rule="evenodd" clip-rule="evenodd" d="M26.1665 31.0552C23.4664 31.0552 21.2775 28.8664 21.2775 26.1663C21.2775 23.4662 23.4664 21.2774 26.1665 21.2774C28.8665 21.2774 31.0553 23.4662 31.0553 26.1663C31.0553 28.8664 28.8665 31.0552 26.1665 31.0552ZM26.1663 18.6348C22.0067 18.6348 18.6348 22.0067 18.6348 26.1663C18.6348 30.3259 22.0067 33.6978 26.1663 33.6978C30.3259 33.6978 33.6978 30.3259 33.6978 26.1663C33.6978 22.0067 30.3259 18.6348 26.1663 18.6348Z" fill="url(#paint4_linear_7797_20626)"/>
</g>
<g opacity="0.529578" filter="url(#filter2_f_7797_20626)">
<path fill-rule="evenodd" clip-rule="evenodd" d="M35.7563 18.3372C35.7563 19.3092 34.9683 20.0972 33.9963 20.0972C33.0243 20.0972 32.2363 19.3092 32.2363 18.3372C32.2363 17.3651 33.0243 16.5771 33.9963 16.5771C34.9683 16.5771 35.7563 17.3651 35.7563 18.3372Z" fill="url(#paint5_linear_7797_20626)"/>
</g>
<g filter="url(#filter3_d_7797_20626)">
<path fill-rule="evenodd" clip-rule="evenodd" d="M22.4997 7.83301C18.5164 7.83301 18.017 7.84989 16.4526 7.92127C14.8915 7.99247 13.8254 8.24043 12.8925 8.60302C11.928 8.97778 11.1101 9.47928 10.2946 10.2946C9.47928 11.1101 8.97778 11.928 8.60302 12.8925C8.24043 13.8254 7.99247 14.8915 7.92127 16.4526C7.84989 18.017 7.83301 18.5164 7.83301 22.4997C7.83301 26.4829 7.84989 26.9824 7.92127 28.5467C7.99247 30.1078 8.24043 31.174 8.60302 32.1069C8.97778 33.0714 9.47928 33.8893 10.2946 34.7047C11.1101 35.5201 11.928 36.0216 12.8925 36.3964C13.8254 36.7589 14.8915 37.0069 16.4526 37.0781C18.017 37.1495 18.5164 37.1663 22.4997 37.1663C26.4829 37.1663 26.9824 37.1495 28.5467 37.0781C30.1078 37.0069 31.174 36.7589 32.1069 36.3964C33.0714 36.0216 33.8893 35.5201 34.7047 34.7047C35.5201 33.8893 36.0216 33.0714 36.3964 32.1069C36.7589 31.174 37.0069 30.1078 37.0781 28.5467C37.1495 26.9824 37.1663 26.4829 37.1663 22.4997C37.1663 18.5164 37.1495 18.017 37.0781 16.4526C37.0069 14.8915 36.7589 13.8254 36.3964 12.8925C36.0216 11.928 35.5201 11.1101 34.7047 10.2946C33.8893 9.47928 33.0714 8.97778 32.1069 8.60302C31.174 8.24043 30.1078 7.99247 28.5467 7.92127C26.9824 7.84989 26.4829 7.83301 22.4997 7.83301ZM22.4996 10.4756C26.4158 10.4756 26.8796 10.4906 28.4262 10.5612C29.8562 10.6264 30.6328 10.8653 31.1496 11.0662C31.8342 11.3322 32.3228 11.65 32.836 12.1633C33.3492 12.6765 33.667 13.1651 33.9331 13.8497C34.134 14.3665 34.3729 15.1431 34.4381 16.5731C34.5087 18.1196 34.5236 18.5835 34.5236 22.4997C34.5236 26.4158 34.5087 26.8797 34.4381 28.4263C34.3729 29.8562 34.134 30.6328 33.9331 31.1497C33.667 31.8343 33.3492 32.3228 32.836 32.836C32.3228 33.3493 31.8342 33.6671 31.1496 33.9332C30.6328 34.134 29.8562 34.373 28.4262 34.4382C26.8799 34.5087 26.416 34.5237 22.4996 34.5237C18.5831 34.5237 18.1194 34.5087 16.573 34.4382C15.143 34.373 14.3664 34.134 13.8496 33.9332C13.165 33.6671 12.6764 33.3493 12.1632 32.836C11.65 32.3228 11.3321 31.8343 11.0661 31.1497C10.8652 30.6328 10.6263 29.8562 10.5611 28.4263C10.4905 26.8797 10.4756 26.4158 10.4756 22.4997C10.4756 18.5835 10.4905 18.1196 10.5611 16.5731C10.6263 15.1431 10.8652 14.3665 11.0661 13.8497C11.3321 13.1651 11.65 12.6765 12.1632 12.1633C12.6764 11.65 13.165 11.3322 13.8496 11.0662C14.3664 10.8653 15.143 10.6264 16.573 10.5612C18.1195 10.4906 18.5834 10.4756 22.4996 10.4756Z" fill="url(#paint6_linear_7797_20626)"/>
</g>
<g filter="url(#filter4_d_7797_20626)">
<path fill-rule="evenodd" clip-rule="evenodd" d="M22.4994 27.3882C19.7993 27.3882 17.6105 25.1994 17.6105 22.4993C17.6105 19.7992 19.7993 17.6104 22.4994 17.6104C25.1995 17.6104 27.3883 19.7992 27.3883 22.4993C27.3883 25.1994 25.1995 27.3882 22.4994 27.3882ZM22.4993 14.9678C18.3397 14.9678 14.9678 18.3397 14.9678 22.4993C14.9678 26.6589 18.3397 30.0308 22.4993 30.0308C26.6589 30.0308 30.0308 26.6589 30.0308 22.4993C30.0308 18.3397 26.6589 14.9678 22.4993 14.9678Z" fill="url(#paint7_linear_7797_20626)"/>
</g>
<g filter="url(#filter5_d_7797_20626)">
<path fill-rule="evenodd" clip-rule="evenodd" d="M32.0884 14.6702C32.0884 15.6422 31.3004 16.4302 30.3283 16.4302C29.3564 16.4302 28.5684 15.6422 28.5684 14.6702C28.5684 13.6982 29.3564 12.9102 30.3283 12.9102C31.3004 12.9102 32.0884 13.6982 32.0884 14.6702Z" fill="url(#paint8_linear_7797_20626)"/>
</g>
</g>
<defs>
<filter id="filter0_f_7797_20626" x="0.626873" y="0.626873" width="51.0793" height="51.0793" filterUnits="userSpaceOnUse" color-interpolation-filters="sRGB">
<feFlood flood-opacity="0" result="BackgroundImageFix"/>
<feBlend mode="normal" in="SourceGraphic" in2="BackgroundImageFix" result="shape"/>
<feGaussianBlur stdDeviation="5.43656" result="effect1_foregroundBlur_7797_20626"/>
</filter>
<filter id="filter1_f_7797_20626" x="7.76164" y="7.76164" width="36.8097" height="36.8097" filterUnits="userSpaceOnUse" color-interpolation-filters="sRGB">
<feFlood flood-opacity="0" result="BackgroundImageFix"/>
<feBlend mode="normal" in="SourceGraphic" in2="BackgroundImageFix" result="shape"/>
<feGaussianBlur stdDeviation="5.43656" result="effect1_foregroundBlur_7797_20626"/>
</filter>
<filter id="filter2_f_7797_20626" x="21.3632" y="5.70402" width="25.2658" height="25.2658" filterUnits="userSpaceOnUse" color-interpolation-filters="sRGB">
<feFlood flood-opacity="0" result="BackgroundImageFix"/>
<feBlend mode="normal" in="SourceGraphic" in2="BackgroundImageFix" result="shape"/>
<feGaussianBlur stdDeviation="5.43656" result="effect1_foregroundBlur_7797_20626"/>
</filter>
<filter id="filter3_d_7797_20626" x="3.83301" y="1.83301" width="37.333" height="37.333" filterUnits="userSpaceOnUse" color-interpolation-filters="sRGB">
<feFlood flood-opacity="0" result="BackgroundImageFix"/>
<feColorMatrix in="SourceAlpha" type="matrix" values="0 0 0 0 0 0 0 0 0 0 0 0 0 0 0 0 0 0 127 0" result="hardAlpha"/>
<feOffset dy="-2"/>
<feGaussianBlur stdDeviation="2"/>
<feColorMatrix type="matrix" values="0 0 0 0 1 0 0 0 0 1 0 0 0 0 1 0 0 0 1 0"/>
<feBlend mode="normal" in2="BackgroundImageFix" result="effect1_dropShadow_7797_20626"/>
<feBlend mode="normal" in="SourceGraphic" in2="effect1_dropShadow_7797_20626" result="shape"/>
</filter>
<filter id="filter4_d_7797_20626" x="10.9678" y="8.96777" width="23.0635" height="23.0635" filterUnits="userSpaceOnUse" color-interpolation-filters="sRGB">
<feFlood flood-opacity="0" result="BackgroundImageFix"/>
<feColorMatrix in="SourceAlpha" type="matrix" values="0 0 0 0 0 0 0 0 0 0 0 0 0 0 0 0 0 0 127 0" result="hardAlpha"/>
<feOffset dy="-2"/>
<feGaussianBlur stdDeviation="2"/>
<feColorMatrix type="matrix" values="0 0 0 0 1 0 0 0 0 1 0 0 0 0 1 0 0 0 1 0"/>
<feBlend mode="normal" in2="BackgroundImageFix" result="effect1_dropShadow_7797_20626"/>
<feBlend mode="normal" in="SourceGraphic" in2="effect1_dropShadow_7797_20626" result="shape"/>
</filter>
<filter id="filter5_d_7797_20626" x="24.5684" y="6.91016" width="11.5195" height="11.5195" filterUnits="userSpaceOnUse" color-interpolation-filters="sRGB">
<feFlood flood-opacity="0" result="BackgroundImageFix"/>
<feColorMatrix in="SourceAlpha" type="matrix" values="0 0 0 0 0 0 0 0 0 0 0 0 0 0 0 0 0 0 127 0" result="hardAlpha"/>
<feOffset dy="-2"/>
<feGaussianBlur stdDeviation="2"/>
<feColorMatrix type="matrix" values="0 0 0 0 1 0 0 0 0 1 0 0 0 0 1 0 0 0 1 0"/>
<feBlend mode="normal" in2="BackgroundImageFix" result="effect1_dropShadow_7797_20626"/>
<feBlend mode="normal" in="SourceGraphic" in2="effect1_dropShadow_7797_20626" result="shape"/>
</filter>
<linearGradient id="paint0_linear_7797_20626" x1="22.4997" y1="51.833" x2="51.833" y2="22.4997" gradientUnits="userSpaceOnUse">
<stop stop-color="#FFD522"/>
<stop offset="0.497382" stop-color="#F1000B"/>
<stop offset="1" stop-color="#B900B3"/>
</linearGradient>
<linearGradient id="paint1_linear_7797_20626" x1="22.4993" y1="37.5624" x2="37.5624" y2="22.4993" gradientUnits="userSpaceOnUse">
<stop stop-color="#FFD522"/>
<stop offset="0.497382" stop-color="#F1000B"/>
<stop offset="1" stop-color="#B900B3"/>
</linearGradient>
<linearGradient id="paint2_linear_7797_20626" x1="30.3284" y1="18.1902" x2="33.8484" y2="14.6702" gradientUnits="userSpaceOnUse">
<stop stop-color="#FFD522"/>
<stop offset="0.497382" stop-color="#F1000B"/>
<stop offset="1" stop-color="#B900B3"/>
</linearGradient>
<linearGradient id="paint3_linear_7797_20626" x1="26.1667" y1="55.5" x2="55.5" y2="26.1667" gradientUnits="userSpaceOnUse">
<stop stop-color="#FFD522"/>
<stop offset="0.497382" stop-color="#F1000B"/>
<stop offset="1" stop-color="#B900B3"/>
</linearGradient>
<linearGradient id="paint4_linear_7797_20626" x1="26.1663" y1="41.2293" x2="41.2293" y2="26.1663" gradientUnits="userSpaceOnUse">
<stop stop-color="#FFD522"/>
<stop offset="0.497382" stop-color="#F1000B"/>
<stop offset="1" stop-color="#B900B3"/>
</linearGradient>
<linearGradient id="paint5_linear_7797_20626" x1="33.9963" y1="21.8572" x2="37.5163" y2="18.3372" gradientUnits="userSpaceOnUse">
<stop stop-color="#FFD522"/>
<stop offset="0.497382" stop-color="#F1000B"/>
<stop offset="1" stop-color="#B900B3"/>
</linearGradient>
<linearGradient id="paint6_linear_7797_20626" x1="22.4997" y1="51.833" x2="51.833" y2="22.4997" gradientUnits="userSpaceOnUse">
<stop stop-color="#FFD522"/>
<stop offset="0.497382" stop-color="#F1000B"/>
<stop offset="1" stop-color="#B900B3"/>
</linearGradient>
<linearGradient id="paint7_linear_7797_20626" x1="22.4993" y1="37.5624" x2="37.5624" y2="22.4993" gradientUnits="userSpaceOnUse">
<stop stop-color="#FFD522"/>
<stop offset="0.497382" stop-color="#F1000B"/>
<stop offset="1" stop-color="#B900B3"/>
</linearGradient>
<linearGradient id="paint8_linear_7797_20626" x1="30.3284" y1="18.1902" x2="33.8484" y2="14.6702" gradientUnits="userSpaceOnUse">
<stop stop-color="#FFD522"/>
<stop offset="0.497382" stop-color="#F1000B"/>
<stop offset="1" stop-color="#B900B3"/>
</linearGradient>
<clipPath id="clip0_7797_20626">
<rect x="0.5" y="0.5" width="44" height="44" rx="12" fill="white"/>
</clipPath>
</defs>
</svg>
