<svg width="45" height="45" viewBox="0 0 45 45" fill="none" xmlns="http://www.w3.org/2000/svg">
<g clip-path="url(#clip0_7797_20609)">
<rect x="0.5" y="0.5" width="44" height="44" rx="12" fill="white"/>
<path fill-rule="evenodd" clip-rule="evenodd" d="M9.90504 29.6344L7.83301 37.1663L15.5758 35.1454C17.7171 36.3064 20.1166 36.9147 22.5549 36.9149H22.5612C30.6105 36.9149 37.1629 30.3933 37.1663 22.3793C37.1679 18.5219 35.6298 14.822 32.8906 12.0939C30.1514 9.36578 26.4356 7.83303 22.5609 7.83301C14.5102 7.83301 7.95885 14.3532 7.95563 22.3676C7.95249 24.9184 8.62489 27.4248 9.90504 29.6344ZM16.378 32.7755L15.9345 32.5138L11.3401 33.713L12.5666 29.255L12.2776 28.7979C11.0619 26.8721 10.4185 24.6431 10.4219 22.3685C10.4245 15.7073 15.8699 10.2881 22.5659 10.2881C29.2702 10.2908 34.703 15.7037 34.7004 22.3781C34.6976 29.0398 29.252 34.4597 22.5613 34.4597H22.5566C20.3826 34.4599 18.2486 33.8782 16.378 32.7755Z" fill="url(#paint0_linear_7797_20609)"/>
<path d="M18.911 16.2912C18.6379 15.6862 18.3498 15.6741 18.0898 15.6638C17.8771 15.6547 17.6336 15.6553 17.3905 15.6553C17.0165 15.665 16.6637 15.8298 16.4171 16.1098C16.0826 16.4734 15.1396 17.3522 15.1396 19.1396C15.1396 20.9271 16.4475 22.6545 16.6298 22.8973C16.8122 23.1401 19.1544 26.9248 22.8637 28.381C25.9464 29.5912 26.5737 29.3505 27.2428 29.29C27.912 29.2295 29.4018 28.4116 29.706 27.5629C30.0102 26.7143 30.0102 25.9874 29.9189 25.8357C29.8277 25.684 29.5843 25.5935 29.2193 25.4118C28.8544 25.2301 27.0603 24.3511 26.7258 24.2299C26.3912 24.1088 26.1479 24.0483 25.9045 24.412C25.6612 24.7758 24.9623 25.5935 24.7491 25.8357C24.5359 26.0779 24.3233 26.1088 23.9583 25.9271C23.5933 25.7454 22.4177 25.3616 21.0237 24.124C19.9388 23.1611 19.2064 21.9719 18.9935 21.6082C18.7806 21.2445 18.9707 21.048 19.1537 20.8669C19.3176 20.7042 19.5187 20.4428 19.7012 20.2307C19.8837 20.0185 19.9441 19.8671 20.0658 19.6248C20.1875 19.3826 20.1266 19.1701 20.0354 18.9884C19.9441 18.8067 19.2355 17.0096 18.911 16.2912Z" fill="url(#paint1_linear_7797_20609)"/>
<g opacity="0.528898" filter="url(#filter0_f_7797_20609)">
<path fill-rule="evenodd" clip-rule="evenodd" d="M13.572 33.3014L11.5 40.8333L19.2427 38.8124C21.3841 39.9734 23.7836 40.5817 26.2219 40.5819H26.2282C34.2775 40.5819 40.8299 34.0602 40.8333 26.0463C40.8349 22.1889 39.2968 18.489 36.5576 15.7609C33.8184 13.0328 30.1026 11.5 26.2279 11.5C18.1771 11.5 11.6258 18.0202 11.6226 26.0346C11.6195 28.5853 12.2919 31.0918 13.572 33.3014ZM20.045 36.4425L19.6015 36.1808L15.0071 37.38L16.2336 32.922L15.9446 32.4649C14.7289 30.5391 14.0855 28.3101 14.0889 26.0355C14.0915 19.3743 19.5369 13.9551 26.2329 13.9551C32.9372 13.9578 38.37 19.3707 38.3674 26.0451C38.3646 32.7068 32.919 38.1267 26.2283 38.1267H26.2236C24.0496 38.1269 21.9156 37.5452 20.045 36.4425Z" fill="url(#paint2_linear_7797_20609)"/>
</g>
<g opacity="0.528898" filter="url(#filter1_f_7797_20609)">
<path d="M22.578 19.9582C22.3049 19.3532 22.0168 19.3411 21.7568 19.3308C21.5441 19.3217 21.3006 19.3223 21.0574 19.3223C20.6835 19.332 20.3306 19.4968 20.0841 19.7768C19.7496 20.1404 18.8066 21.0192 18.8066 22.8066C18.8066 24.594 20.1145 26.3214 20.2968 26.5643C20.4792 26.8071 22.8214 30.5918 26.5307 32.048C29.6133 33.2582 30.2406 33.0175 30.9098 32.957C31.579 32.8965 33.0688 32.0786 33.373 31.2299C33.6772 30.3813 33.6772 29.6544 33.5859 29.5027C33.4947 29.351 33.2513 29.2605 32.8863 29.0788C32.5214 28.8971 30.7273 28.0181 30.3927 27.8969C30.0582 27.7758 29.8149 27.7153 29.5715 28.079C29.3282 28.4428 28.6293 29.2605 28.4161 29.5027C28.2029 29.7449 27.9903 29.7758 27.6253 29.5941C27.2603 29.4124 26.0847 29.0286 24.6907 27.791C23.6058 26.8281 22.8734 25.6389 22.6605 25.2752C22.4476 24.9115 22.6377 24.715 22.8207 24.5339C22.9846 24.3712 23.1857 24.1098 23.3682 23.8977C23.5507 23.6855 23.6111 23.5341 23.7328 23.2918C23.8545 23.0496 23.7936 22.8371 23.7024 22.6554C23.6111 22.4737 22.9024 20.6766 22.578 19.9582Z" fill="url(#paint3_linear_7797_20609)"/>
</g>
<g filter="url(#filter2_d_7797_20609)">
<path fill-rule="evenodd" clip-rule="evenodd" d="M9.90504 29.6344L7.83301 37.1663L15.5758 35.1454C17.7171 36.3064 20.1166 36.9147 22.5549 36.9149H22.5612C30.6105 36.9149 37.1629 30.3933 37.1663 22.3793C37.1679 18.5219 35.6298 14.822 32.8906 12.0939C30.1514 9.36578 26.4356 7.83303 22.5609 7.83301C14.5102 7.83301 7.95885 14.3532 7.95563 22.3676C7.95249 24.9184 8.62489 27.4248 9.90504 29.6344ZM16.378 32.7755L15.9345 32.5138L11.3401 33.713L12.5666 29.255L12.2776 28.7979C11.0619 26.8721 10.4185 24.6431 10.4219 22.3685C10.4245 15.7073 15.8699 10.2881 22.5659 10.2881C29.2702 10.2908 34.703 15.7037 34.7004 22.3781C34.6976 29.0398 29.252 34.4597 22.5613 34.4597H22.5566C20.3826 34.4599 18.2486 33.8782 16.378 32.7755Z" fill="url(#paint4_linear_7797_20609)"/>
</g>
<g filter="url(#filter3_d_7797_20609)">
<path d="M18.911 16.2912C18.6379 15.6862 18.3498 15.6741 18.0898 15.6638C17.8771 15.6547 17.6336 15.6553 17.3905 15.6553C17.0165 15.665 16.6637 15.8298 16.4171 16.1098C16.0826 16.4734 15.1396 17.3522 15.1396 19.1396C15.1396 20.9271 16.4475 22.6545 16.6298 22.8973C16.8122 23.1401 19.1544 26.9248 22.8637 28.381C25.9464 29.5912 26.5737 29.3505 27.2428 29.29C27.912 29.2295 29.4018 28.4116 29.706 27.5629C30.0102 26.7143 30.0102 25.9874 29.9189 25.8357C29.8277 25.684 29.5843 25.5935 29.2193 25.4118C28.8544 25.2301 27.0603 24.3511 26.7258 24.2299C26.3912 24.1088 26.1479 24.0483 25.9045 24.412C25.6612 24.7758 24.9623 25.5935 24.7491 25.8357C24.5359 26.0779 24.3233 26.1088 23.9583 25.9271C23.5933 25.7454 22.4177 25.3616 21.0237 24.124C19.9388 23.1611 19.2064 21.9719 18.9935 21.6082C18.7806 21.2445 18.9707 21.048 19.1537 20.8669C19.3176 20.7042 19.5187 20.4428 19.7012 20.2307C19.8837 20.0185 19.9441 19.8671 20.0658 19.6248C20.1875 19.3826 20.1266 19.1701 20.0354 18.9884C19.9441 18.8067 19.2355 17.0096 18.911 16.2912Z" fill="url(#paint5_linear_7797_20609)"/>
</g>
</g>
<defs>
<filter id="filter0_f_7797_20609" x="0.626873" y="0.626873" width="51.0793" height="51.0793" filterUnits="userSpaceOnUse" color-interpolation-filters="sRGB">
<feFlood flood-opacity="0" result="BackgroundImageFix"/>
<feBlend mode="normal" in="SourceGraphic" in2="BackgroundImageFix" result="shape"/>
<feGaussianBlur stdDeviation="5.43656" result="effect1_foregroundBlur_7797_20609"/>
</filter>
<filter id="filter1_f_7797_20609" x="7.93351" y="8.44914" width="36.5783" height="35.4416" filterUnits="userSpaceOnUse" color-interpolation-filters="sRGB">
<feFlood flood-opacity="0" result="BackgroundImageFix"/>
<feBlend mode="normal" in="SourceGraphic" in2="BackgroundImageFix" result="shape"/>
<feGaussianBlur stdDeviation="5.43656" result="effect1_foregroundBlur_7797_20609"/>
</filter>
<filter id="filter2_d_7797_20609" x="3.83301" y="1.83301" width="37.333" height="37.333" filterUnits="userSpaceOnUse" color-interpolation-filters="sRGB">
<feFlood flood-opacity="0" result="BackgroundImageFix"/>
<feColorMatrix in="SourceAlpha" type="matrix" values="0 0 0 0 0 0 0 0 0 0 0 0 0 0 0 0 0 0 127 0" result="hardAlpha"/>
<feOffset dy="-2"/>
<feGaussianBlur stdDeviation="2"/>
<feColorMatrix type="matrix" values="0 0 0 0 1 0 0 0 0 1 0 0 0 0 1 0 0 0 1 0"/>
<feBlend mode="normal" in2="BackgroundImageFix" result="effect1_dropShadow_7797_20609"/>
<feBlend mode="normal" in="SourceGraphic" in2="effect1_dropShadow_7797_20609" result="shape"/>
</filter>
<filter id="filter3_d_7797_20609" x="11.1396" y="9.65527" width="22.832" height="21.6953" filterUnits="userSpaceOnUse" color-interpolation-filters="sRGB">
<feFlood flood-opacity="0" result="BackgroundImageFix"/>
<feColorMatrix in="SourceAlpha" type="matrix" values="0 0 0 0 0 0 0 0 0 0 0 0 0 0 0 0 0 0 127 0" result="hardAlpha"/>
<feOffset dy="-2"/>
<feGaussianBlur stdDeviation="2"/>
<feColorMatrix type="matrix" values="0 0 0 0 1 0 0 0 0 1 0 0 0 0 1 0 0 0 1 0"/>
<feBlend mode="normal" in2="BackgroundImageFix" result="effect1_dropShadow_7797_20609"/>
<feBlend mode="normal" in="SourceGraphic" in2="effect1_dropShadow_7797_20609" result="shape"/>
</filter>
<linearGradient id="paint0_linear_7797_20609" x1="37.1663" y1="37.1663" x2="37.1663" y2="7.83301" gradientUnits="userSpaceOnUse">
<stop stop-color="#20B038"/>
<stop offset="1" stop-color="#60D66A"/>
</linearGradient>
<linearGradient id="paint1_linear_7797_20609" x1="29.9721" y1="29.3502" x2="29.9721" y2="15.6553" gradientUnits="userSpaceOnUse">
<stop stop-color="#20B038"/>
<stop offset="1" stop-color="#60D66A"/>
</linearGradient>
<linearGradient id="paint2_linear_7797_20609" x1="40.8333" y1="40.8333" x2="40.8333" y2="11.5" gradientUnits="userSpaceOnUse">
<stop stop-color="#20B038"/>
<stop offset="1" stop-color="#60D66A"/>
</linearGradient>
<linearGradient id="paint3_linear_7797_20609" x1="33.6391" y1="33.0172" x2="33.6391" y2="19.3223" gradientUnits="userSpaceOnUse">
<stop stop-color="#20B038"/>
<stop offset="1" stop-color="#60D66A"/>
</linearGradient>
<linearGradient id="paint4_linear_7797_20609" x1="37.1663" y1="37.1663" x2="37.1663" y2="7.83301" gradientUnits="userSpaceOnUse">
<stop stop-color="#20B038"/>
<stop offset="1" stop-color="#60D66A"/>
</linearGradient>
<linearGradient id="paint5_linear_7797_20609" x1="29.9721" y1="29.3502" x2="29.9721" y2="15.6553" gradientUnits="userSpaceOnUse">
<stop stop-color="#20B038"/>
<stop offset="1" stop-color="#60D66A"/>
</linearGradient>
<clipPath id="clip0_7797_20609">
<rect x="0.5" y="0.5" width="44" height="44" rx="12" fill="white"/>
</clipPath>
</defs>
</svg>
